<svg xmlns="http://www.w3.org/2000/svg" viewBox="0 0 299.9 58.3"><style>.a{fill:#fff;}</style><path d="M103.3 29.4c-4.9-2.9-7.7-4-10.9-4-2.9 0-4.9 1.3-4.9 3.4 0 1.8 1.5 3.2 5.5 5.4l2.7 1.5c6.3 3.5 9.4 7.4 9.4 11.9 0 6.2-5.4 10.7-13 10.7-4.3 0-7.1-.8-12.6-3.5v-8.1c4.3 3 9.1 5 12 5 3.1 0 5.7-1.8 5.7-3.9 0-2.2-1-3.2-5.8-5.9-4.5-2.5-7-4.3-8.8-6.1-1.9-1.9-2.9-4.5-2.9-7.1 0-5.8 5.1-9.9 12.1-9.9 3.9 0 7.3.9 11.4 3.1l.1 7.5zm80.8 20.5h24v7.5h-32.3V0h8.3zm-22-11.9l7.7-14.6h-4.3l-6.1 11.8-8.2-8.1.2-.1c.8-.3 8-2.9 8-9.3 0-5.7-5.1-9.6-9.8-9.6-5.4 0-9.9 4.1-9.9 9.1 0 4 2.6 6.6 4.6 8.6l.2.2-.2.1c-6.4 2.9-9.5 6.9-9.5 12.3 0 6.1 5 12.6 13 12.6 7.7 0 11.1-6.4 12.5-9.2l.1-.2 9.6 9.3 2.8-2.7L162.1 38zm-18.6-20.8c0-2.6 2.2-5.3 5.9-5.4 1.8 0 3.4.7 4.5 1.9 1 1 1.5 2.4 1.5 3.7.1 4.3-4.5 6.1-6.7 6.9l-.4.2-.1-.1c-2.3-2.1-4.7-4.4-4.7-7.2zm13.8 21.7c-1.6 3.2-4.3 8.4-10 8.4-4.2 0-8.8-3.5-8.8-8.7 0-3 1.4-5.4 4.4-7.6 1-.7 3.1-1.8 4.2-2.2h.1l10.2 10-.1.1zM26.7 48.3c-2.2 1.4-4.5 1.8-10.4 1.8H8.2V32h7.7c6.5 0 9.1.6 11.5 2.4 2.1 1.5 3.4 4 3.4 6.6-.1 2.9-1.6 5.7-4.1 7.3M8.1 6.7h1.6c6.5 0 9.1.6 11.5 2.4 2.1 1.5 3.4 4 3.4 6.7 0 2.9-1.5 5.7-4 7.3-2.2 1.4-4.5 1.8-10.4 1.8h-2V6.7h-.1zM31.3 29c-2.1-1.1-2.9-1.5-5.5-2.2C30.3 24.5 32 20 32 14.9c0-4.7-1.4-8.1-5.9-11.5C23.6 1.5 19.6 0 10.5 0H0v57.4h19.5c4.7 0 8.2-.8 11.5-2.5 5.5-2.9 8-7.5 8-13.4 0-6.1-2.6-9.8-7.7-12.5m238.4.4c-4.9-2.9-7.7-4-10.9-4-2.9 0-4.9 1.3-4.9 3.4 0 1.8 1.5 3.2 5.5 5.4l2.7 1.5c6.3 3.5 9.4 7.4 9.4 11.9 0 6.2-5.4 10.7-13 10.7-4.3 0-7.1-.8-12.6-3.5v-8.1c4.3 3 9.1 5 12 5 3.1 0 5.7-1.8 5.7-3.9 0-2.2-1-3.2-5.8-5.9-4.5-2.5-7-4.3-8.8-6.1-1.9-1.9-2.9-4.5-2.9-7.1 0-5.8 5.1-9.9 12.1-9.9 3.9 0 7.3.9 11.4 3.1l.1 7.5zm28.4 0c-4.9-2.9-7.7-4-10.9-4-2.9 0-4.9 1.3-4.9 3.4 0 1.8 1.5 3.2 5.5 5.4l2.7 1.5c6.3 3.5 9.4 7.4 9.4 11.9 0 6.2-5.4 10.7-13 10.7-4.3 0-7.1-.8-12.6-3.5v-8.1c4.3 3 9.1 5 12 5 3.1 0 5.7-1.8 5.7-3.9 0-2.2-1-3.2-5.8-5.9-4.5-2.5-7-4.3-8.8-6.1-1.9-1.9-2.9-4.5-2.9-7.1 0-5.8 5-9.9 12.1-9.9 3.9 0 7.3.9 11.4 3.1l.1 7.5zM59.6 18.9C49.2 18.9 42 26.8 42 38.3c0 5.9 1.8 10.6 5.6 14.6 3.6 3.8 7.4 5.3 13 5.3 5.8 0 10-1.3 14.8-4.5v-7.3c-4.2 3.1-8.8 4.6-13.6 4.6-6.9 0-11.7-4.5-12.3-11.5h26.6v-1.3c0-11.8-6.5-19.3-16.5-19.3zm0 6.4c5.3 0 8.5 3.2 9.1 8.9H49.8c1.1-5.6 4.5-8.9 9.8-8.9zm166.5-6.4c-10.4 0-17.6 7.9-17.6 19.4 0 5.9 1.8 10.6 5.6 14.6 3.6 3.8 7.4 5.3 13 5.3 5.8 0 10-1.3 14.8-4.5v-7.3c-4.2 3.1-8.8 4.6-13.6 4.6-6.9 0-11.7-4.5-12.2-11.5h26.6v-1.3c-.1-11.8-6.6-19.3-16.6-19.3zm0 6.4c5.3 0 8.5 3.2 9 8.9h-18.9c1.1-5.6 4.6-8.9 9.9-8.9zm-99.8 26.1c-3.6 0-5.2-1.9-5.4-6.5V26.4h10.7v-6.7h-10.7V6.8l-7.5 5v7.8h-6.6v6.7h6.6v16.8c0 4.9.1 5.8.8 8.1 1.3 4.1 5.9 7 11.1 7 2.4 0 5.6-.7 8.2-1.9v-6.9c-2.5 1.3-4.9 2-7.2 2z" class="a"/></svg>
