<?xml version="1.0" encoding="utf-8"?>
<!-- Generator: Adobe Illustrator 18.1.1, SVG Export Plug-In . SVG Version: 6.00 Build 0)  -->
<svg version="1.1" id="Layer_1" xmlns="http://www.w3.org/2000/svg" xmlns:xlink="http://www.w3.org/1999/xlink" x="0px" y="0px"
	 viewBox="0 204 800 192" enable-background="new 0 204 800 192" xml:space="preserve">
<path fill="#555555" d="M227.6,359H221v35h18.8v-6h-12.2V359z M288.2,358.4c-5,0-9.6,1.8-13,5.4c-3.6,3.4-5.4,8-5.4,13
	s1.8,9.4,5.4,12.8c3.4,3.4,8.2,5.4,13,5.4s9.6-1.8,13-5.4c3.6-3.4,5.4-8,5.4-12.8c0-5-1.8-9.4-5.4-13
	C297.8,360.2,293.2,358.4,288.2,358.4z M296.4,385c-2.2,2.2-5,3.4-8.2,3.4s-6-1.2-8.2-3.4s-3.4-5.2-3.4-8.4s1.2-6.2,3.4-8.6
	c2.2-2.2,5.2-3.4,8.2-3.4c3.2,0,6,1.2,8.2,3.4s3.4,5.2,3.4,8.6C299.8,379.8,298.6,382.8,296.4,385z M366.4,381.4c-1-1-1.8-2-2.6-2.8
	L342.6,358l-1-1v37h6.2v-22.4c0.6,0.8,1.4,1.6,2.2,2.4l21.6,21l1,1v-37h-6.2L366.4,381.4L366.4,381.4z M432.4,362.4
	c-4.2-3.2-9.2-3.2-15.4-3.2h-8V394h9.4c6,0,10.2-0.2,14-3.2c4-3,6.2-8,6.2-14.2C438.6,370.4,436.4,365.4,432.4,362.4z M428,385.6
	c-2.2,2-5,2-8.6,2h-1.2h-1.4h-1.4v-22.4h1.4h1h1c4,0,7,0.2,9.2,2c2.4,2,3.6,5.2,3.6,9.2C431.6,380.6,430.4,383.6,428,385.6z
	 M490.4,358.4c-5,0-9.6,1.8-13,5.2c-3.6,3.4-5.4,8-5.4,13s1.8,9.4,5.4,12.8c3.4,3.4,8.2,5.4,13,5.4s9.6-1.8,13-5.4
	c3.6-3.4,5.4-8,5.4-13s-1.8-9.4-5.4-13C500,360.2,495.4,358.4,490.4,358.4z M498.6,385c-2.2,2.2-5,3.4-8.2,3.4s-6-1.2-8.2-3.4
	s-3.4-5.2-3.4-8.4s1.2-6.2,3.4-8.6c2.2-2.2,5.2-3.4,8.2-3.4c3.2,0,6,1.2,8.2,3.4s3.4,5.2,3.4,8.6C502,379.8,500.8,382.8,498.6,385z
	 M568.6,381.4c-1-1-1.8-2-2.6-2.8L544.8,358l-1-1v37h6.2v-22.4c0.6,0.8,1.4,1.6,2.2,2.4l21.6,21l1,1v-37h-6.2V381.4z M0,220.8h15
	v69.6h10.4v-69.6H40v-12.2H0V220.8z M96.2,290.4h32.6v-13h-22.2v-24.8h22.2v-12.8h-22.2v-19h22.2v-12.2H96.2V290.4z M227.2,282.6
	c6.6-7.2,10-18.8,10-33.2s-3.4-26-10-33.2c-7-7.8-15.4-7.8-25.8-7.8h-13v82h14.2h1.2C213.6,290.4,220.8,290,227.2,282.6z
	 M205.8,277.4c-0.6,0-1.4,0-2,0c-0.8,0-1.6,0-2.4,0h-2.6v-56h2.6h1.8h1.6c6.8,0,11.6,0.4,15.6,5c4.2,5,6.2,12.8,6.2,22.8
	c0,10.2-2,17.8-6.2,22.8C216.4,277,211.6,277.4,205.8,277.4z M398.6,246.8c4.6-2.8,7-8.6,7-16.6c0-7.4-2-13.8-5.6-17.4
	c-3.6-4-8.4-4.2-14.4-4.2h-14.8v82h14.8c8.2,0,13.6-0.4,17.6-6.4c3-4.2,4.6-10.6,4.6-17.2C408,256.6,404.4,249.2,398.6,246.8z
	 M381,220.6h2.8c7.8,0,11.4,1.6,11.4,11.4c0,7.8-3,10.6-11.4,10.6H381V220.6z M394,276c-2,2-5.4,2.4-10.4,2.4H381v-24.6h2.6
	c0.4,0,1,0,1.4,0s0.8,0,1.4,0c2.6,0,5,0.2,7,1.8c2.6,2,4,5.8,4,10.6C397.4,270.4,396.2,273.8,394,276z M487.2,205.8l-0.6-1.8
	l-0.6,1.8l-27.2,83.8l-0.2,0.8h10.8l0.2-0.4l6.4-20.4h21.4l6.2,20.4l0.2,0.4h11l-0.2-0.8L487.2,205.8z M479.8,257.6
	c0,0,6.6-21.6,7-23.8c0.6,2.4,7,23.8,7,23.8H479.8z M588.2,245l22-35.6l0.6-1h-12.6l-0.2,0.4l-19,31.6v-31.8h-10.2v82H579V251
	l21,39.2l0.2,0.4h13.2l-0.4-0.8L588.2,245z M667.8,290.4h32.6v-13H678v-24.8h22.2v-12.8H678v-19h22.2v-12.2h-32.6v81.8H667.8z
	 M799.6,289.6l-19-36c8.4-1.8,12.6-9.4,12.6-22.2c0-7.4-2-14.2-5.6-18.2s-8.2-4.8-14.4-4.8h-13.4v82h9.8v-36l0,0l18.6,35.8l0.2,0.4
	H800L799.6,289.6z M771.2,243h-1v-22h1c7.8,0,11.4,1.8,11.4,11.4C782.6,241.4,779.2,243,771.2,243z"/>
</svg>
