<svg xmlns="http://www.w3.org/2000/svg" x="0px" y="0px" xmlns:xlink="http://www.w3.org/1999/xlink" viewBox="0 0 210.3 119.7" enable-background="new 0 0 210.3 119.7">
  <defs>
    <path id="a" d="M0 0H210.3V119.7H0z"/>
  </defs>
  <clipPath id="b">
    <use xlink:href="#a" overflow="visible"/>
  </clipPath>
  <path fill="#FFF" d="M210.3,38.3l-0.3-1.7c0,0-0.2-0.6-0.2-0.6c0,0-0.2-0.6-0.2-0.6 c-1.6-3.8-4.6-5.8-8.7-5.9c0.8-0.4,2.5-1.3,2.5-1.3l-5.8-10.9c0,0-13.5,6.9-14.5,7.5c-2.9,1.7-5.9,5-5.9,9.3c0,0.7,0.2,1.4,0.4,2.1 c-2.6-3.7-5.9-5-10.3-3.9c-2,0.5-4.2,1.8-6.1,3.6c-0.2-0.4-0.6-1.5-0.6-1.5l-14.9,5.8c0,0,1.4,3.7,1.8,4.8 c-1.5-1.2-3.3-2.2-5.6-2.6c0,0,0,0,0,0c0-0.1-1.1-1.4-1.2-1.5c0.3-0.3,6.7-6,6.7-6s-0.7-0.8-0.9-1.1c0.3-0.3,3.1-3,3.1-3 s0-5.2,0-5.2c0-0.1,0-0.3-1.4-2.6c0-0.1-2.6-2.3-2.6-2.3s-1.1,0.7-1.1,0.7c0-0.1-3.5-1-3.5-1s-0.9-0.2-1.2-0.3c0,0,0,0,0,0 c0-1.1-0.5-2.1-1.5-3c-0.1-2.1-2-3.8-4.3-3.8c-2.5,0-4.5,1.9-4.5,4.3c0,1,0.5,2,1.5,2.9c0,0,0,0,0,0c-0.5-0.2-2.1-0.7-2.1-0.7 s-0.3,1.1-0.4,1.4c-0.1,0-0.2-0.1-0.2-0.1c0,0-1.7-0.3-2.2-0.4c0.1-0.4,0.6-4.8,0.6-4.8s-1.3,0.1-1.7,0.2c0.1-0.5,0.3-2.7,0.3-2.7 l-8.1,0.8c-0.1,0-2.3,2.5-2.4,2.6c0.1-0.8,0.2-3.3,0.2-3.3s-5.4,3.2-6.2,3.7c0-0.6-0.4-6.6-0.4-6.6l-10.1,6.8c0,0,0.2,4.5,0.2,4.7 c-0.1,0.1-0.4,0.3-0.4,0.3c0-0.1-4.7-0.7-5.4-0.8c-0.1-0.9-0.5-1.8-1.4-2.7c-0.1-2.1-2-3.8-4.3-3.8c-2.4,0-4.4,1.9-4.4,4.3 c-0.1,0-0.9,0.3-1.3,0.4c0-0.5,0.2-2.8,0.2-2.8l-8.9,2.4l-0.4,0.9c0,0-5,13.4-5.4,14.3c-0.3,0-1.5-0.2-1.5-0.2L63,40 c0,0,1.6,1.1,1.9,1.2c-0.1,0.3-0.5,1.3-0.5,1.3s5.5,3.6,5.8,3.8c0,0.1-0.8,1.4-1,1.6c-0.3,0-8.6,0-8.6,0V49c-2.6-1-5.6-1-7.9,0 c-5,2.2-8,7.6-8,14.3c0,0,0,0.1,0,0.1c0,0,0.1,1.7,0.1,2.3h-0.2c-0.9,0-3.1-0.3-3.1-1.1c0,0,0-12.6,0-12.6c0.1-2,2.2-2.1,2.9-2.1 l2,0l0-2v-8.7h9.5l0-13.9c0-3.4-1.4-5.9-4-6.9c-1.4-0.5-2.9-0.5-4.6,0.1v-0.5h-9.4V7.8C37.7,1.7,32.8,0,30.2,0H0.3v11.7l2,0 c0.3,0,2.9,0.1,3,2.1l0,12.1c-0.1,1.9-2.7,1.9-3,1.9l-1.9,0L0.3,50l2,0c0.5,0,3,0,3,2.1l0,12.6c0,0.8-2.2,1.1-3.3,1.1l-2,0l0,13.5 h22.1v-9.1c0.4,0.6,1.2,1.6,1.2,1.6s0.8-1.1,1.3-1.6v9.2h22.6c0,0,0-5.5,0-6.3c0,0.1,0.1,0.2,0.1,0.2c0,0,0.6,0.9,0.6,0.9 c0,0,2,2.1,2,2.1c0,0,0,0,1.3,0.9c0,0,1.5,0.8,1.5,0.8c1.1,0.5,2.4,0.7,3.8,0.7c0.1,0.3,0.4,1.4,0.4,1.4 c6.5,23.3,27.3,39.6,50.5,39.6c27.5,0,50.1-21.6,52.5-50.2c0,0,0.1-1.1,0.1-1.4c7.1-2.3,22.4-8.5,28.3-11.4l-1.6-4.4l2.5,3.9 l14.5-7.2c2.6-1.4,4.5-3.3,5.6-5.6c0,0,0.1-0.2,0.1-0.2c0,0,0.5-1.3,0.5-1.3l0.1-0.2c0,0,0,0,0,0c0,0,0.4-2,0.4-2 C210.3,39.7,210.3,38.4,210.3,38.3L210.3,38.3L210.3,38.3z" clip-path="url(#b)"/>
  <path fill="#FFDB00" d="M88.4,24.3c1.4,0,2.5-1,2.5-2.3c0-1.3-1.1-2.3-2.5-2.3c-1.4,0-2.5,1-2.5,2.3 C86,23.3,87.1,24.3,88.4,24.3 M141.3,37.7l3.4-3l-1.1-1.3c0,0-0.9,0.7-1.2-0.1c-0.1-0.2,0.2-1.5,0.6-2.4c0.5-0.9,1.2-2.3,1.6-1.5 c0.6,1,0.8,2.7,0.8,2.7l2.2-2.2l0-3.6c0,0-0.5-0.5-0.9-0.8c-0.4,0.3-1.9,1.5-2.2,0.8c-0.2-0.4,0.4-0.9,0.4-0.9l-4.6-1.2l-1.2,2.7 l1.1,0.9l-2.1,7.3L141.3,37.7z M135.4,22.3c1.4,0,2.5-1,2.5-2.3c0-1.3-1.1-2.3-2.5-2.3c-1.4,0-2.5,1-2.5,2.3 C132.9,21.3,134,22.3,135.4,22.3 M75.9,35.7l-1.4-0.4l1.8-4.9L75.9,35.7z M134.7,37.7c0.8-1.1,2.3-3.3,2.3-3.3l-1.1-1.1 c0,0-0.5,0.7-0.9,0.3c-0.5-0.5,1.7-7.1,1.7-7.1l-5.2-1.6l-0.7,2.6l1.2,1.1l-0.8,6.6c-1.3-0.9-2.7-1.7-4.2-2.4 c0.2-1,0.9-3.6,2.2-7.1l-4.9-1l-2.3,2.6l1.2,0.8c0,0,0.3-0.3,0.6-0.5c0.6-0.3,0.8,0.4,0.4,1.1c-0.8,0.6-1.7,1.2-2.5,1.8 c-1.1-0.4-2.2-0.7-3.3-1c1.5-3.4,3.1-7,3.6-7.8c0.5-0.2,2.1-0.3,2.1-0.3l0.4-3.2l-4.6,0.5l-5.3,10c-0.3,0-0.5-0.1-0.8-0.1 c0-0.9-0.1-5.3,0.3-8.8l-5.5,3.4l-0.5,4.1c0,0-0.3,0.3-0.6,0.9c0,0-0.1,0-0.1,0c-0.1,0-0.1,0-0.2,0c0-2.4-0.3-10.7-0.3-10.7 l-5.2,3.6l0.1,2.2l1.2,0.1c0.2,1.6,0.3,3.2,0.5,4.9c-0.6,0.1-1.3,0.1-1.9,0.2l-0.1-1c0,0-0.6-0.4-0.9-0.7c-0.4,0.3-1.7,1.7-2.1,1.1 c-0.3-0.4,0.3-0.9,0.3-0.9l-5.4-0.7l-0.9,2.8l1.2,0.8l-0.1,0.5c-1.7,0.6-3.3,1.2-4.9,2c0.5-1.9,1.1-3.7,1.1-3.7l-5.6-1.5l-0.7,2.7 l1.2,1.2l-0.3,3.8c-1.5,0.9-2.9,1.9-4.2,3c-0.1-4.9,0.4-15.4,0.5-15.6c-0.5,0.2-5.3,1.5-5.3,1.5l-6,15.8L68,39.1l-1.1,2.7l4.5,3 l2.3-6.2l2.5,0.6c0.1,0.7,0.2,1.4,0.2,2c-6.1,6.5-9.7,14.9-9.7,24.2c0,20.6,18.2,37.3,40.7,37.3s40.7-16.7,40.7-37.3 C148.1,54.3,142.9,44.5,134.7,37.7" clip-path="url(#b)"/>
  <path d="M117.3 85L117.3 85 117.3 85M136.7 77c-.2-.2-.3-.5-.6-.5-.2.2-.5.4-.4.8.2.3.5.4.9.4C136.4 77.4 136.8 77.3 136.7 77M97.5 99.1L97.5 99.1 97.5 99.1 97.5 99.1" clip-path="url(#b)"/>
  <path d="M142,77.5c-0.1,0-0.2,0-0.3,0c-0.1,0-0.5-0.2-0.3-0.4c-0.1-0.3,0-0.5,0-0.6 c0.1-0.2,0.4-0.2,0.6-0.1c0.2,0.1,0.3,0.3,0.3,0.5C142.4,77.1,142.2,77.3,142,77.5 M140.4,78.4c0,0-0.2,0-0.2,0 c-0.1,0-0.3,0-0.4-0.2c-0.1-0.2-0.1-0.4,0.1-0.6c0.1-0.1,0.3-0.2,0.5-0.2c0.1,0,0.3,0.1,0.3,0.4l0,0.1 C140.6,78,140.6,78.3,140.4,78.4 M138.9,79.1c-0.1,0.1-0.1,0.3-0.3,0.3c-0.1,0-0.3,0-0.4-0.2c0-0.1-0.1-0.3-0.1-0.4 c0-0.1,0.1-0.3,0.4-0.4c0.2,0,0.4,0,0.5,0.3C138.9,79,138.9,79.1,138.9,79.1 M136.5,80.3c-0.1-0.1-0.1-0.4,0.1-0.5c0,0,0,0.1,0,0.1 c0,0.1,0,0.2,0.1,0.3c0,0,0.1,0,0.1,0.1c0-0.1-0.1-0.2-0.1-0.2c0,0,0,0,0,0.1c0,0,0,0,0,0c0-0.1,0-0.1,0-0.1c0.1,0,0.1,0,0.1,0 c0,0,0,0,0,0.1c0,0,0,0,0,0.1c0,0,0,0,0,0c0,0,0,0,0,0.1c-0.1,0-0.1,0-0.1,0c0,0,0,0,0,0c0,0,0,0,0,0c0,0,0,0,0,0c0,0,0,0,0,0 c0,0,0,0,0,0c0,0,0,0.1,0,0.1c0.1,0.1,0.2,0.2,0.3,0.2C136.7,80.5,136.6,80.4,136.5,80.3 M134.6,79.6c-0.1,0.1-0.2,0.2-0.3,0.2 c-0.3,0.1-0.6,0-0.8-0.4c0,0,0-0.2,0-0.2c0-0.2,0-0.5,0.4-0.7c0.3,0,0.5,0.1,0.7,0.3c0.1,0.1,0.1,0.2,0.1,0.3c0,0,0,0.1,0,0.1 c0,0,0,0.1,0,0.1C134.7,79.4,134.6,79.5,134.6,79.6 M132.6,80.8c-0.2,0.1-0.4,0.1-0.5,0c-0.1-0.1-0.2-0.2-0.2-0.3 c-0.1-0.3,0.1-0.5,0.1-0.5c0.2-0.1,0.4-0.1,0.6,0c0.2,0.1,0.2,0.3,0.2,0.5c0,0,0,0,0-0.1C132.8,80.7,132.7,80.8,132.6,80.8 M130.9,81.8c-0.2,0.1-0.3,0.1-0.4,0c-0.1-0.1-0.2-0.2-0.2-0.4c-0.1-0.2,0-0.4,0.2-0.5c0.2-0.1,0.5,0,0.6,0.2c0,0,0,0.2,0,0.2 C131.1,81.4,131.2,81.7,130.9,81.8 M129.5,82.5c0,0.1-0.1,0.2-0.1,0.2l-0.4,0.2c-0.1,0-0.1,0-0.2-0.1c-0.1-0.1-0.2-0.3-0.2-0.5 c0-0.1,0.1-0.2,0.3-0.3c0.2,0,0.4,0,0.5,0.3C129.5,82.3,129.5,82.5,129.5,82.5 M127.7,83.7C127.7,83.7,127.7,83.7,127.7,83.7 l-0.3,0.2c-0.1,0-0.2,0-0.3,0c-0.3-0.3-0.1-0.5-0.1-0.6c0.1-0.2,0.4-0.2,0.6-0.1C127.7,83.2,127.8,83.4,127.7,83.7 M126.3,82.3 c-0.3,0-0.5-0.2-0.7-0.5c-0.1-0.5,0.1-0.9,0.5-1c0.3-0.1,0.5,0.1,0.6,0.2c0,0,0.2,0.2,0.2,0.2c0,0.2,0.1,0.6-0.1,0.9 C126.7,82.2,126.6,82.3,126.3,82.3 M124.9,83.2c-0.2,0.1-0.4,0.1-0.8-0.3c-0.1-0.2-0.1-0.4,0.1-0.6c0.2-0.2,0.5-0.2,0.7-0.1 c0.2,0.1,0.3,0.2,0.3,0.4c0,0,0-0.1,0-0.1c0,0,0,0.1,0,0.1c0,0,0,0,0,0C125.2,82.9,125,83.1,124.9,83.2 M123.2,84.2 c0,0.1-0.1,0.1-0.2,0.1c-0.2,0-0.5,0-0.6-0.3c-0.1-0.2,0-0.4,0.1-0.5c0.2-0.2,0.4-0.2,0.6-0.2c0.2,0.1,0.3,0.2,0.3,0.4L123.2,84.2 M121.3,85.3c-0.3,0-0.4-0.2-0.5-0.4c-0.1-0.3,0-0.5,0.2-0.6c0.2-0.1,0.5,0,0.6,0.2c0,0,0,0.2,0,0.2 C121.7,84.9,121.7,85.1,121.3,85.3 M119.6,83.3c0,0,0-0.2,0-0.3c0-0.3,0-0.8,0.5-0.9c0.3,0,0.6,0.1,0.7,0.3 c0.1,0.1,0.1,0.2,0.1,0.4c0,0,0,0.1,0,0.1c0,0.1,0,0.1,0,0.2c0,0.3-0.2,0.5-0.5,0.6C120,83.8,119.7,83.5,119.6,83.3 M119.7,85.8 L119.7,85.8C119.7,85.8,119.7,85.8,119.7,85.8c0,0.1,0,0.1-0.1,0.1c0,0-0.1,0-0.1,0c0,0,0,0,0,0s0,0,0,0c0,0,0,0,0,0c0,0,0,0,0,0 c0,0,0,0,0,0c0,0-0.1,0.1-0.1,0.1c0,0,0-0.1,0-0.2c0,0,0,0,0,0.1c0,0,0-0.1,0-0.1v-0.1c0,0,0,0,0.1,0c0,0,0,0,0,0 C119.7,85.6,119.7,85.7,119.7,85.8C119.7,85.8,119.7,85.8,119.7,85.8c0,0,0-0.1,0-0.1C119.7,85.7,119.7,85.8,119.7,85.8L119.7,85.8 z M119.2,85.8C119.2,85.8,119.2,85.7,119.2,85.8l0-0.1v0C119.2,85.7,119.2,85.7,119.2,85.8c0,0.1,0.1,0.3,0.1,0.3 C119.3,86,119.2,85.9,119.2,85.8 M119,84.5c-0.1,0.1-0.2,0.1-0.3,0.1c-0.2,0.1-0.4,0-0.5-0.1c-0.1-0.1-0.2-0.2-0.2-0.3 c-0.1-0.4,0-0.7,0.4-0.8c0.3-0.2,0.6,0.1,0.7,0.3c0,0,0.1,0.1,0.1,0.2C119.2,84.1,119.1,84.4,119,84.5 M117.3,85.3 c0,0-0.2,0.2-0.2,0.2c-0.1,0.1-0.3,0.1-0.4,0c-0.1-0.1-0.2-0.3-0.2-0.4c0-0.2,0-0.3,0.2-0.5c0.2-0.1,0.4-0.1,0.5-0.1 c0.1,0.1,0.2,0.2,0.2,0.4c0,0,0-0.1,0-0.1c0,0,0,0.1,0,0.1c0,0,0,0,0,0c0,0,0,0,0,0s0,0,0,0c0,0,0,0,0,0c0,0,0,0.1,0,0.1 C117.4,85.2,117.3,85.3,117.3,85.3 M115.2,86.2c-0.1,0.2-0.2-0.1-0.2-0.2C115.2,86,115.3,86,115.2,86.2 M114.8,86 c0,0.1,0.2,0.4,0.3,0.4C114.9,86.4,114.8,86,114.8,86 M114.7,84.7c-0.1,0.1-0.3,0.2-0.4,0.2c-0.2,0.1-0.3,0-0.5-0.1 c-0.2-0.1-0.3-0.3-0.3-0.5c-0.1-0.2,0-0.4,0.2-0.6c0.2-0.2,0.5-0.2,0.8-0.1c0.2,0.1,0.3,0.3,0.3,0.5c0,0,0,0,0,0c0,0,0,0.1,0,0.1 C114.8,84.5,114.8,84.6,114.7,84.7 M112.9,85.7c-0.1,0.1-0.3,0.2-0.4,0.2c-0.1,0-0.2-0.1-0.2-0.1c0,0-0.3-0.3-0.3-0.3 c-0.1-0.2,0-0.4,0.1-0.5c0.2-0.1,0.4-0.2,0.6-0.1c0.2,0.1,0.3,0.2,0.3,0.4c0,0,0-0.1,0-0.1c0,0,0,0.1,0,0.1c0,0,0,0.1,0,0.1 C113,85.5,113,85.6,112.9,85.7 M111.3,86.4l-0.2,0.4c0,0.1-0.1,0.1-0.2,0.1c-0.4,0-0.5-0.2-0.5-0.3c0-0.1,0-0.4,0.2-0.4l0.3-0.1 l0.3,0.2C111.3,86.3,111.3,86.3,111.3,86.4 M110.2,85.1c0,0.1-0.3,0.1-0.3,0.1c-0.2,0-0.5,0-0.7-0.3c0,0,0-0.1,0-0.2l0-0.2 c0-0.2,0-0.5,0.4-0.6c0.2-0.1,0.4,0,0.6,0.1c0.1,0.1,0.2,0.2,0.2,0.4c0,0,0,0,0,0c0,0,0,0,0,0.1c0,0,0,0,0,0 C110.5,84.8,110.4,84.9,110.2,85.1L110.2,85.1z M109.3,87.8c-0.1,0-0.2,0.1-0.3,0.1c-0.1,0-0.3-0.2-0.3-0.3c0-0.1,0.1-0.4,0.2-0.4 c0.2-0.1,0.3,0,0.4,0c0.2,0.1,0.2,0.3,0.2,0.4C109.4,87.7,109.3,87.8,109.3,87.8 M108.6,85.9c-0.1,0.1-0.3,0.3-0.4,0.3 c-0.3,0-0.5-0.3-0.5-0.4c0-0.2,0-0.3,0.2-0.4c0.2-0.1,0.4-0.2,0.6-0.1c0.2,0.1,0.2,0.2,0.2,0.4C108.6,85.7,108.6,85.9,108.6,85.9 M97.9,99.4L97.9,99.4c0,0-0.2,0.1-0.2,0.1c-0.1,0-0.3,0-0.3-0.1c-0.1-0.2-0.1-0.4,0-0.5c0-0.1,0.1-0.2,0.1-0.2 c0.1,0,0.3-0.1,0.5,0.2c0,0,0,0,0,0C98,99,98,99.2,97.9,99.4 M95.2,98.8c0,0-0.3,0.1-0.4,0.1c-0.1,0-0.3,0.1-0.5-0.3 c-0.1-0.4,0.1-0.7,0.5-0.9c0.2,0,0.5,0.2,0.5,0.5L95.2,98.8z M92.7,97.7C92.7,97.7,92.7,97.7,92.7,97.7c0,0.2,0,0.4-0.4,0.5 c-0.1,0-0.5,0-0.5-0.3c-0.1-0.2,0-0.4,0.1-0.6c0.2-0.1,0.4-0.2,0.6-0.1C92.6,97.3,92.7,97.5,92.7,97.7 C92.7,97.6,92.7,97.7,92.7,97.7C92.7,97.7,92.7,97.7,92.7,97.7 M89.7,97.3c0,0.1-0.2,0.1-0.2,0.1c-0.1,0-0.2-0.1-0.3-0.2 c-0.1-0.2,0-0.5,0.2-0.6c0.1,0,0.3,0,0.3,0.1c0.1,0.1,0.2,0.2,0.1,0.3L89.7,97.3z M86.3,94.7C86.3,94.7,86.2,94.8,86.3,94.7 C86.2,94.8,86.2,94.8,86.3,94.7C86.1,95,85.9,95,85.6,95c-0.3-0.1-0.3-0.5-0.2-0.8c0.1-0.2,0.2-0.3,0.4-0.2c0.2,0,0.4,0.2,0.5,0.3 c0,0.1,0,0.1,0,0.2C86.4,94.6,86.3,94.7,86.3,94.7C86.3,94.7,86.3,94.7,86.3,94.7 M78,88.1c-0.1,0.1-0.3,0.2-0.5,0.2 c0,0-0.5-0.2-0.5-0.3c-0.1-0.4,0.1-0.7,0.5-0.9c0.3,0,0.6,0.2,0.6,0.5v0c0,0,0,0.1,0,0.1C78.1,87.9,78.1,88,78,88.1 M106.7,87 c0,0.1-0.3,0.1-0.3,0.1c-0.2,0-0.3-0.1-0.4-0.2c0,0-0.1-0.1-0.1-0.2c0-0.2,0.1-0.3,0.2-0.4c0.1-0.1,0.3-0.1,0.5,0 c0,0,0.1,0.1,0.1,0.1C106.9,86.7,106.8,86.9,106.7,87 M105.6,85.5c-0.3,0.1-0.6,0-0.8-0.5c0-0.4,0.2-0.6,0.5-0.7l0.6,0.2l0.1,0.4 C106,85.2,105.8,85.4,105.6,85.5 M105.1,88c-0.1,0.2-0.3,0.2-0.4,0.2c-0.1,0-0.1,0-0.2-0.1c-0.1-0.2-0.2-0.3-0.1-0.5 c0.1-0.2,0.3-0.2,0.5-0.2c0.1,0,0.2,0.2,0.2,0.3C105,87.8,105.1,88,105.1,88 M104.2,85.9l-0.3,0.6c0,0.1-0.1,0.1-0.2,0.1 c-0.3,0-0.5-0.2-0.5-0.4c-0.1-0.4,0.2-0.6,0.4-0.7c0.1,0,0.2,0,0.3,0.1l0.3,0.3C104.3,85.9,104.3,85.8,104.2,85.9 M102.2,87.4 c-0.1,0-0.1,0.1-0.2,0.1c0,0-0.4-0.2-0.4-0.3c-0.1-0.2,0-0.4,0.1-0.5c0.2-0.1,0.4-0.1,0.6,0c0,0,0.1,0.2,0.1,0.2 C102.5,87.1,102.5,87.3,102.2,87.4 M101.1,85.9c-0.3,0-0.6-0.2-0.6-0.5c-0.1-0.2,0-0.5,0.2-0.6c0.2-0.2,0.5-0.2,0.7-0.1 c0.2,0.1,0.2,0.3,0.2,0.5c0,0,0,0,0,0.1C101.6,85.5,101.4,85.8,101.1,85.9 M100.6,95.4C100.6,95.4,100.6,95.4,100.6,95.4 c0,0-0.1,0.5-0.1,0.5s-0.4,0.3-0.5,0.3L99.4,96c0,0-0.2-0.4-0.2-0.4c0-0.2,0-0.4,0.1-0.6c0.1-0.2,0.3-0.2,0.5-0.2 C100.2,94.8,100.5,95,100.6,95.4L100.6,95.4C100.6,95.3,100.6,95.4,100.6,95.4 M98.9,86.5c-0.1-0.3,0.1-0.5,0.3-0.6 c0.2-0.1,0.4,0,0.5,0.3c0,0,0,0,0,0c0,0,0,0,0,0.1c0,0,0,0,0,0c0,0,0.1,0.1,0.1,0.2c0,0.1,0,0.2-0.2,0.3c0,0-0.2,0.1-0.2,0.1 C99.3,86.8,99.1,86.8,98.9,86.5 M98.5,85.1c-0.3,0.1-0.6,0-0.8-0.5c0-0.3,0-0.7,0.5-0.9c0.2,0,0.6,0,0.8,0.2 c0.1,0.1,0.1,0.2,0.1,0.3c0,0,0,0.1,0,0.1c0,0,0,0.1,0,0.1c0,0.1,0,0.3-0.1,0.4C98.8,85.1,98.6,85.1,98.5,85.1 M97.7,87.7 c-0.1,0-0.4,0-0.4-0.1c-0.1-0.2-0.1-0.4,0-0.4c0.1-0.1,0.3-0.1,0.4,0c0.1,0,0.3,0.2,0.3,0.3C98,87.6,97.9,87.7,97.7,87.7 M97.8,95.3c-0.1,0.1-0.3,0.2-0.7,0.1c-0.2,0-0.7-0.2-0.6-0.6c0-0.3,0.2-0.7,0.6-0.8c0.3-0.1,0.7,0.1,0.9,0.5c0,0,0,0,0,0 C98,94.8,98,95.1,97.8,95.3 M96.3,93.7l-0.6-0.2c0,0-0.2-0.4-0.2-0.4c0-0.5,0.3-0.8,0.6-0.8l0.5,0l0.4,0.4c0,0,0,0,0,0 c0,0.1,0,0.1,0,0.2C96.9,93.4,96.6,93.6,96.3,93.7 M94.7,91.4c0-0.2,0-0.4,0.2-0.6c0.2-0.1,0.4-0.1,0.6-0.1 c0.2,0.1,0.3,0.2,0.3,0.4v0c0,0.5-0.2,0.6-0.5,0.6C95,91.8,94.8,91.6,94.7,91.4 M94.6,89.7c0,0.1-0.1,0.1-0.3,0.1c0,0-0.2,0-0.3,0 c-0.2-0.1-0.2-0.5-0.1-0.6c0-0.1,0.3-0.1,0.4-0.1c0.1,0,0.3,0.2,0.3,0.3l0,0C94.6,89.5,94.6,89.7,94.6,89.7 M94.4,92.2l-0.3,0.7 c0,0-0.4,0.2-0.4,0.2c-0.3,0.1-0.5,0-0.7-0.2c-0.2-0.2-0.3-0.4-0.3-0.6c0-0.3,0.2-0.7,0.6-0.8C93.8,91.4,94.2,91.7,94.4,92.2 C94.4,92.2,94.4,92.2,94.4,92.2 M92.5,91.1L92.1,91c-0.1,0-0.2-0.2-0.2-0.3c0-0.5,0.2-0.8,0.5-0.9c0.2-0.1,0.4,0,0.5,0.1 c0.1,0.1,0.2,0.3,0.2,0.5c0,0,0,0,0-0.1c0,0,0,0,0,0.1v0v0v0c0,0,0,0.1,0,0.1c0,0.2-0.1,0.3-0.2,0.4C92.8,91.1,92.6,91.2,92.5,91.1 M91,89c-0.1-0.3,0-0.5,0.2-0.6c0.2-0.1,0.6-0.1,0.7,0.2c0,0,0,0.1,0,0.1c0,0.4-0.2,0.6-0.4,0.6C91.4,89.4,91.2,89.1,91,89 M90.7,87.5c-0.3,0-0.5-0.1-0.6-0.5c0-0.3,0.2-0.5,0.5-0.5c0.2,0,0.5,0.1,0.5,0.3c0,0,0,0,0,0.1C91.1,87,91,87.3,90.7,87.5 M89.1,85.6c-0.1-0.1-0.1-0.2-0.1-0.3c0-0.1,0-0.1,0-0.2c0-0.1,0-0.2,0-0.2s0.4-0.3,0.4-0.4c0.2-0.1,0.5,0,0.6,0.1 c0.1,0.1,0.2,0.3,0.2,0.5c0,0,0,0,0-0.1c0,0,0,0,0,0.1v0c0,0,0,0.1,0,0.1c0,0.2-0.1,0.4-0.4,0.6C89.6,85.8,89.2,85.8,89.1,85.6 M89,88.7l-0.5,0c0,0-0.4-0.4-0.4-0.5c-0.1-0.4,0.1-0.7,0.5-0.8c0.4-0.1,0.6,0.1,0.8,0.3c0,0,0.1,0.1,0.1,0.2 C89.5,88,89.5,88.5,89,88.7 M87.9,87c-0.4,0-0.7-0.4-0.7-0.7c-0.1-0.5,0.3-0.7,0.6-0.8c0.2,0,0.8,0,0.8,0.6v0c0,0,0,0,0,0v0 l-0.2,0.6L87.9,87z M86,84.6c0,0,0-0.3,0-0.3c0.1-0.2,0.1-0.6,0.5-0.7l0.8,0.1l0.3,0.5c0,0,0,0,0,0c0,0.3-0.1,0.6-0.3,0.8 c-0.2,0.1-0.4,0.2-0.5,0.1C86.4,85.3,86.1,84.9,86,84.6 M91.1,83.3c0.1,0,0.2,0,0.2,0c0.3,0.1,0.6,0.2,0.7,0.5v0c0,0,0,0,0,0 c0,0,0,0,0,0c0,0,0,0.6,0,0.6s-0.5,0.5-0.6,0.5c-0.5,0-0.9-0.3-0.8-0.7C90.5,83.8,90.7,83.4,91.1,83.3 M92.5,85.4 c0.2,0.1,0.3,0.2,0.3,0.4c0,0,0-0.1,0-0.1c0.1,0.3,0,0.5-0.2,0.7c0,0-0.1,0.1-0.2,0.1c-0.3,0-0.5-0.1-0.6-0.2 c-0.1-0.1-0.1-0.3,0-0.3c-0.1-0.2,0-0.4,0.1-0.5C92,85.3,92.3,85.3,92.5,85.4 M92.9,87.5c0.1-0.2,0.3-0.2,0.5-0.2 c0.1,0,0.2,0.2,0.2,0.3c0,0.1,0.1,0.3,0,0.3c-0.1,0.2-0.3,0.2-0.4,0.2c-0.1,0-0.1,0-0.2-0.1C92.8,87.9,92.8,87.7,92.9,87.5 M93.5,84.3c0.2-0.2,0.5-0.2,0.7-0.1c0.2,0.1,0.3,0.3,0.4,0.5c0,0,0,0,0,0c0,0,0,0,0,0c0,0,0,0,0,0c0,0.1,0,0.1,0,0.2 c0,0.3-0.1,0.4-0.3,0.5c0,0-0.2,0-0.3,0l-0.6-0.1c0,0-0.1-0.4-0.1-0.3C93.3,84.7,93.3,84.5,93.5,84.3 M95,86.3 c0.2,0,0.3,0.1,0.3,0.3c0,0.1,0,0.2,0,0.3C95.2,87,95,87,94.9,87c-0.1,0-0.1,0-0.2-0.1c-0.1-0.1-0.2-0.3-0.1-0.5 C94.6,86.4,94.9,86.3,95,86.3 M96.5,85.1c0.3-0.1,0.5,0,0.7,0.3c0,0,0,0,0,0c0.1,0.2,0,0.4-0.1,0.5c-0.1,0.1-0.2,0.2-0.4,0.2 c-0.1,0-0.2-0.1-0.2-0.1c0,0-0.3-0.3-0.3-0.3C96.1,85.4,96.2,85.2,96.5,85.1 M146.8,74.6c-0.4-0.1-1-0.5-0.5-1 c-0.1-0.6-0.8-0.8-1-0.3c-0.5,1,1.1,0.5,0.8,1.5c-0.1,0.4-0.6,0.6-0.9,0.6c-0.9-0.1-0.1-0.9-0.6-1.2c-0.3-0.3-0.8-0.3-1,0.1 c-0.6,0.9,0.8,0.7,0.6,1.5c0,0.2-0.2,0.6-0.6,0.5c-0.3-0.1-0.6-0.5-0.5-0.9c-0.2-0.3-0.5-0.4-0.9-0.4c-0.4,0.2-0.7,0.6-0.8,0.9 c-0.2,0.2-0.5,0.1-0.8,0c-1,0.1-0.9,1.8-2,1c-0.3,0.2-0.4,0.6-0.6,0.8c-0.4,0.4-0.9,0.1-1.4,0c-0.1,0.4-0.1,0.8-0.5,1 c-0.9,0.3-0.9-0.7-1.2-1.1c-0.8-0.7-0.9,0.6-1.4,0.9c-1.5-1-1.1,1.6-2.5,0.9c-0.8-0.1-0.6,1.2-1.4,1c-0.3-0.2-0.9-0.4-0.6-0.9 c-0.1-0.2-0.3-0.6-0.6-0.6c-1.3,0.6,0.6,1,0.4,1.9c-0.2,0.3-0.5,0.5-0.9,0.5c-0.5-0.2-0.6-0.7-0.5-1.1c-0.2-0.2-0.5-0.4-0.9-0.4 c-0.2,0.2-0.5,0.3-0.5,0.6c-0.2,0.6-0.7,0.3-1.1,0.2c-0.2,0-0.5,0.2-0.6,0.5c-0.1,0.4-0.6,0.6-0.9,0.6c-1.2,0.1,0-1-0.8-1.4 c-0.2-0.3-0.6-0.1-0.8,0.2c-0.6,1.1,1.3,0.5,0.8,1.6c-0.2,0.3-0.5,0.6-0.9,0.5c-0.4-0.1-0.6-0.6-0.5-1c-0.2-0.2-0.4-0.6-0.8-0.5 c-0.5,0.2-0.6,0.8-0.9,1.1c-1.2-1.1-1.2,1-2.2,0.8c-0.5,0-1-0.4-0.6-0.9c-0.1-0.3-0.4-0.6-0.7-0.6c-1.4,0.9,0.8,1,0.4,1.8 c-0.1,0.3-0.4,0.7-0.9,0.6c-0.5-0.1-0.5-0.7-0.4-1.1c-0.2-0.3-0.5-0.4-0.9-0.4c-0.4,0.1-0.6,0.6-0.7,0.9c-0.4,0.2-0.9-0.1-1.3,0 c-0.2,0.4-0.5,1-1,1c-0.5-0.2-0.5-0.7-0.5-1.1c-0.2-0.2-0.5-0.5-0.9-0.4c-0.4,0.2-0.5,0.6-0.7,1c-0.5,0.2-1,0-1.4-0.3 c0.2-0.4,0.3-0.9-0.1-1.1c-0.2-0.2-0.5-0.1-0.7,0.2c-0.6,1,1.1,0.6,0.8,1.5c-0.2,0.3-0.5,0.6-0.9,0.6c-0.4-0.2-0.5-0.7-0.4-1.1 c-0.9-1.5-1.3,0.7-2.3,0.5c-0.2-0.1-0.7-0.3-0.5-0.7c-0.1-0.4-0.3-0.8-0.7-0.8c-0.5,0.1-0.5,0.6-0.6,1c0.2,0.2,0.6,0.2,0.9,0.5 c0.2,0.3,0.1,0.6-0.2,0.9c-1.6,0.5,0-1.6-1.3-1.5c-1.2-0.7-0.7,1.3-1.9,0.9c-0.9-0.3,0-1.2-0.8-1.5c-1.2-0.6-0.7,1.4-1.9,0.9 c-1.2,0.2-0.1-1.1-0.9-1.5c-0.3-0.2-0.6,0-0.8,0.2c-0.6,1.2,1.2,0.5,0.8,1.6c-0.1,0.3-0.5,0.5-0.8,0.5c-0.8-0.1-0.4-1.1-0.6-1.4 c-1.2-1.1-0.9,1-2.1,0.8c-0.4-0.1-0.7-0.6-0.5-1.1c-0.8-1.5-1.3,0.6-2.2,0.4c-0.5-0.1-0.9-0.4-0.6-1c-0.1-0.3-0.4-0.6-0.8-0.6 c-1.6,1.1,1.1,0.9,0.5,1.9c-0.2,0.4-0.6,0.6-0.9,0.6c-0.9-0.2-0.1-1.1-0.6-1.5c-1.2-0.8-0.9,1.2-1.9,0.9c-0.9-0.6-0.9,0.7-1.3,1.1 c-0.3,0.1-0.5-0.1-0.9-0.1c-0.3,0.1-0.5,0.4-0.6,0.7c0.1,0.4,0.5,0.7,0.8,0.7c0.2,0,0.5-0.3,0.6-0.6c0-0.4,0.4-0.7,0.9-0.6 c0.3,0.2,0.5,0.6,0.5,1c-0.1,0.6-0.9,0.5-1.3,0.4c-0.2,0.2-0.5,0.5-0.4,0.9c0.2,0.3,0.4,0.6,0.8,0.6c0.5,0,0.5-0.7,0.8-1 c0.4-0.1,0.8,0,1,0.4c0.2,0.3,0.1,0.8-0.2,1c-0.3,0.1-0.5-0.1-0.9-0.1c-0.2,0.1-0.5,0.3-0.4,0.6c0.2,0.2,0.3,0.4,0.5,0.6 c0.6,0.5,0.6-0.5,0.9-0.8c0.4,0,0.8,0,1,0.4c0.2,0.2,0,0.6,0,1c0.2,0.5,0.8,0.4,1.2,0.6c0,0,0-0.1,0-0.1l0-0.2c0.1-0.4,0.2-1,0.8-1 c0.6,0,0.8,0.4,0.8,0.7c0,0,0,0,0,0c0,0,0,0,0,0.1c0,0.1,0,0.1,0,0.2c0,0.2,0,0.3-0.1,0.5c-0.1,0.1-0.3,0.2-0.4,0.2l-0.8-0.1 c-0.1,0-0.2-0.1-0.3-0.2c0,0.3-0.4,0.7,0,1c1.2,1.5,0.9-1,2.1-0.5c0.4,0.1,0.5,0.6,0.5,0.9c0,0.7-0.8,0.6-1.2,0.5 c0.5,1.2,1-0.2,1.9,0.4c0.3,0.2,0.5,0.6,0.3,0.9c0.3,0.4,0.7,0.5,1.1,0.7c0.1-0.1,0.2-0.2,0.2-0.3c0.1-0.3,0.5-0.6,0.9-0.6 c0.3,0.2,0.5,0.5,0.5,0.9c-0.6,1.1,1.1,0.7,1.5,1.4c0.1,1.4,1-0.1,1.6,0.2c0.5-0.1,0.7,0.6,0.9,0.9c0.4,1.2,1.1-0.2,1.6-0.1 c0.8-0.1,0.8,0.8,1.2,1.2c0.6,0.2,0.9-0.6,1.6-0.5c0.6,0.1,0.7,0.7,1,1.1c0.5,0,0.8-0.1,1-0.4c0.5-0.1,1.1,0,1.5,0.3 c0.1,0.4-0.2,0.7-0.3,1c-0.5,0.2-0.9-0.1-1.4-0.1c-0.2,0.3-0.5,1-1,0.7c-0.5-0.2-0.1-0.9-0.8-1.1c-0.9-0.7-1,1-2,0.6 c-0.7-0.1-0.1-0.9-0.7-1.1c-0.9-0.7-1,0.9-2,0.5c-0.8,0-0.2-1-0.8-1.2c-0.9-0.7-0.9,0.9-1.7,0.5c-0.7,0-0.5-0.8-0.8-1.1 c-0.9-0.9-1,0.6-1.9,0.4c-0.3-0.1-0.7-0.5-0.5-0.8c-0.5-1.5-1.5,0-2.2,0c-0.7-0.2-0.3-1-0.8-1.4c-0.8-0.9-1.2,0.5-1.8,0.5 c-0.3,0-0.5-0.4-0.5-0.8c0.1-0.5,0.5-0.3,0.9-0.2c0.1-0.2,0.3-0.1,0.2-0.3c-0.5-1-1,0.4-1.8-0.1c-0.9-0.1-0.4-1.1-1-1.4 c-0.4-0.3-0.9,0.1-1,0.4c-1.1,0.5-0.8-1-1.4-1.4c-1.1,0.1-0.5-1.2-1.3-1.6c-0.6-0.5-0.9,0.8-1.5,0.5c-0.7-0.2-0.1-1-0.5-1.3 c-1,0.1-1-1.1-1.5-1.7c-1,0.1-0.8-1.1-1.5-1.5c-0.2-0.3-0.5,0.1-0.6,0.2c-0.2,0.2-0.6,0.2-0.9-0.1c-0.2-0.5,0-1.1,0.5-1.2 c-0.4-0.7-1.3,0.3-1.6-0.6c0.2-1-0.4-1.2-1.1-1.5c-0.1-1.2-1.4-1.4-1.8-2.4c-0.4-0.8-0.8,0.3-1.3,0.1c-0.3-0.2-0.7-0.6-0.5-1.1 c-0.1-0.2-0.3-0.1-0.5-0.2c-0.2,0.1-0.3,0.3-0.3,0.6c0.8,2.3,2.2,4.4,3.5,6.5c1.2,1.7,2.5,3,3.8,4.5c0.5,0.7,1.3,1,1.7,1.7 c5.8,5.5,12.9,8.7,20.4,10.4c1.2,0,2.2,0.8,3.3,0.4c1.2,0.8,2.9,0.2,4.1,0.7c0.6-0.2,1.2-0.2,1.9,0c1-0.4,2.3,0.1,3.3-0.4 c2.1-0.2,4.2-0.4,6.2-1c1.6-0.3,3.2-0.8,4.8-1.2c0.9-0.6,2-0.6,2.7-1.3c3.8-1.6,7.4-3.9,10.5-6.7c0.9-0.9,2.1-1.8,2.8-3 c2.9-2.8,5-6.3,7-9.8c0.5-1.8,1.6-3.5,1.9-5.4C147.4,75,147.8,74.1,146.8,74.6" clip-path="url(#b)"/>
  <path d="M97.5 99.1C97.4 99.1 97.4 99.1 97.5 99.1L97.5 99.1C97.5 99.1 97.5 99 97.5 99.1 97.5 99 97.4 99 97.5 99.1 97.4 99.1 97.4 99 97.5 99.1M84.8 83.1c.2-.1.5-.3.5-.6-.1-.3-.5-.6-.8-.7-.3.1-.5.5-.5.8C84.1 82.9 84.4 83.2 84.8 83.1M83.6 81c.1 0 .2-.2.2-.4-.1-.3-.5-.1-.5.2C83.3 80.9 83.5 81 83.6 81M90.6 81.4c.1 0 .2-.2.2-.4-.1-.1-.1-.2-.2-.2C90.3 81 90.3 81.4 90.6 81.4M86.4 81.9c.1-.2.2-.2.2-.5 0-.2-.2-.4-.5-.5-.2.2-.4.4-.4.6C86 81.7 86.1 82 86.4 81.9M82 82.1c.1-.1.3-.2.3-.4-.2-.5-.8-.5-.8.1C81.6 81.9 81.7 82.1 82 82.1M93.4 82.4c.2-.2.6-.3.5-.6-.1-.3-.7-.7-.9-.2C92.7 81.9 93 82.4 93.4 82.4M88.9 90.3C89 90.3 89 90.3 88.9 90.3 89 90.3 89 90.3 88.9 90.3 89 90.3 89 90.3 88.9 90.3M80.3 83c.1-.1.2-.2.2-.4-.2-.2-.7-.4-.6.1C80 82.9 80.1 83 80.3 83M83 84c.3-.2.6-.4.6-.8-.2-.3-.4-.4-.7-.4-.2.1-.5.3-.5.6C82.5 83.7 82.7 84 83 84M81.6 84.7c.1-.1.1-.2.1-.3-.1-.2-.2-.4-.5-.3C81 84.2 81.2 84.6 81.6 84.7M130.3 78.7c.2 0 .2-.2.2-.4-.2-.2-.2-.3-.4-.3-.2.2-.5.2-.4.5C129.8 78.6 130 78.9 130.3 78.7M131.8 77.6c.1-.1.2-.2.2-.3-.1-.2-.2-.2-.3-.2C131.3 77.2 131.6 77.6 131.8 77.6M124.1 80.1c.2-.1.4-.3.3-.6-.2-.4-.8-.3-.9.2C123.6 79.9 123.9 80.1 124.1 80.1M119.9 80c-.1 0-.2-.2-.2-.2-.2.1-.3.2-.1.4C119.7 80.3 119.7 80.1 119.9 80M137.9 76.3c.2-.2.3-.2.3-.4-.2-.5-.7-.3-.8.1C137.6 76.2 137.7 76.5 137.9 76.3M97.7 81.9c.1-.1.4-.2.3-.4-.1-.2-.2-.2-.4-.2-.2.1-.3.2-.2.4C97.5 81.8 97.6 81.9 97.7 81.9M139.7 74.9c-.1-.3-.5-.2-.4.2.1.1.2.2.2.2C139.7 75.1 139.8 75.1 139.7 74.9M146.9 72.8c.1.2.3.3.5.3.2 0 .3-.3.3-.5C147.5 72 146.8 72.3 146.9 72.8M109.5 81.7c-.2-.1-.2-.3-.4-.3-.2.1-.4.4-.2.6C109.2 82.3 109.4 81.9 109.5 81.7M104.8 82.4c.2 0 .4-.2.4-.5-.2-.4-.8-.3-.9.1C104.4 82.1 104.6 82.4 104.8 82.4M112 83c.2-.2.4-.4.4-.8-.2-.2-.4-.5-.7-.4-.2.2-.5.4-.4.7C111.4 82.8 111.7 83.1 112 83M100.4 82.8c.3-.1.5-.3.5-.6 0-.2-.3-.3-.5-.4-.2.1-.5.3-.4.6C100 82.6 100.2 82.8 100.4 82.8M118 81.5c.2-.1.5-.2.4-.5-.2-.2-.3-.5-.5-.3-.2.1-.4.2-.3.4C117.6 81.3 117.8 81.5 118 81.5M113.6 81.7c.2-.1.3-.2.3-.4-.2-.4-.6-.2-.6.2C113.3 81.5 113.4 81.7 113.6 81.7M117.3 85L117.3 85 117.3 85M136.7 77c-.2-.2-.3-.5-.6-.5-.2.2-.5.4-.4.8.2.3.5.4.9.4C136.4 77.4 136.8 77.3 136.7 77M97.5 99.1L97.5 99.1 97.5 99.1 97.5 99.1" clip-path="url(#b)"/>
  <path d="M142,77.5c-0.1,0-0.2,0-0.3,0c-0.1,0-0.5-0.2-0.3-0.4c-0.1-0.3,0-0.5,0-0.6 c0.1-0.2,0.4-0.2,0.6-0.1c0.2,0.1,0.3,0.3,0.3,0.5C142.4,77.1,142.2,77.3,142,77.5 M140.4,78.4c0,0-0.2,0-0.2,0 c-0.1,0-0.3,0-0.4-0.2c-0.1-0.2-0.1-0.4,0.1-0.6c0.1-0.1,0.3-0.2,0.5-0.2c0.1,0,0.3,0.1,0.3,0.4l0,0.1 C140.6,78,140.6,78.3,140.4,78.4 M138.9,79.1c-0.1,0.1-0.1,0.3-0.3,0.3c-0.1,0-0.3,0-0.4-0.2c0-0.1-0.1-0.3-0.1-0.4 c0-0.1,0.1-0.3,0.4-0.4c0.2,0,0.4,0,0.5,0.3C138.9,79,138.9,79.1,138.9,79.1 M136.5,80.3c-0.1-0.1-0.1-0.4,0.1-0.5c0,0,0,0.1,0,0.1 c0,0.1,0,0.2,0.1,0.3c0,0,0.1,0,0.1,0.1c0-0.1-0.1-0.2-0.1-0.2c0,0,0,0,0,0.1c0,0,0,0,0,0c0-0.1,0-0.1,0-0.1c0.1,0,0.1,0,0.1,0 c0,0,0,0,0,0.1c0,0,0,0,0,0.1c0,0,0,0,0,0c0,0,0,0,0,0.1c-0.1,0-0.1,0-0.1,0c0,0,0,0,0,0c0,0,0,0,0,0c0,0,0,0,0,0c0,0,0,0,0,0 c0,0,0,0,0,0c0,0,0,0.1,0,0.1c0.1,0.1,0.2,0.2,0.3,0.2C136.7,80.5,136.6,80.4,136.5,80.3 M134.6,79.6c-0.1,0.1-0.2,0.2-0.3,0.2 c-0.3,0.1-0.6,0-0.8-0.4c0,0,0-0.2,0-0.2c0-0.2,0-0.5,0.4-0.7c0.3,0,0.5,0.1,0.7,0.3c0.1,0.1,0.1,0.2,0.1,0.3c0,0,0,0.1,0,0.1 c0,0,0,0.1,0,0.1C134.7,79.4,134.6,79.5,134.6,79.6 M132.6,80.8c-0.2,0.1-0.4,0.1-0.5,0c-0.1-0.1-0.2-0.2-0.2-0.3 c-0.1-0.3,0.1-0.5,0.1-0.5c0.2-0.1,0.4-0.1,0.6,0c0.2,0.1,0.2,0.3,0.2,0.5c0,0,0,0,0-0.1C132.8,80.7,132.7,80.8,132.6,80.8 M130.9,81.8c-0.2,0.1-0.3,0.1-0.4,0c-0.1-0.1-0.2-0.2-0.2-0.4c-0.1-0.2,0-0.4,0.2-0.5c0.2-0.1,0.5,0,0.6,0.2c0,0,0,0.2,0,0.2 C131.1,81.4,131.2,81.7,130.9,81.8 M129.5,82.5c0,0.1-0.1,0.2-0.1,0.2l-0.4,0.2c-0.1,0-0.1,0-0.2-0.1c-0.1-0.1-0.2-0.3-0.2-0.5 c0-0.1,0.1-0.2,0.3-0.3c0.2,0,0.4,0,0.5,0.3C129.5,82.3,129.5,82.5,129.5,82.5 M127.7,83.7C127.7,83.7,127.7,83.7,127.7,83.7 l-0.3,0.2c-0.1,0-0.2,0-0.3,0c-0.3-0.3-0.1-0.5-0.1-0.6c0.1-0.2,0.4-0.2,0.6-0.1C127.7,83.2,127.8,83.4,127.7,83.7 M126.3,82.3 c-0.3,0-0.5-0.2-0.7-0.5c-0.1-0.5,0.1-0.9,0.5-1c0.3-0.1,0.5,0.1,0.6,0.2c0,0,0.2,0.2,0.2,0.2c0,0.2,0.1,0.6-0.1,0.9 C126.7,82.2,126.6,82.3,126.3,82.3 M124.9,83.2c-0.2,0.1-0.4,0.1-0.8-0.3c-0.1-0.2-0.1-0.4,0.1-0.6c0.2-0.2,0.5-0.2,0.7-0.1 c0.2,0.1,0.3,0.2,0.3,0.4c0,0,0-0.1,0-0.1c0,0,0,0.1,0,0.1c0,0,0,0,0,0C125.2,82.9,125,83.1,124.9,83.2 M123.2,84.2 c0,0.1-0.1,0.1-0.2,0.1c-0.2,0-0.5,0-0.6-0.3c-0.1-0.2,0-0.4,0.1-0.5c0.2-0.2,0.4-0.2,0.6-0.2c0.2,0.1,0.3,0.2,0.3,0.4L123.2,84.2 M121.3,85.3c-0.3,0-0.4-0.2-0.5-0.4c-0.1-0.3,0-0.5,0.2-0.6c0.2-0.1,0.5,0,0.6,0.2c0,0,0,0.2,0,0.2 C121.7,84.9,121.7,85.1,121.3,85.3 M119.6,83.3c0,0,0-0.2,0-0.3c0-0.3,0-0.8,0.5-0.9c0.3,0,0.6,0.1,0.7,0.3 c0.1,0.1,0.1,0.2,0.1,0.4c0,0,0,0.1,0,0.1c0,0.1,0,0.1,0,0.2c0,0.3-0.2,0.5-0.5,0.6C120,83.8,119.7,83.5,119.6,83.3 M119.7,85.8 L119.7,85.8C119.7,85.8,119.7,85.8,119.7,85.8c0,0.1,0,0.1-0.1,0.1c0,0-0.1,0-0.1,0c0,0,0,0,0,0s0,0,0,0c0,0,0,0,0,0c0,0,0,0,0,0 c0,0,0,0,0,0c0,0-0.1,0.1-0.1,0.1c0,0,0-0.1,0-0.2c0,0,0,0,0,0.1c0,0,0-0.1,0-0.1v-0.1c0,0,0,0,0.1,0c0,0,0,0,0,0 C119.7,85.6,119.7,85.7,119.7,85.8C119.7,85.8,119.7,85.8,119.7,85.8c0,0,0-0.1,0-0.1C119.7,85.7,119.7,85.8,119.7,85.8L119.7,85.8 z M119.2,85.8C119.2,85.8,119.2,85.7,119.2,85.8l0-0.1v0C119.2,85.7,119.2,85.7,119.2,85.8c0,0.1,0.1,0.3,0.1,0.3 C119.3,86,119.2,85.9,119.2,85.8 M119,84.5c-0.1,0.1-0.2,0.1-0.3,0.1c-0.2,0.1-0.4,0-0.5-0.1c-0.1-0.1-0.2-0.2-0.2-0.3 c-0.1-0.4,0-0.7,0.4-0.8c0.3-0.2,0.6,0.1,0.7,0.3c0,0,0.1,0.1,0.1,0.2C119.2,84.1,119.1,84.4,119,84.5 M117.3,85.3 c0,0-0.2,0.2-0.2,0.2c-0.1,0.1-0.3,0.1-0.4,0c-0.1-0.1-0.2-0.3-0.2-0.4c0-0.2,0-0.3,0.2-0.5c0.2-0.1,0.4-0.1,0.5-0.1 c0.1,0.1,0.2,0.2,0.2,0.4c0,0,0-0.1,0-0.1c0,0,0,0.1,0,0.1c0,0,0,0,0,0c0,0,0,0,0,0s0,0,0,0c0,0,0,0,0,0c0,0,0,0.1,0,0.1 C117.4,85.2,117.3,85.3,117.3,85.3 M115.2,86.2c-0.1,0.2-0.2-0.1-0.2-0.2C115.2,86,115.3,86,115.2,86.2 M114.8,86 c0,0.1,0.2,0.4,0.3,0.4C114.9,86.4,114.8,86,114.8,86 M114.7,84.7c-0.1,0.1-0.3,0.2-0.4,0.2c-0.2,0.1-0.3,0-0.5-0.1 c-0.2-0.1-0.3-0.3-0.3-0.5c-0.1-0.2,0-0.4,0.2-0.6c0.2-0.2,0.5-0.2,0.8-0.1c0.2,0.1,0.3,0.3,0.3,0.5c0,0,0,0,0,0c0,0,0,0.1,0,0.1 C114.8,84.5,114.8,84.6,114.7,84.7 M112.9,85.7c-0.1,0.1-0.3,0.2-0.4,0.2c-0.1,0-0.2-0.1-0.2-0.1c0,0-0.3-0.3-0.3-0.3 c-0.1-0.2,0-0.4,0.1-0.5c0.2-0.1,0.4-0.2,0.6-0.1c0.2,0.1,0.3,0.2,0.3,0.4c0,0,0-0.1,0-0.1c0,0,0,0.1,0,0.1c0,0,0,0.1,0,0.1 C113,85.5,113,85.6,112.9,85.7 M111.3,86.4l-0.2,0.4c0,0.1-0.1,0.1-0.2,0.1c-0.4,0-0.5-0.2-0.5-0.3c0-0.1,0-0.4,0.2-0.4l0.3-0.1 l0.3,0.2C111.3,86.3,111.3,86.3,111.3,86.4 M110.2,85.1c0,0.1-0.3,0.1-0.3,0.1c-0.2,0-0.5,0-0.7-0.3c0,0,0-0.1,0-0.2l0-0.2 c0-0.2,0-0.5,0.4-0.6c0.2-0.1,0.4,0,0.6,0.1c0.1,0.1,0.2,0.2,0.2,0.4c0,0,0,0,0,0c0,0,0,0,0,0.1c0,0,0,0,0,0 C110.5,84.8,110.4,84.9,110.2,85.1L110.2,85.1z M109.3,87.8c-0.1,0-0.2,0.1-0.3,0.1c-0.1,0-0.3-0.2-0.3-0.3c0-0.1,0.1-0.4,0.2-0.4 c0.2-0.1,0.3,0,0.4,0c0.2,0.1,0.2,0.3,0.2,0.4C109.4,87.7,109.3,87.8,109.3,87.8 M108.6,85.9c-0.1,0.1-0.3,0.3-0.4,0.3 c-0.3,0-0.5-0.3-0.5-0.4c0-0.2,0-0.3,0.2-0.4c0.2-0.1,0.4-0.2,0.6-0.1c0.2,0.1,0.2,0.2,0.2,0.4C108.6,85.7,108.6,85.9,108.6,85.9 M97.9,99.4L97.9,99.4c0,0-0.2,0.1-0.2,0.1c-0.1,0-0.3,0-0.3-0.1c-0.1-0.2-0.1-0.4,0-0.5c0-0.1,0.1-0.2,0.1-0.2 c0.1,0,0.3-0.1,0.5,0.2c0,0,0,0,0,0C98,99,98,99.2,97.9,99.4 M95.2,98.8c0,0-0.3,0.1-0.4,0.1c-0.1,0-0.3,0.1-0.5-0.3 c-0.1-0.4,0.1-0.7,0.5-0.9c0.2,0,0.5,0.2,0.5,0.5L95.2,98.8z M92.7,97.7C92.7,97.7,92.7,97.7,92.7,97.7c0,0.2,0,0.4-0.4,0.5 c-0.1,0-0.5,0-0.5-0.3c-0.1-0.2,0-0.4,0.1-0.6c0.2-0.1,0.4-0.2,0.6-0.1C92.6,97.3,92.7,97.5,92.7,97.7 C92.7,97.6,92.7,97.7,92.7,97.7C92.7,97.7,92.7,97.7,92.7,97.7 M89.7,97.3c0,0.1-0.2,0.1-0.2,0.1c-0.1,0-0.2-0.1-0.3-0.2 c-0.1-0.2,0-0.5,0.2-0.6c0.1,0,0.3,0,0.3,0.1c0.1,0.1,0.2,0.2,0.1,0.3L89.7,97.3z M86.3,94.7C86.3,94.7,86.2,94.8,86.3,94.7 C86.2,94.8,86.2,94.8,86.3,94.7C86.1,95,85.9,95,85.6,95c-0.3-0.1-0.3-0.5-0.2-0.8c0.1-0.2,0.2-0.3,0.4-0.2c0.2,0,0.4,0.2,0.5,0.3 c0,0.1,0,0.1,0,0.2C86.4,94.6,86.3,94.7,86.3,94.7C86.3,94.7,86.3,94.7,86.3,94.7 M78,88.1c-0.1,0.1-0.3,0.2-0.5,0.2 c0,0-0.5-0.2-0.5-0.3c-0.1-0.4,0.1-0.7,0.5-0.9c0.3,0,0.6,0.2,0.6,0.5v0c0,0,0,0.1,0,0.1C78.1,87.9,78.1,88,78,88.1 M106.7,87 c0,0.1-0.3,0.1-0.3,0.1c-0.2,0-0.3-0.1-0.4-0.2c0,0-0.1-0.1-0.1-0.2c0-0.2,0.1-0.3,0.2-0.4c0.1-0.1,0.3-0.1,0.5,0 c0,0,0.1,0.1,0.1,0.1C106.9,86.7,106.8,86.9,106.7,87 M105.6,85.5c-0.3,0.1-0.6,0-0.8-0.5c0-0.4,0.2-0.6,0.5-0.7l0.6,0.2l0.1,0.4 C106,85.2,105.8,85.4,105.6,85.5 M105.1,88c-0.1,0.2-0.3,0.2-0.4,0.2c-0.1,0-0.1,0-0.2-0.1c-0.1-0.2-0.2-0.3-0.1-0.5 c0.1-0.2,0.3-0.2,0.5-0.2c0.1,0,0.2,0.2,0.2,0.3C105,87.8,105.1,88,105.1,88 M104.2,85.9l-0.3,0.6c0,0.1-0.1,0.1-0.2,0.1 c-0.3,0-0.5-0.2-0.5-0.4c-0.1-0.4,0.2-0.6,0.4-0.7c0.1,0,0.2,0,0.3,0.1l0.3,0.3C104.3,85.9,104.3,85.8,104.2,85.9 M102.2,87.4 c-0.1,0-0.1,0.1-0.2,0.1c0,0-0.4-0.2-0.4-0.3c-0.1-0.2,0-0.4,0.1-0.5c0.2-0.1,0.4-0.1,0.6,0c0,0,0.1,0.2,0.1,0.2 C102.5,87.1,102.5,87.3,102.2,87.4 M101.1,85.9c-0.3,0-0.6-0.2-0.6-0.5c-0.1-0.2,0-0.5,0.2-0.6c0.2-0.2,0.5-0.2,0.7-0.1 c0.2,0.1,0.2,0.3,0.2,0.5c0,0,0,0,0,0.1C101.6,85.5,101.4,85.8,101.1,85.9 M100.6,95.4C100.6,95.4,100.6,95.4,100.6,95.4 c0,0-0.1,0.5-0.1,0.5s-0.4,0.3-0.5,0.3L99.4,96c0,0-0.2-0.4-0.2-0.4c0-0.2,0-0.4,0.1-0.6c0.1-0.2,0.3-0.2,0.5-0.2 C100.2,94.8,100.5,95,100.6,95.4L100.6,95.4C100.6,95.3,100.6,95.4,100.6,95.4 M98.9,86.5c-0.1-0.3,0.1-0.5,0.3-0.6 c0.2-0.1,0.4,0,0.5,0.3c0,0,0,0,0,0c0,0,0,0,0,0.1c0,0,0,0,0,0c0,0,0.1,0.1,0.1,0.2c0,0.1,0,0.2-0.2,0.3c0,0-0.2,0.1-0.2,0.1 C99.3,86.8,99.1,86.8,98.9,86.5 M98.5,85.1c-0.3,0.1-0.6,0-0.8-0.5c0-0.3,0-0.7,0.5-0.9c0.2,0,0.6,0,0.8,0.2 c0.1,0.1,0.1,0.2,0.1,0.3c0,0,0,0.1,0,0.1c0,0,0,0.1,0,0.1c0,0.1,0,0.3-0.1,0.4C98.8,85.1,98.6,85.1,98.5,85.1 M97.7,87.7 c-0.1,0-0.4,0-0.4-0.1c-0.1-0.2-0.1-0.4,0-0.4c0.1-0.1,0.3-0.1,0.4,0c0.1,0,0.3,0.2,0.3,0.3C98,87.6,97.9,87.7,97.7,87.7 M97.8,95.3c-0.1,0.1-0.3,0.2-0.7,0.1c-0.2,0-0.7-0.2-0.6-0.6c0-0.3,0.2-0.7,0.6-0.8c0.3-0.1,0.7,0.1,0.9,0.5c0,0,0,0,0,0 C98,94.8,98,95.1,97.8,95.3 M96.3,93.7l-0.6-0.2c0,0-0.2-0.4-0.2-0.4c0-0.5,0.3-0.8,0.6-0.8l0.5,0l0.4,0.4c0,0,0,0,0,0 c0,0.1,0,0.1,0,0.2C96.9,93.4,96.6,93.6,96.3,93.7 M94.7,91.4c0-0.2,0-0.4,0.2-0.6c0.2-0.1,0.4-0.1,0.6-0.1 c0.2,0.1,0.3,0.2,0.3,0.4v0c0,0.5-0.2,0.6-0.5,0.6C95,91.8,94.8,91.6,94.7,91.4 M94.6,89.7c0,0.1-0.1,0.1-0.3,0.1c0,0-0.2,0-0.3,0 c-0.2-0.1-0.2-0.5-0.1-0.6c0-0.1,0.3-0.1,0.4-0.1c0.1,0,0.3,0.2,0.3,0.3l0,0C94.6,89.5,94.6,89.7,94.6,89.7 M94.4,92.2l-0.3,0.7 c0,0-0.4,0.2-0.4,0.2c-0.3,0.1-0.5,0-0.7-0.2c-0.2-0.2-0.3-0.4-0.3-0.6c0-0.3,0.2-0.7,0.6-0.8C93.8,91.4,94.2,91.7,94.4,92.2 C94.4,92.2,94.4,92.2,94.4,92.2 M92.5,91.1L92.1,91c-0.1,0-0.2-0.2-0.2-0.3c0-0.5,0.2-0.8,0.5-0.9c0.2-0.1,0.4,0,0.5,0.1 c0.1,0.1,0.2,0.3,0.2,0.5c0,0,0,0,0-0.1c0,0,0,0,0,0.1v0v0v0c0,0,0,0.1,0,0.1c0,0.2-0.1,0.3-0.2,0.4C92.8,91.1,92.6,91.2,92.5,91.1 M91,89c-0.1-0.3,0-0.5,0.2-0.6c0.2-0.1,0.6-0.1,0.7,0.2c0,0,0,0.1,0,0.1c0,0.4-0.2,0.6-0.4,0.6C91.4,89.4,91.2,89.1,91,89 M90.7,87.5c-0.3,0-0.5-0.1-0.6-0.5c0-0.3,0.2-0.5,0.5-0.5c0.2,0,0.5,0.1,0.5,0.3c0,0,0,0,0,0.1C91.1,87,91,87.3,90.7,87.5 M89.1,85.6c-0.1-0.1-0.1-0.2-0.1-0.3c0-0.1,0-0.1,0-0.2c0-0.1,0-0.2,0-0.2s0.4-0.3,0.4-0.4c0.2-0.1,0.5,0,0.6,0.1 c0.1,0.1,0.2,0.3,0.2,0.5c0,0,0,0,0-0.1c0,0,0,0,0,0.1v0c0,0,0,0.1,0,0.1c0,0.2-0.1,0.4-0.4,0.6C89.6,85.8,89.2,85.8,89.1,85.6 M89,88.7l-0.5,0c0,0-0.4-0.4-0.4-0.5c-0.1-0.4,0.1-0.7,0.5-0.8c0.4-0.1,0.6,0.1,0.8,0.3c0,0,0.1,0.1,0.1,0.2 C89.5,88,89.5,88.5,89,88.7 M87.9,87c-0.4,0-0.7-0.4-0.7-0.7c-0.1-0.5,0.3-0.7,0.6-0.8c0.2,0,0.8,0,0.8,0.6v0c0,0,0,0,0,0v0 l-0.2,0.6L87.9,87z M86,84.6c0,0,0-0.3,0-0.3c0.1-0.2,0.1-0.6,0.5-0.7l0.8,0.1l0.3,0.5c0,0,0,0,0,0c0,0.3-0.1,0.6-0.3,0.8 c-0.2,0.1-0.4,0.2-0.5,0.1C86.4,85.3,86.1,84.9,86,84.6 M91.1,83.3c0.1,0,0.2,0,0.2,0c0.3,0.1,0.6,0.2,0.7,0.5v0c0,0,0,0,0,0 c0,0,0,0,0,0c0,0,0,0.6,0,0.6s-0.5,0.5-0.6,0.5c-0.5,0-0.9-0.3-0.8-0.7C90.5,83.8,90.7,83.4,91.1,83.3 M92.5,85.4 c0.2,0.1,0.3,0.2,0.3,0.4c0,0,0-0.1,0-0.1c0.1,0.3,0,0.5-0.2,0.7c0,0-0.1,0.1-0.2,0.1c-0.3,0-0.5-0.1-0.6-0.2 c-0.1-0.1-0.1-0.3,0-0.3c-0.1-0.2,0-0.4,0.1-0.5C92,85.3,92.3,85.3,92.5,85.4 M92.9,87.5c0.1-0.2,0.3-0.2,0.5-0.2 c0.1,0,0.2,0.2,0.2,0.3c0,0.1,0.1,0.3,0,0.3c-0.1,0.2-0.3,0.2-0.4,0.2c-0.1,0-0.1,0-0.2-0.1C92.8,87.9,92.8,87.7,92.9,87.5 M93.5,84.3c0.2-0.2,0.5-0.2,0.7-0.1c0.2,0.1,0.3,0.3,0.4,0.5c0,0,0,0,0,0c0,0,0,0,0,0c0,0,0,0,0,0c0,0.1,0,0.1,0,0.2 c0,0.3-0.1,0.4-0.3,0.5c0,0-0.2,0-0.3,0l-0.6-0.1c0,0-0.1-0.4-0.1-0.3C93.3,84.7,93.3,84.5,93.5,84.3 M95,86.3 c0.2,0,0.3,0.1,0.3,0.3c0,0.1,0,0.2,0,0.3C95.2,87,95,87,94.9,87c-0.1,0-0.1,0-0.2-0.1c-0.1-0.1-0.2-0.3-0.1-0.5 C94.6,86.4,94.9,86.3,95,86.3 M96.5,85.1c0.3-0.1,0.5,0,0.7,0.3c0,0,0,0,0,0c0.1,0.2,0,0.4-0.1,0.5c-0.1,0.1-0.2,0.2-0.4,0.2 c-0.1,0-0.2-0.1-0.2-0.1c0,0-0.3-0.3-0.3-0.3C96.1,85.4,96.2,85.2,96.5,85.1 M146.8,74.6c-0.4-0.1-1-0.5-0.5-1 c-0.1-0.6-0.8-0.8-1-0.3c-0.5,1,1.1,0.5,0.8,1.5c-0.1,0.4-0.6,0.6-0.9,0.6c-0.9-0.1-0.1-0.9-0.6-1.2c-0.3-0.3-0.8-0.3-1,0.1 c-0.6,0.9,0.8,0.7,0.6,1.5c0,0.2-0.2,0.6-0.6,0.5c-0.3-0.1-0.6-0.5-0.5-0.9c-0.2-0.3-0.5-0.4-0.9-0.4c-0.4,0.2-0.7,0.6-0.8,0.9 c-0.2,0.2-0.5,0.1-0.8,0c-1,0.1-0.9,1.8-2,1c-0.3,0.2-0.4,0.6-0.6,0.8c-0.4,0.4-0.9,0.1-1.4,0c-0.1,0.4-0.1,0.8-0.5,1 c-0.9,0.3-0.9-0.7-1.2-1.1c-0.8-0.7-0.9,0.6-1.4,0.9c-1.5-1-1.1,1.6-2.5,0.9c-0.8-0.1-0.6,1.2-1.4,1c-0.3-0.2-0.9-0.4-0.6-0.9 c-0.1-0.2-0.3-0.6-0.6-0.6c-1.3,0.6,0.6,1,0.4,1.9c-0.2,0.3-0.5,0.5-0.9,0.5c-0.5-0.2-0.6-0.7-0.5-1.1c-0.2-0.2-0.5-0.4-0.9-0.4 c-0.2,0.2-0.5,0.3-0.5,0.6c-0.2,0.6-0.7,0.3-1.1,0.2c-0.2,0-0.5,0.2-0.6,0.5c-0.1,0.4-0.6,0.6-0.9,0.6c-1.2,0.1,0-1-0.8-1.4 c-0.2-0.3-0.6-0.1-0.8,0.2c-0.6,1.1,1.3,0.5,0.8,1.6c-0.2,0.3-0.5,0.6-0.9,0.5c-0.4-0.1-0.6-0.6-0.5-1c-0.2-0.2-0.4-0.6-0.8-0.5 c-0.5,0.2-0.6,0.8-0.9,1.1c-1.2-1.1-1.2,1-2.2,0.8c-0.5,0-1-0.4-0.6-0.9c-0.1-0.3-0.4-0.6-0.7-0.6c-1.4,0.9,0.8,1,0.4,1.8 c-0.1,0.3-0.4,0.7-0.9,0.6c-0.5-0.1-0.5-0.7-0.4-1.1c-0.2-0.3-0.5-0.4-0.9-0.4c-0.4,0.1-0.6,0.6-0.7,0.9c-0.4,0.2-0.9-0.1-1.3,0 c-0.2,0.4-0.5,1-1,1c-0.5-0.2-0.5-0.7-0.5-1.1c-0.2-0.2-0.5-0.5-0.9-0.4c-0.4,0.2-0.5,0.6-0.7,1c-0.5,0.2-1,0-1.4-0.3 c0.2-0.4,0.3-0.9-0.1-1.1c-0.2-0.2-0.5-0.1-0.7,0.2c-0.6,1,1.1,0.6,0.8,1.5c-0.2,0.3-0.5,0.6-0.9,0.6c-0.4-0.2-0.5-0.7-0.4-1.1 c-0.9-1.5-1.3,0.7-2.3,0.5c-0.2-0.1-0.7-0.3-0.5-0.7c-0.1-0.4-0.3-0.8-0.7-0.8c-0.5,0.1-0.5,0.6-0.6,1c0.2,0.2,0.6,0.2,0.9,0.5 c0.2,0.3,0.1,0.6-0.2,0.9c-1.6,0.5,0-1.6-1.3-1.5c-1.2-0.7-0.7,1.3-1.9,0.9c-0.9-0.3,0-1.2-0.8-1.5c-1.2-0.6-0.7,1.4-1.9,0.9 c-1.2,0.2-0.1-1.1-0.9-1.5c-0.3-0.2-0.6,0-0.8,0.2c-0.6,1.2,1.2,0.5,0.8,1.6c-0.1,0.3-0.5,0.5-0.8,0.5c-0.8-0.1-0.4-1.1-0.6-1.4 c-1.2-1.1-0.9,1-2.1,0.8c-0.4-0.1-0.7-0.6-0.5-1.1c-0.8-1.5-1.3,0.6-2.2,0.4c-0.5-0.1-0.9-0.4-0.6-1c-0.1-0.3-0.4-0.6-0.8-0.6 c-1.6,1.1,1.1,0.9,0.5,1.9c-0.2,0.4-0.6,0.6-0.9,0.6c-0.9-0.2-0.1-1.1-0.6-1.5c-1.2-0.8-0.9,1.2-1.9,0.9c-0.9-0.6-0.9,0.7-1.3,1.1 c-0.3,0.1-0.5-0.1-0.9-0.1c-0.3,0.1-0.5,0.4-0.6,0.7c0.1,0.4,0.5,0.7,0.8,0.7c0.2,0,0.5-0.3,0.6-0.6c0-0.4,0.4-0.7,0.9-0.6 c0.3,0.2,0.5,0.6,0.5,1c-0.1,0.6-0.9,0.5-1.3,0.4c-0.2,0.2-0.5,0.5-0.4,0.9c0.2,0.3,0.4,0.6,0.8,0.6c0.5,0,0.5-0.7,0.8-1 c0.4-0.1,0.8,0,1,0.4c0.2,0.3,0.1,0.8-0.2,1c-0.3,0.1-0.5-0.1-0.9-0.1c-0.2,0.1-0.5,0.3-0.4,0.6c0.2,0.2,0.3,0.4,0.5,0.6 c0.6,0.5,0.6-0.5,0.9-0.8c0.4,0,0.8,0,1,0.4c0.2,0.2,0,0.6,0,1c0.2,0.5,0.8,0.4,1.2,0.6c0,0,0-0.1,0-0.1l0-0.2c0.1-0.4,0.2-1,0.8-1 c0.6,0,0.8,0.4,0.8,0.7c0,0,0,0,0,0c0,0,0,0,0,0.1c0,0.1,0,0.1,0,0.2c0,0.2,0,0.3-0.1,0.5c-0.1,0.1-0.3,0.2-0.4,0.2l-0.8-0.1 c-0.1,0-0.2-0.1-0.3-0.2c0,0.3-0.4,0.7,0,1c1.2,1.5,0.9-1,2.1-0.5c0.4,0.1,0.5,0.6,0.5,0.9c0,0.7-0.8,0.6-1.2,0.5 c0.5,1.2,1-0.2,1.9,0.4c0.3,0.2,0.5,0.6,0.3,0.9c0.3,0.4,0.7,0.5,1.1,0.7c0.1-0.1,0.2-0.2,0.2-0.3c0.1-0.3,0.5-0.6,0.9-0.6 c0.3,0.2,0.5,0.5,0.5,0.9c-0.6,1.1,1.1,0.7,1.5,1.4c0.1,1.4,1-0.1,1.6,0.2c0.5-0.1,0.7,0.6,0.9,0.9c0.4,1.2,1.1-0.2,1.6-0.1 c0.8-0.1,0.8,0.8,1.2,1.2c0.6,0.2,0.9-0.6,1.6-0.5c0.6,0.1,0.7,0.7,1,1.1c0.5,0,0.8-0.1,1-0.4c0.5-0.1,1.1,0,1.5,0.3 c0.1,0.4-0.2,0.7-0.3,1c-0.5,0.2-0.9-0.1-1.4-0.1c-0.2,0.3-0.5,1-1,0.7c-0.5-0.2-0.1-0.9-0.8-1.1c-0.9-0.7-1,1-2,0.6 c-0.7-0.1-0.1-0.9-0.7-1.1c-0.9-0.7-1,0.9-2,0.5c-0.8,0-0.2-1-0.8-1.2c-0.9-0.7-0.9,0.9-1.7,0.5c-0.7,0-0.5-0.8-0.8-1.1 c-0.9-0.9-1,0.6-1.9,0.4c-0.3-0.1-0.7-0.5-0.5-0.8c-0.5-1.5-1.5,0-2.2,0c-0.7-0.2-0.3-1-0.8-1.4c-0.8-0.9-1.2,0.5-1.8,0.5 c-0.3,0-0.5-0.4-0.5-0.8c0.1-0.5,0.5-0.3,0.9-0.2c0.1-0.2,0.3-0.1,0.2-0.3c-0.5-1-1,0.4-1.8-0.1c-0.9-0.1-0.4-1.1-1-1.4 c-0.4-0.3-0.9,0.1-1,0.4c-1.1,0.5-0.8-1-1.4-1.4c-1.1,0.1-0.5-1.2-1.3-1.6c-0.6-0.5-0.9,0.8-1.5,0.5c-0.7-0.2-0.1-1-0.5-1.3 c-1,0.1-1-1.1-1.5-1.7c-1,0.1-0.8-1.1-1.5-1.5c-0.2-0.3-0.5,0.1-0.6,0.2c-0.2,0.2-0.6,0.2-0.9-0.1c-0.2-0.5,0-1.1,0.5-1.2 c-0.4-0.7-1.3,0.3-1.6-0.6c0.2-1-0.4-1.2-1.1-1.5c-0.1-1.2-1.4-1.4-1.8-2.4c-0.4-0.8-0.8,0.3-1.3,0.1c-0.3-0.2-0.7-0.6-0.5-1.1 c-0.1-0.2-0.3-0.1-0.5-0.2c-0.2,0.1-0.3,0.3-0.3,0.6c0.8,2.3,2.2,4.4,3.5,6.5c1.2,1.7,2.5,3,3.8,4.5c0.5,0.7,1.3,1,1.7,1.7 c5.8,5.5,12.9,8.7,20.4,10.4c1.2,0,2.2,0.8,3.3,0.4c1.2,0.8,2.9,0.2,4.1,0.7c0.6-0.2,1.2-0.2,1.9,0c1-0.4,2.3,0.1,3.3-0.4 c2.1-0.2,4.2-0.4,6.2-1c1.6-0.3,3.2-0.8,4.8-1.2c0.9-0.6,2-0.6,2.7-1.3c3.8-1.6,7.4-3.9,10.5-6.7c0.9-0.9,2.1-1.8,2.8-3 c2.9-2.8,5-6.3,7-9.8c0.5-1.8,1.6-3.5,1.9-5.4C147.4,75,147.8,74.1,146.8,74.6" clip-path="url(#b)"/>
  <path d="M97.5 99.1C97.4 99.1 97.4 99.1 97.5 99.1L97.5 99.1C97.5 99.1 97.5 99 97.5 99.1 97.5 99 97.4 99 97.5 99.1 97.4 99.1 97.4 99 97.5 99.1M84.8 83.1c.2-.1.5-.3.5-.6-.1-.3-.5-.6-.8-.7-.3.1-.5.5-.5.8C84.1 82.9 84.4 83.2 84.8 83.1M83.6 81c.1 0 .2-.2.2-.4-.1-.3-.5-.1-.5.2C83.3 80.9 83.5 81 83.6 81M90.6 81.4c.1 0 .2-.2.2-.4-.1-.1-.1-.2-.2-.2C90.3 81 90.3 81.4 90.6 81.4M86.4 81.9c.1-.2.2-.2.2-.5 0-.2-.2-.4-.5-.5-.2.2-.4.4-.4.6C86 81.7 86.1 82 86.4 81.9M82 82.1c.1-.1.3-.2.3-.4-.2-.5-.8-.5-.8.1C81.6 81.9 81.7 82.1 82 82.1M93.4 82.4c.2-.2.6-.3.5-.6-.1-.3-.7-.7-.9-.2C92.7 81.9 93 82.4 93.4 82.4M88.9 90.3C89 90.3 89 90.3 88.9 90.3 89 90.3 89 90.3 88.9 90.3 89 90.3 89 90.3 88.9 90.3M80.3 83c.1-.1.2-.2.2-.4-.2-.2-.7-.4-.6.1C80 82.9 80.1 83 80.3 83M83 84c.3-.2.6-.4.6-.8-.2-.3-.4-.4-.7-.4-.2.1-.5.3-.5.6C82.5 83.7 82.7 84 83 84M81.6 84.7c.1-.1.1-.2.1-.3-.1-.2-.2-.4-.5-.3C81 84.2 81.2 84.6 81.6 84.7M130.3 78.7c.2 0 .2-.2.2-.4-.2-.2-.2-.3-.4-.3-.2.2-.5.2-.4.5C129.8 78.6 130 78.9 130.3 78.7M131.8 77.6c.1-.1.2-.2.2-.3-.1-.2-.2-.2-.3-.2C131.3 77.2 131.6 77.6 131.8 77.6M124.1 80.1c.2-.1.4-.3.3-.6-.2-.4-.8-.3-.9.2C123.6 79.9 123.9 80.1 124.1 80.1M119.9 80c-.1 0-.2-.2-.2-.2-.2.1-.3.2-.1.4C119.7 80.3 119.7 80.1 119.9 80M137.9 76.3c.2-.2.3-.2.3-.4-.2-.5-.7-.3-.8.1C137.6 76.2 137.7 76.5 137.9 76.3M97.7 81.9c.1-.1.4-.2.3-.4-.1-.2-.2-.2-.4-.2-.2.1-.3.2-.2.4C97.5 81.8 97.6 81.9 97.7 81.9M139.7 74.9c-.1-.3-.5-.2-.4.2.1.1.2.2.2.2C139.7 75.1 139.8 75.1 139.7 74.9M146.9 72.8c.1.2.3.3.5.3.2 0 .3-.3.3-.5C147.5 72 146.8 72.3 146.9 72.8M109.5 81.7c-.2-.1-.2-.3-.4-.3-.2.1-.4.4-.2.6C109.2 82.3 109.4 81.9 109.5 81.7M104.8 82.4c.2 0 .4-.2.4-.5-.2-.4-.8-.3-.9.1C104.4 82.1 104.6 82.4 104.8 82.4M112 83c.2-.2.4-.4.4-.8-.2-.2-.4-.5-.7-.4-.2.2-.5.4-.4.7C111.4 82.8 111.7 83.1 112 83M100.4 82.8c.3-.1.5-.3.5-.6 0-.2-.3-.3-.5-.4-.2.1-.5.3-.4.6C100 82.6 100.2 82.8 100.4 82.8M118 81.5c.2-.1.5-.2.4-.5-.2-.2-.3-.5-.5-.3-.2.1-.4.2-.3.4C117.6 81.3 117.8 81.5 118 81.5M113.6 81.7c.2-.1.3-.2.3-.4-.2-.4-.6-.2-.6.2C113.3 81.5 113.4 81.7 113.6 81.7" clip-path="url(#b)"/>
  <path d="M107.4 117.7c26.5 0 48.2-21.2 50.5-48.4l-6.2 1.9c-3.5 20-22 35.3-44.3 35.3-19.1 0-35.4-11.2-41.9-27h-6.7C65 101.6 84.4 117.7 107.4 117.7M99.3 24.1c-.4.3-1.7 1.7-2.1 1.1-.3-.4.4-.9.4-.9l-5.4-.7-.9 2.8 1.2.8L91 34.9l3.4 2.2 3-3.4-1.3-1.2c0 0-.9.9-1.2.1-.1-.2.4-1.5.8-2.5.4-1 1.1-2.9 1.8-1.7.6 1 1.1 2.7 1.1 2.7l2-2.5-.3-3.6C100.2 24.9 99.6 24.4 99.3 24.1M145.4 23.1c-.4.3-1.9 1.5-2.2.8-.2-.4.4-.9.4-.9l-4.6-1.2-1.2 2.6 1.1.9-2.1 7.3 3.2 2.5 3.4-3-1.1-1.3c0 0-.9.7-1.2-.1-.1-.2.2-1.5.6-2.4.5-.9 1.2-2.3 1.6-1.5.6 1 .8 2.7.8 2.7l2.2-2.2 0-3.6C146.3 23.9 145.7 23.4 145.4 23.1M86.8 33.2c-.5-.5 1.7-7.3 1.7-7.3l-5.6-1.5-.7 2.7 1.2 1.2-.7 8.1c0 0 3.2 1.9 3.3 1.9.1 0 2.8-4.1 2.8-4.1l-1.1-1.2C87.7 32.9 87.2 33.7 86.8 33.2M87.1 17.2c-1.4 0-2.5 1-2.5 2.3 0 1.3 1.1 2.3 2.5 2.3 1.4 0 2.5-1 2.5-2.3C89.6 18.2 88.5 17.2 87.1 17.2M133.7 31c-.5-.5 1.7-7.1 1.7-7.1l-5.2-1.6-.7 2.6 1.2 1.1-1 7.8c0 0 3 1.9 3.1 1.9.1 0 2.8-4 2.8-4l-1.1-1.1C134.6 30.7 134.2 31.4 133.7 31M134 15.2c-1.4 0-2.5 1-2.5 2.3 0 1.3 1.1 2.3 2.5 2.3 1.4 0 2.5-1 2.5-2.3C136.5 16.2 135.4 15.2 134 15.2M118.6 16.1L113 26.6l-.5-.4c0 0-.1-5.1.3-9l-5.5 3.4-.5 4.1c0 0-.4.5-.9 1.3 0-1.4-.3-11.2-.3-11.2l-5.2 3.6.1 2.2 1.2.1c.6 4.9 1 11.4 1.2 13.2.5.4 3.4 1.9 3.4 1.8 0-.1 2.8-6.4 2.8-6.4l1 6.6 3.8-1.9c0 0 5.7-13.4 6.7-15 .5-.2 2.1-.3 2.1-.3l.4-3.2L118.6 16.1zM122.3 31.9c0 0-1.8.8-2.7 1-.3.1-.7.2-.7-.1 0-1.1 3.8-3.6 3.8-3.6L122.3 31.9zM125.6 30.6c0 0 .6-3.1 2.3-7.5l-4.9-1-2.3 2.6 1.2.8c0 0 .3-.3.6-.5.6-.3.8.4.4 1.1-2.2 1.5-4.8 3.3-6.7 5.7l1.8 4 4.7-1.5 2.2 1.7 2.8-3.4c0 0-.6-1-.8-1.6C125.9 31.9 125.5 31.2 125.6 30.6M74.6 33.2l-1.4-.3 1.8-4.9L74.6 33.2zM79 36.9c-.4-3.2.3-17.2.4-17.4-.5.2-5.3 1.5-5.3 1.5l-6 15.8-1.5-.2-1.1 2.7 4.5 3 2.3-6.2 2.5.6c.2 2.5.8 5.1.8 5.1l5.1-2.6v-2.5C80.8 36.7 79.3 36.9 79 36.9" clip-path="url(#b)"/>
  <path fill="#FFDB00" d="M143.5,96.5c-0.2-0.2-0.5-0.3-0.7-0.2l-0.6,0.3l-0.5,0.4l-0.4,0.3 c-0.1,0-0.2,0-0.2,0c0,0-0.1-0.1-0.1-0.2l0.2-0.4l0.3-0.3c0.2-0.1,0.3-0.1,0.4,0c0,0,0.1,0,0.1,0l0.5-0.5c0,0,0,0,0-0.1 c0,0,0,0,0-0.1c-0.3-0.2-0.6-0.3-0.9-0.2c-0.3,0.1-0.6,0.3-0.9,0.6c-0.3,0.3-0.5,0.7-0.5,1c0,0.3,0.1,0.6,0.3,0.8 c0.2,0.2,0.5,0.3,0.8,0.2l0.7-0.4l0.3-0.2l0.4-0.3c0.1,0,0.2,0,0.2,0c0.1,0.1,0.1,0.2,0,0.4l-0.3,0.3c-0.2,0.2-0.4,0.3-0.5,0.3 l-0.3-0.1c0,0-0.1,0-0.1,0l-0.5,0.5c0,0,0,0,0,0.1c0,0,0,0,0,0.1c0.2,0.2,0.5,0.3,0.9,0.2c0.3-0.1,0.7-0.3,1-0.7 c0.3-0.4,0.5-0.7,0.5-1C143.8,97,143.7,96.7,143.5,96.5 M131,106.1l-0.7,0.1l-0.6,0.2l-0.5,0.1c-0.1,0-0.2,0-0.2-0.1 c0-0.1,0-0.2,0-0.2l0.3-0.3l0.4-0.1c0.2,0,0.3,0,0.4,0.2c0,0,0.1,0,0.1,0l0.6-0.3c0,0,0,0,0-0.1c0,0,0,0,0-0.1 c-0.2-0.3-0.4-0.4-0.8-0.5c-0.3,0-0.7,0.1-1,0.3c-0.4,0.2-0.7,0.5-0.8,0.8c-0.1,0.3-0.1,0.6,0,0.8c0.2,0.3,0.4,0.4,0.7,0.4l0.8-0.2 l0.4-0.1l0.5-0.1c0.1,0,0.2,0,0.2,0.1c0,0.1,0.1,0.2-0.1,0.4l-0.3,0.2c-0.2,0.1-0.4,0.2-0.6,0.1l-0.2-0.2c0,0-0.1,0-0.1,0l-0.6,0.3 c0,0-0.1,0.1,0,0.1c0.2,0.3,0.4,0.5,0.8,0.5c0.3,0,0.7-0.1,1.1-0.3c0.4-0.2,0.7-0.5,0.8-0.8c0.1-0.3,0.1-0.6,0-0.8 C131.5,106.3,131.3,106.1,131,106.1 M135.1,105L135.1,105C135.1,105,135.1,105,135.1,105C135.1,105,135.1,105,135.1,105 M83.5,104.2C83.5,104.2,83.5,104.2,83.5,104.2c-0.1,0-0.1,0-0.1,0c0,0-0.5,0.8-0.6,0.9c-0.1-0.1-0.9-0.6-1-0.7 c0.1-0.1,0.6-0.9,0.6-0.9c0,0,0,0,0,0c0,0,0,0,0-0.1l-0.6-0.4c0,0,0,0-0.1,0c0,0,0,0-0.1,0l-1.6,2.5c0,0,0,0,0,0.1c0,0,0,0,0,0 l0.6,0.4c0,0,0.1,0,0.1,0c0,0,0.6-0.9,0.7-1c0.1,0.1,0.9,0.6,1,0.7c-0.1,0.1-0.7,1-0.7,1c0,0,0,0,0,0c0,0,0,0,0,0.1l0.6,0.4 c0,0,0,0,0.1,0c0,0,0,0,0,0l1.6-2.5c0,0,0-0.1,0-0.1L83.5,104.2z M134.3,104.9c0,0.2-0.2,0.4-0.4,0.6c-0.2,0.2-0.5,0.2-0.7,0.2 c-0.2,0-0.4-0.2-0.6-0.5c-0.2-0.3-0.2-0.5-0.2-0.7c0-0.2,0.2-0.4,0.4-0.6c0.2-0.2,0.5-0.2,0.7-0.2c0.2,0,0.4,0.2,0.6,0.5 c0.1,0.2,0.2,0.4,0.2,0.6C134.3,104.8,134.3,104.8,134.3,104.9 M141,99.7c0,0-0.1,0-0.1,0c0,0-1.3,1.2-1.4,1.3 c-0.1-0.1-0.3-0.4-0.4-0.4c0.1-0.1,1.2-1.1,1.2-1.1c0,0,0,0,0-0.1c0,0,0,0,0-0.1l-0.3-0.4c0,0,0,0-0.1,0c0,0,0,0-0.1,0 c0,0-1.1,1-1.2,1.1c-0.1-0.1-0.2-0.3-0.3-0.3c0.1-0.1,1.3-1.2,1.3-1.2c0,0,0,0,0-0.1c0,0,0,0,0,0c0,0,0,0,0-0.1l-0.4-0.4 c0,0-0.1,0-0.1,0l-1.9,1.8c0,0,0,0.1,0,0.1l2,2.2c0,0,0.1,0,0.1,0l2-1.8c0,0,0,0,0-0.1c0,0,0,0,0-0.1L141,99.7z M134.9,103.6 c-0.3-0.5-0.7-0.7-1.2-0.7c-0.4,0-0.8,0.1-1.2,0.4c-0.4,0.3-0.7,0.6-0.8,1c-0.2,0.4-0.1,0.9,0.2,1.4c0.3,0.5,0.7,0.7,1.2,0.7 c0.4,0,0.8-0.1,1.2-0.4c0.4-0.3,0.7-0.6,0.8-1c0-0.1,0.1-0.3,0.1-0.4C135.2,104.3,135.1,104,134.9,103.6 M138.2,102.2 c0,0-0.1,0-0.1,0c0,0-1.2,1-1.3,1.1c-0.1-0.1-1.5-1.8-1.5-1.8c0,0,0,0-0.1,0c0,0,0,0-0.1,0l-0.6,0.5c0,0,0,0.1,0,0.1l1.8,2.3 c0,0,0.1,0,0.1,0l2-1.6c0,0,0,0,0-0.1c0,0,0,0,0-0.1L138.2,102.2z M77.8,99.9l-0.6-0.5c0,0,0,0-0.1,0c0,0,0,0-0.1,0l-2,2.2 c0,0,0,0.1,0,0.1l0.6,0.5c0,0,0,0,0.1,0c0,0,0,0,0.1,0l2-2.2C77.8,100,77.8,99.9,77.8,99.9 M80.5,102.9 C80.5,102.9,80.5,102.9,80.5,102.9l0.4-0.4c0,0,0-0.1,0-0.1l-2.3-1.8c0,0-0.1,0-0.1,0l-0.3,0.4c0,0,0,0,0,0c0,0,0,0,0,0 c0,0,0,0,0,0.1c0,0,0.7,0.5,0.8,0.6c-0.1,0.1-1.4,1.9-1.4,1.9c0,0,0,0,0,0v0c0,0,0,0,0,0.1l0.6,0.5c0,0,0.1,0,0.1,0 c0,0,1.4-1.7,1.4-1.9C79.8,102.4,80.5,102.9,80.5,102.9C80.5,102.9,80.5,102.9,80.5,102.9 M76.4,98.8 C76.4,98.8,76.4,98.7,76.4,98.8l-0.5-0.6c0,0-0.1,0-0.1,0L74.2,99c0,0-0.1,0-0.1,0.1c0-0.1,0.1-0.1,0.1-0.1l0.9-1.5c0,0,0,0,0,0 c0,0,0,0,0-0.1l-0.5-0.6c0,0-0.1,0-0.1,0c0,0-1.6,0.9-1.6,0.9c0,0,0.1-0.1,0.1-0.1c0,0,0.9-1.5,0.9-1.5c0,0,0,0,0,0c0,0,0,0,0-0.1 l-0.5-0.6c0,0,0,0-0.1,0c0,0,0,0-0.1,0l-1.4,2.8c0,0,0,0.1,0,0.1l0.5,0.5c0,0,0.1,0,0.1,0l1.5-0.9c0,0,0.1-0.1,0.2-0.1 C74,97.9,73.9,98,73.9,98c0,0-0.9,1.5-0.9,1.5c0,0,0,0,0,0c0,0,0,0,0,0.1l0.5,0.5c0,0,0.1,0,0.1,0L76.4,98.8 C76.4,98.8,76.4,98.8,76.4,98.8" clip-path="url(#b)"/>
  <path fill="#FFF" d="M124.7,112.1c-0.6,0.3-1.2,0.2-1.5-0.3c-0.3-0.5,0-1,0.6-1.3 c0.6-0.3,1.2-0.2,1.5,0.3C125.5,111.3,125.2,111.8,124.7,112.1 M122,108.1c-0.1-0.4,0.1-0.8,0.6-1c0.5-0.2,0.9,0,1.1,0.4 c0.2,0.4-0.1,0.8-0.6,1C122.6,108.7,122.2,108.5,122,108.1 M126.3,110.4c-0.4-0.7-1.5-1.3-2.8-0.6c-0.4,0.2-0.6,0.5-0.7,0.5 c-0.1,0-0.2-0.1-0.2-0.1c-0.1-0.2,0.4-0.6,0.9-0.8c1.2-0.5,1.5-1.4,1.3-2.1c-0.3-0.7-0.7-0.7-0.8-0.9c-0.1-0.4,0.7-0.4,0.7-0.6 c0-0.1-0.7-0.4-0.9-0.3c-0.3,0.1-0.3,0.8-0.7,1c0,0-0.2,0-0.5,0.1c-1.1,0.4-1.6,1.2-1.3,2.1c0.3,0.7,1,0.8,1,1 c0.1,0.2-0.9,0.6-0.6,1.4c0.1,0.3,0.4,0.5,0.8,0.5c-0.1,0.3-0.1,0.7,0.1,1c0.5,0.8,1.7,0.9,2.8,0.4c0.5-0.2,1-0.7,1.2-1.2 C126.5,111.5,126.6,111,126.3,110.4 M119.4,113.2c-0.1,0-0.3,0.1-0.3,0c0-0.1,0.2-1.1-0.1-2.6c-0.1-0.5-0.3-1.1-0.9-1 c-0.3,0.1-1,0.4-0.6,1.8c0.2,0.8,0.7,1.9,0.7,2c0,0.1-0.1,0.1-0.2,0.1l-0.7,0.2c-0.3,0.1-0.4,0.2-0.8-1.6c-0.7-3.2-0.4-3.1,0.3-3.2 c0.3-0.1,0.6-0.2,0.6,0c0,0.1,0,0.2,0,0.3c0,0.1,0.1,0.1,0.2,0.1c0.1,0,0.5-0.4,1-0.6c0.2-0.1,1.3-0.3,1.7,1.6 c0.6,2.8,0.3,2.7,0,2.8L119.4,113.2z M114.9,114.1c0.2,0,0.5,0,0.4-0.3c0-0.1-0.5-1.1-0.8-2.9c-0.1-0.8,0-1.1-0.1-1.3 c0-0.1,0-0.1-0.4,0l-0.5,0.1c-0.3,0-0.5-0.2-0.1,2.3c0.4,2.5,0.4,2.4,0.8,2.3L114.9,114.1z M113.1,108.7c0-0.3,0.3-0.5,0.6-0.6 c0.4-0.1,0.7,0.1,0.7,0.4c0,0.3-0.3,0.5-0.6,0.6C113.5,109.1,113.1,109,113.1,108.7 M108.5,112.7c-0.1-1.2,0.6-2.7,2.3-2.8 c0.8-0.1,1.3,0.2,1.4,0.7c0,0.2-0.2,0.6-0.5,0.7c-0.2,0-0.2-0.5-0.9-0.5c-0.9,0.1-1.2,1.1-1.1,1.7c0,0.7,0.5,1.3,1.3,1.2 c1-0.1,1.1-0.8,1.2-0.8c0,0,0.1,0.1,0.2,0.4c0.1,0.9-0.6,1.5-1.7,1.5C109.3,114.8,108.6,113.7,108.5,112.7 M105.9,114.7 c-0.1,0-0.3,0-0.3-0.1c0-0.1,0.5-1,0.5-2.5c0-0.5,0-1.2-0.6-1.2c-0.3,0-1,0.1-1.1,1.6c0,0.9,0.2,2,0.2,2.1c0,0.1-0.2,0.1-0.2,0.1 l-0.8,0c-0.3,0-0.5,0.1-0.4-1.8c0.1-3.3,0.4-3.1,1.1-3c0.3,0,0.6,0,0.6,0.2c0,0.1-0.1,0.2-0.1,0.3c0,0.1,0,0.1,0.1,0.1 c0.2,0,0.6-0.3,1.1-0.3c0.2,0,1.3,0.1,1.2,2c-0.1,2.8-0.4,2.7-0.7,2.7L105.9,114.7z M101.8,109.8c0.4,0.1,0.2,1.6,0.1,2.2 c-0.4,2.6-0.6,2.5-1.2,2.4c-0.9-0.1-0.2-0.4-0.7-0.5c-0.1,0-0.3,0.1-0.5,0.2c-0.2,0.1-0.4,0.1-0.7,0.1c-0.7-0.1-1.3-0.6-1-2.6 c0-0.1,0.4-2.3,0.8-2.2l0.8,0.1c0.1,0,0.4,0,0.3,0.2c0,0.1-0.5,0.8-0.7,2.1c-0.1,0.4-0.2,1.5,0.5,1.6c0.3,0,1,0.1,1.2-1.5 c0.1-0.9,0-2,0-2.1c0-0.1,0.2-0.1,0.3,0L101.8,109.8z M95.7,110.8c0.1-0.6,0.1-1.4-0.7-1.6c-0.9-0.2-1.3,0.5-1.4,1 c-0.1,0.6-0.1,1.4,0.7,1.7C95.2,112.1,95.6,111.4,95.7,110.8 M92.5,110.1c0.3-1.1,1.3-2.2,2.8-1.7c1.5,0.4,1.8,1.8,1.5,2.9 c-0.4,1.6-1.8,2-2.8,1.8C93,112.8,92,111.8,92.5,110.1 M89.7,107.6c0.3,0,0.8-0.2,0.9-0.5c0.1-0.3-0.2-0.5-0.5-0.7 c-0.8-0.3-1.3-0.2-1.7,0.8c-0.1,0.1-0.1,0.3,0.1,0.4c0.1,0,0.3,0.1,0.5,0L89.7,107.6z M88.3,108.5c-0.3,0-0.4,0-0.5,0.2 c-0.4,1-0.1,1.3,0.5,1.6c0.6,0.2,1.3,0.3,1.5-0.2c0.2-0.5-0.3-1.5-0.5-1.5c-0.1,0-0.3,0-0.4,0L88.3,108.5z M86.3,110.4 c-0.2-0.1-0.5-0.1,0.5-2.6c1.3-3.3,1.7-3,1.8-3l2.1,0.9c1.5,0.6,1.5,1.2,1.3,1.7c-0.3,0.7-1.4,0.8-1.5,1c-0.1,0.2,1,1.3,0.6,2.5 c-0.3,0.7-1,1.1-2.3,0.5L86.3,110.4z" clip-path="url(#b)"/>
  <path d="M131.9,71.6c1,0.5,2.5,1,4.9,0.6c3.6-0.6,12.4-2.9,16.2-4l-0.4-1.7 C145.8,68.5,138.9,70.3,131.9,71.6 M151.4,61.8c-7.8,2.3-15.7,4.1-23.7,5.5c0,0,0,0,0,0c0.2,0.5,0.5,1.1,0.8,1.6c0,0,0,0,0,0 c7.8-1.4,15.6-3.3,23.2-5.5L151.4,61.8z M152,64.2c-7.5,2.2-15.2,4-22.9,5.4c0.4,0.5,1,1,1.7,1.4c0,0,0,0,0,0 c7.3-1.4,14.5-3.2,21.6-5.3L152,64.2z M150.8,59.3l-9.1,2.3l0.5,1.9c3-0.8,6.1-1.6,9.1-2.4L150.8,59.3z M135.8,56.6l4.4-1.1 c0,0-0.6-2.5-0.8-3.2c-0.8-2.3-4.8-1.3-4.3,1.1C135.1,54.2,135.8,56.6,135.8,56.6 M138.2,64.4c-3.6,0.8-7.1,1.5-10.7,2.2 c0-0.1-0.1-0.3-0.1-0.4c-0.5-1.4-1.8-6.2-2.3-9.3c-2.3-13.8,20.8-16.8,23.3-7.5l1.9,7l-13.6,3.5l0.9,3.6l0.1,0 C137.7,63.9,137.9,64.2,138.2,64.4 M157.5,65c4.7-1.5,9.4-3.1,13.9-4.9l0.5,1.4c-1.3,0.5-12.5,4.6-13.8,5L157.5,65z M184.3,51.4 c-3.8,1.7-7.7,3.4-11.8,5l-0.6-1.6c4-1.6,8-3.2,11.8-5L184.3,51.4z M183.4,49.1c-3.8,1.7-7.8,3.4-11.8,5L168,45 c-1.4-3.8-5.7-2.5-4.1,1.6c0.7,1.7,1.4,3.5,2,5.1c0.7,1.8,2.7,1.3,2.7,1.3l0.8,2c-4.6,1.7-9.2,3.3-14,4.8l-0.6-1.5 c0,0,1.7-1.1,1-2.9c-0.5-1.4-1.6-4.1-2.2-5.7c-0.9-2.2-2.7-1.5-2.7-1.5l-2.6-6.8l11.2-4.4c0,0,1.1,2.7,1.1,2.8 c1-2.2,4.2-4.8,7.1-5.6c6.8-1.7,8.7,3.2,12.3,11.9c0.8,2,2.6,1.1,2.6,1.1L183.4,49.1z M155.7,60.5c4.7-1.5,9.4-3.1,14-4.8l0.6,1.6 c-4.5,1.7-9.2,3.3-13.9,4.8L155.7,60.5z M185.4,54.3l0.6,1.4c-2,1-9.7,4.2-11.7,5.1l-0.6-1.5C177.7,57.7,181.6,56,185.4,54.3 M185.1,53.5c-3.8,1.7-7.7,3.4-11.7,5l-0.6-1.5c4-1.6,8-3.2,11.8-5L185.1,53.5z M157.2,64.3c4.7-1.5,9.4-3.1,13.9-4.9l-0.6-1.5 c-4.5,1.7-9.2,3.3-13.9,4.8L157.2,64.3z M207.6,42.4c0,0.1,0,0.1-0.1,0.2c-0.8,1.7-2.3,3.4-4.7,4.7c-1.2,0.6-10.2,5.4-12.7,6.7 l-0.8-1.6C195.8,49.2,202,45.9,207.6,42.4 M207.7,36.2c-3,1.9-6.2,3.7-9.5,5.6c0-0.2-0.1-0.5-0.2-0.7c-0.7-1.3-1.6-1.6-6.9,0.1 c-1.6,0.5-6.5,1.7-9.6-1.6c-0.7-0.7-1.4-1.9-1.7-2.6c-2.2-4.8,1.8-8.9,4.3-10.4c1.2-0.7,12.6-6.6,12.6-6.6l4,7.4c0,0-6.9,3.6-8,4.2 c-0.2-0.2-0.5-1-1-1.1c-1.2-0.4-3.5,0.9-3.4,2c0,0.4,0.3,0.9,0.4,1c0.5,0.4,1.4,0.6,4.3-0.5C203.6,29,206.5,33.3,207.7,36.2 M194.6,43.7c-2.5,1.3-5.2,2.6-7.8,3.9l-0.9-1.8c0,0,6.4-3.3,7.5-3.9c0.2,0.2,0.5,1.2,1,1.6C194.4,43.6,194.5,43.6,194.6,43.7 M208.1,41.2c-5.8,3.7-12.3,7.2-19.1,10.5l-0.7-1.3c7.3-3.5,14-7.2,20.2-11c0,0,0,0.1,0,0.1C208.3,40.1,208.2,40.6,208.1,41.2 M208.1,37.2c0-0.1-0.1-0.2-0.1-0.3c-6.4,4-13.4,7.8-20.9,11.4l0.8,1.5c7.4-3.5,14.3-7.3,20.5-11.2C208.3,38,208.2,37.6,208.1,37.2 M92.8,69.5c-3.2,0-8.4,0-14.7,0.1l0-1.7c0,0,2-0.1,2-2.1l0-6.3c0-2-2-2.1-2-2.1v-7.3h12.1v3c4.7-4.9,13.3-4.2,13.3,5.5 c0,2.2,0,3.9,0,3.9l-8.2,0l0-1.6c0-4.6-4.4-4.5-4.4-0.2l0,5.5c0,2,2,2.1,2,2.1L92.8,69.5z M92.8,75.3l0,1.7H78.1l0-1.7L92.8,75.3z M92.8,74.5c-3.2,0-8.4,0-14.7,0.1l0-1.8l14.7-0.1L92.8,74.5z M92.8,70.2l-14.7,0.1l0,1.8c6.3,0,11.5-0.1,14.7-0.1L92.8,70.2z M44.7,74.7c-6.3,0-12.6,0.1-18.4,0.1v-1.8L44.7,73L44.7,74.7z M44.7,75.5l0,1.8H26.3v-1.7L44.7,75.5z M44.7,72.2 c-6.3,0-12.6,0.1-18.4,0.1v-1.8l18.4-0.1L44.7,72.2z M2,73.2l18.4-0.1v1.8c-8.1,0-14.7,0.1-18.4,0.1L2,73.2z M2,70.6l18.4-0.1v1.8 c-8.1,0-14.7,0.1-18.4,0.1L2,70.6z M2,75.7l18.4-0.1v1.7H2L2,75.7z M44.7,67.8c0,0-5,0.1-5.1-3.1c-0.1-3.2-0.1-10.3,0-12.7 c0.1-4.1,4.9-4,4.9-4v-7.5H30l-6.7,12.3l-6.7-12.3H2.2V48c0,0,4.9-0.2,5,4c0.1,2.4,0,9.6,0,12.7C7.2,67.8,2,67.8,2,67.8l0,2.1 c3.7,0,10.3,0,18.4-0.1v-1.9c0,0-2.5-0.1-2.5-2.2v-4.5l5.4,6.9l5.4-6.9v4.5c0,2.1-2.5,2.2-2.5,2.2v1.8c5.8,0,12-0.1,18.4-0.1 L44.7,67.8z M60.4,67.8c-1.7,0-3-2.5-3-5.6c0-3.1,1.3-5.6,3-5.6c1.7,0,3,2.5,3,5.6C63.4,65.4,62.1,67.8,60.4,67.8 M72.7,65.7 l0-15.8l-10.1,0v3c-1.1-2.3-5.8-3.5-9.1-2.1c-4.9,2.2-6.9,7.6-6.8,12.7c0,2.1,0.3,4.2,1,6.2c9.5,0,18.9-0.1,27-0.1l0-1.7 C74.7,67.8,72.7,67.8,72.7,65.7 M52.2,75.5l9.1,0c-1.9,1.3-5.3,1.8-7.8,0.7C53.1,75.9,52.7,75.7,52.2,75.5 M74.7,74.6 c-3.8,0-7.8,0-12.1,0.1v-0.6c-0.1,0.2-0.2,0.4-0.4,0.6c-3.6,0-7.3,0-11,0c-0.6-0.5-1.2-1.1-1.7-1.7l25.2-0.1L74.7,74.6z M74.7,75.4 l0,1.7H62.6v-1.6L74.7,75.4z M74.7,70.3L48,70.4c0.3,0.6,0.6,1.2,0.9,1.8c9.1,0,18-0.1,25.7-0.1L74.7,70.3z M18.5,9.5v20.5 c0,0,6.1,0.7,6.2-3.1V12.6C24.6,8.8,18.5,9.5,18.5,9.5 M49.2,37.3h5v-5.7l-5,0V37.3z M37.6,31.4l0,5.9h9.4l0-5.7 c0,0-1.3-0.1-1.3-1.4l0-3.5c0-2.7,2.8-2.8,2.8,0.2l0,1l5.3,0c0,0,0-1.1,0-2.5c0-6.3-5.5-6.7-8.5-3.5v-1.9h-7.7v4.7 c0,0,1.3,0.1,1.3,1.4l0,4.1C38.9,31.3,37.6,31.4,37.6,31.4 M24.7,12.6c-0.1-3.8-6.2-3.1-6.2-3.1v20.5c0,0,6.1,0.7,6.2-3.1V12.6z M30.2,37.6H2.3v-7.8c0,0,4.7,0,4.9-3.9V13.7C7,9.8,2.3,9.7,2.3,9.7V2h27.9c0,0,5.6,0,5.7,5.8v24C35.8,37.6,30.2,37.6,30.2,37.6 M124,67.2c-5.7,0.9-11.4,1.6-17.1,1.9l-0.2-1.7c0,0,3.1-0.6,2.9-3.4c-0.1-0.4-0.6-4.7-0.7-5.4c-0.3-2-2.7-1.4-2.7-1.4 s-1-7.8-0.9-7.8c0.6-0.1,2.5-0.3,2.2-2.3c-0.2-1.8-0.8-5.9-0.8-5.9l10.7-1.3c0,0,0.5,4.1,0.7,5.9c0.3,2,2.1,1.7,2.7,1.6 c0.1,0,1,7.8,1,7.8s-2.5,0-2.3,2.1c0.1,0.7,0.6,5,0.6,5.4c0.5,2.7,3.6,2.5,3.6,2.5L124,67.2z M124.6,72.1c-5.7,0.9-11.4,1.6-17,2 l-0.2-1.7c5.7-0.4,11.4-1,17.1-1.9L124.6,72.1z M124.6,72.9l0.2,1.6c-2.8,0.7-12.8,1.7-17,2l-0.2-1.6 C113.3,74.5,119,73.8,124.6,72.9 M124.1,67.9c-5.7,0.9-11.4,1.6-17.1,1.9l0.2,1.7c5.7-0.4,11.4-1,17.1-1.9L124.1,67.9z M24.7,12.6 v14.3c-0.1,3.8-6.2,3.1-6.2,3.1V9.5C18.5,9.5,24.6,8.8,24.7,12.6" clip-path="url(#b)"/>
  <path fill="#FFDB00" d="M74.7,74.6c-3.8,0-7.8,0-12.1,0.1v0.8l12.1-0.1L74.7,74.6z M52.2,75.5l9.1,0 c0.3-0.2,0.6-0.5,0.9-0.8c-3.6,0-7.3,0-11,0.1C51.5,75,51.9,75.2,52.2,75.5 M185.1,53.5c-3.8,1.8-7.7,3.4-11.7,5l0.3,0.7 c4-1.6,7.9-3.3,11.7-5L185.1,53.5z M92.8,74.5c-3.2,0-8.4,0-14.7,0.1v0.8l14.7-0.1L92.8,74.5z M44.7,74.7c-6.3,0-12.6,0.1-18.4,0.1 v0.8l18.4-0.1L44.7,74.7z M124.6,72.1c-5.7,0.9-11.4,1.6-17,2l0.1,0.8c5.7-0.4,11.3-1.1,17-2L124.6,72.1z M152.5,65.8 c-7.1,2.1-14.3,3.9-21.6,5.3c0.1,0.1,0.2,0.1,0.2,0.2c0.2,0.1,0.5,0.3,0.8,0.4c0,0,0,0,0.1,0c7-1.4,14-3.1,20.8-5.1L152.5,65.8z M157.5,65c4.7-1.5,9.4-3.1,13.9-4.9l-0.3-0.7c-4.5,1.7-9.2,3.4-13.9,4.9L157.5,65z M208,41.4c0-0.1,0-0.1,0-0.2 c-5.8,3.7-12.3,7.2-19.1,10.5l0.4,0.7c6.6-3.2,12.7-6.6,18.4-10C207.8,42,207.9,41.7,208,41.4 M2,75.7l18.4-0.1v-0.8 c-8.1,0-14.7,0.1-18.4,0.1L2,75.7z M156.6,62.8c4.7-1.5,9.4-3.1,13.9-4.8l-0.3-0.7c-4.5,1.7-9.2,3.3-13.9,4.8L156.6,62.8z M74.7,72.1C67,72.1,58,72.1,49,72.2c0.2,0.3,0.3,0.5,0.5,0.8l25.2-0.1L74.7,72.1z M184.3,51.4c-3.8,1.7-7.7,3.4-11.8,5l0.3,0.7 c4-1.6,8-3.2,11.8-5L184.3,51.4z M2,73.2l18.4-0.1v-0.8c-8.1,0-14.7,0.1-18.4,0.1L2,73.2z M208.4,38.6c0,0,0-0.1,0-0.1 c-6.2,3.9-13.1,7.7-20.5,11.2l0.4,0.7c7.3-3.5,14-7.2,20.2-11C208.4,39.1,208.4,38.9,208.4,38.6 M92.8,72c-3.2,0-8.4,0-14.7,0.1 v0.8l14.7-0.1V72z M124.3,69.7c-5.7,0.9-11.4,1.6-17.1,1.9l0.1,0.8c5.7-0.4,11.4-1,17.1-1.9L124.3,69.7z M151.9,63.4 c-7.6,2.2-15.4,4.1-23.2,5.5c0.1,0.2,0.3,0.4,0.5,0.7c0,0,0,0,0,0c7.7-1.4,15.4-3.3,22.9-5.4L151.9,63.4z M44.7,72.2 c-6.3,0-12.6,0.1-18.4,0.1v0.8L44.7,73L44.7,72.2z M124,67.2c-5.7,0.9-11.4,1.6-17.1,1.9l0.1,0.8c5.7-0.4,11.4-1,17.1-1.9L124,67.2 z M92.8,69.5c-3.2,0-8.4,0-14.7,0.1l0,0.8l14.7-0.1L92.8,69.5z M151.2,61c-3,0.9-6,1.7-9.1,2.4l0.2,0.7l-2.5,0.6 c-0.6,0.1-1.2,0-1.7-0.4c-3.6,0.8-7.1,1.5-10.7,2.2c0,0,0,0,0,0c0.1,0.2,0.2,0.5,0.3,0.7c8-1.4,15.9-3.3,23.7-5.5L151.2,61z M155.7,60.5c4.7-1.5,9.4-3.1,14-4.8l-0.3-0.7c-4.6,1.7-9.2,3.3-14,4.8L155.7,60.5z M44.7,69.7c-6.3,0-12.6,0.1-18.4,0.1v0.8 l18.4-0.1L44.7,69.7z M208,36.7c0-0.1-0.1-0.2-0.1-0.3c0-0.1-0.1-0.2-0.1-0.3c-3,1.9-6.2,3.7-9.5,5.6c0,0.3,0,0.5-0.2,0.6 c0,0,0,0,0,0c-0.4,0.4-1.8,1.3-2.7,1.5c-0.2,0-0.5,0-0.7,0c0,0-0.1,0-0.1-0.1c-2.5,1.3-5.2,2.6-7.8,3.9l0.4,0.7 c7.5-3.6,14.6-7.4,20.9-11.4C208,36.8,208,36.8,208,36.7 M74.7,69.5c-8,0-17.5,0.1-27,0.1c0.1,0.3,0.2,0.5,0.3,0.8l26.7-0.1V69.5z M2,70.6l18.4-0.1v-0.8c-8.1,0-14.7,0.1-18.4,0.1L2,70.6z M183.7,49.8c-3.8,1.7-7.8,3.4-11.8,5l-0.3-0.7c4-1.6,8-3.2,11.8-5 L183.7,49.8z" clip-path="url(#b)"/>
</svg>
