<svg xmlns="http://www.w3.org/2000/svg" width="400" height="128">
  <g fill-rule="evenodd">
    <path d="M165.119 2.945 C 158.690 5.798,159.824 15.868,166.700 16.992 C 175.366 18.410,179.268 7.823,171.800 3.153 C 170.416 2.288,166.850 2.176,165.119 2.945 M161.600 29.590 L 161.600 35.580 155.100 35.690 L 148.600 35.800 148.600 42.200 L 148.600 48.600 155.090 48.710 L 161.580 48.820 161.690 55.110 L 161.800 61.400 168.200 61.400 L 174.600 61.400 174.800 55.200 L 175.000 49.000 181.200 48.800 L 187.400 48.600 187.510 42.310 C 187.640 34.880,188.436 35.643,180.400 35.497 L 175.000 35.400 174.889 29.500 L 174.779 23.600 168.189 23.600 L 161.600 23.600 161.600 29.590 M177.089 96.454 C 171.423 100.680,177.385 108.318,184.113 105.452 C 188.289 103.672,188.683 98.208,184.781 96.190 C 182.999 95.268,178.470 95.424,177.089 96.454 M312.606 96.124 C 307.215 99.357,310.250 106.396,316.829 105.920 C 322.610 105.502,324.756 99.485,320.188 96.500 C 318.628 95.480,314.056 95.253,312.606 96.124 M80.400 112.687 C 78.654 112.942,77.634 113.685,77.193 115.022 C 76.313 117.687,77.610 119.074,82.229 120.410 C 84.588 121.092,85.121 122.141,83.751 123.410 C 82.234 124.816,79.503 124.403,79.058 122.700 C 78.825 121.810,76.400 121.698,76.400 122.578 C 76.400 124.694,80.381 126.612,83.299 125.902 C 88.654 124.599,88.191 119.944,82.518 118.042 C 79.220 116.937,78.394 115.978,79.833 114.926 C 80.926 114.127,82.210 114.292,83.527 115.400 C 85.403 116.979,86.766 116.614,86.048 114.725 C 85.489 113.257,82.897 112.322,80.400 112.687 M95.036 112.693 C 88.844 113.612,88.773 124.248,94.949 125.818 C 97.738 126.528,101.598 124.853,101.600 122.933 C 101.600 122.676,101.709 122.181,101.843 121.833 C 102.032 121.339,101.812 121.200,100.843 121.200 C 100.068 121.200,99.600 121.403,99.600 121.738 C 99.600 123.713,95.337 124.551,93.957 122.847 C 92.771 121.381,92.877 116.843,94.126 115.670 C 95.480 114.398,98.079 114.465,99.129 115.800 C 100.180 117.137,102.024 117.209,101.707 115.900 C 101.269 114.089,98.455 112.195,96.600 112.462 C 96.380 112.494,95.676 112.598,95.036 112.693 M110.818 112.731 C 106.681 113.125,104.469 118.967,106.851 123.205 C 108.972 126.978,114.531 127.050,117.120 123.338 C 118.938 120.731,117.971 114.382,115.600 113.359 C 114.532 112.898,112.235 112.597,110.818 112.731 M175.907 112.748 C 173.676 113.262,172.424 115.247,172.967 117.410 C 173.229 118.454,174.717 119.297,178.400 120.487 C 180.569 121.188,181.084 122.676,179.534 123.761 C 178.184 124.707,177.038 124.543,175.600 123.200 C 174.353 122.035,172.400 121.563,172.400 122.426 C 172.400 124.791,175.881 126.532,179.283 125.868 C 183.873 124.972,184.096 119.764,179.600 118.449 C 176.362 117.503,175.200 116.861,175.200 116.021 C 175.200 114.264,178.312 113.833,179.675 115.400 C 181.152 117.099,183.000 116.469,182.003 114.606 C 181.182 113.071,178.309 112.196,175.907 112.748 M218.979 112.700 C 212.674 113.239,212.356 124.219,218.600 125.822 C 221.750 126.631,224.803 125.120,225.386 122.464 C 225.787 120.639,223.678 120.562,222.876 122.373 C 221.482 125.523,217.459 124.047,216.609 120.074 C 215.751 116.065,220.390 112.826,222.729 115.800 C 223.425 116.685,225.600 117.261,225.600 116.560 C 225.600 114.037,222.753 112.377,218.979 112.700 M274.149 112.707 C 270.035 113.156,270.172 118.922,274.319 119.831 C 277.180 120.459,278.198 121.082,278.320 122.279 C 278.548 124.512,275.564 125.102,273.662 123.200 C 271.292 120.831,269.439 121.879,271.542 124.398 C 273.817 127.123,280.172 126.158,280.973 122.965 C 281.542 120.698,279.064 118.000,276.413 118.000 C 275.159 118.000,273.200 116.771,273.200 115.985 C 273.200 114.234,276.336 113.858,277.796 115.434 C 278.959 116.688,280.200 116.587,280.200 115.238 C 280.200 113.486,277.472 112.345,274.149 112.707 M300.932 112.679 C 299.189 112.908,297.600 114.578,297.600 116.179 C 297.600 118.240,298.713 119.104,303.029 120.394 C 305.392 121.101,305.918 122.143,304.551 123.410 C 303.139 124.719,301.962 124.659,300.400 123.200 C 298.807 121.712,297.006 121.531,297.415 122.900 C 298.797 127.530,307.600 126.931,307.600 122.207 C 307.600 119.775,306.165 118.536,302.496 117.797 C 300.295 117.354,299.493 116.165,300.629 115.029 C 301.571 114.086,303.403 114.256,304.638 115.400 C 305.970 116.635,307.200 116.721,307.200 115.581 C 307.200 114.634,305.386 112.803,304.442 112.795 C 304.089 112.792,303.440 112.727,303.000 112.651 C 302.560 112.575,301.629 112.587,300.932 112.679 M4.872 113.700 C 4.978 114.444,5.312 114.635,6.800 114.800 L 8.600 115.000 8.712 120.300 L 8.823 125.600 10.000 125.600 L 11.177 125.600 11.288 120.300 L 11.400 115.000 13.200 114.800 C 14.688 114.635,15.022 114.444,15.128 113.700 C 15.255 112.806,15.222 112.800,10.000 112.800 C 4.778 112.800,4.745 112.806,4.872 113.700 M18.800 119.200 L 18.800 125.600 20.000 125.600 C 21.193 125.600,21.200 125.588,21.206 123.300 C 21.215 120.147,21.416 119.933,24.237 120.078 L 26.600 120.200 26.718 122.900 C 26.836 125.597,26.838 125.600,28.018 125.600 L 29.200 125.600 29.200 119.200 L 29.200 112.800 28.019 112.800 C 26.850 112.800,26.837 112.825,26.719 115.300 L 26.600 117.800 24.151 117.918 C 21.386 118.051,21.216 117.854,21.205 114.500 C 21.200 112.879,21.144 112.800,20.000 112.800 L 18.800 112.800 18.800 119.200 M34.400 119.200 L 34.400 125.600 39.000 125.600 C 41.760 125.600,43.624 125.440,43.660 125.200 C 43.862 123.857,43.739 123.796,40.400 123.600 L 37.000 123.400 37.000 121.800 L 37.000 120.200 40.000 120.000 C 42.667 119.822,43.000 119.711,43.000 119.000 C 43.000 118.289,42.667 118.178,40.000 118.000 L 37.000 117.800 37.000 116.400 L 37.000 115.000 40.200 114.800 C 43.143 114.616,43.410 114.528,43.528 113.700 C 43.654 112.811,43.598 112.800,39.028 112.800 L 34.400 112.800 34.400 119.200 M54.800 119.200 L 54.800 125.600 58.753 125.600 C 63.337 125.600,64.651 124.789,65.609 121.367 C 67.098 116.048,64.343 112.800,58.341 112.800 L 54.800 112.800 54.800 119.200 M70.000 119.200 L 70.000 125.600 71.200 125.600 L 72.400 125.600 72.400 119.200 L 72.400 112.800 71.200 112.800 L 70.000 112.800 70.000 119.200 M122.461 118.189 C 122.641 125.165,124.516 127.222,129.483 125.893 C 132.640 125.049,132.979 124.331,133.139 118.168 L 133.278 112.800 132.039 112.800 L 130.800 112.800 130.800 117.181 C 130.800 122.071,130.451 123.254,128.831 123.866 C 125.978 124.943,124.800 123.002,124.800 117.226 L 124.800 112.800 123.561 112.800 L 122.322 112.800 122.461 118.189 M138.000 119.200 L 138.000 125.600 139.200 125.600 L 140.400 125.600 140.400 121.824 C 140.400 118.235,140.875 116.676,141.481 118.275 C 141.632 118.674,142.620 120.328,143.678 121.951 C 144.735 123.575,145.600 125.060,145.600 125.251 C 145.600 125.443,146.230 125.600,147.000 125.600 L 148.400 125.600 148.400 119.200 L 148.400 112.800 147.400 112.800 C 146.406 112.800,146.400 112.822,146.394 116.500 C 146.386 121.426,146.093 121.773,144.267 119.022 C 143.460 117.806,142.800 116.707,142.800 116.578 C 142.800 115.479,140.234 112.800,139.181 112.800 L 138.000 112.800 138.000 119.200 M152.400 113.766 C 152.400 114.663,152.578 114.768,154.300 114.878 L 156.200 115.000 156.312 120.300 L 156.423 125.600 157.600 125.600 L 158.777 125.600 158.888 120.300 L 159.000 115.000 160.800 114.800 C 162.267 114.637,162.600 114.452,162.600 113.800 C 162.600 113.048,162.296 112.993,157.500 112.888 L 152.400 112.776 152.400 113.766 M186.800 119.200 L 186.800 125.600 188.000 125.600 C 189.137 125.600,189.200 125.514,189.200 123.974 C 189.200 121.280,189.676 120.800,192.344 120.800 C 195.441 120.800,196.600 119.692,196.600 116.733 C 196.600 113.556,195.442 112.800,190.578 112.800 L 186.800 112.800 186.800 119.200 M200.800 119.200 L 200.800 125.600 205.600 125.600 L 210.400 125.600 210.400 124.616 C 210.400 123.653,210.321 123.629,206.900 123.516 L 203.400 123.400 203.400 121.800 L 203.400 120.200 206.500 120.083 C 209.479 119.971,209.600 119.929,209.600 119.000 C 209.600 118.071,209.479 118.029,206.500 117.917 L 203.400 117.800 203.400 116.400 L 203.400 115.000 206.800 114.800 C 209.951 114.615,210.209 114.534,210.328 113.700 C 210.454 112.809,210.406 112.800,205.628 112.800 L 200.800 112.800 200.800 119.200 M230.000 119.200 L 230.000 125.600 231.200 125.600 L 232.400 125.600 232.400 119.200 L 232.400 112.800 231.200 112.800 L 230.000 112.800 230.000 119.200 M240.498 113.262 C 240.224 113.536,240.000 113.992,240.000 114.276 C 240.000 114.709,238.923 117.731,237.604 121.000 C 237.302 121.746,236.777 123.260,236.250 124.900 C 235.809 126.272,238.220 125.799,238.800 124.400 C 239.073 123.740,239.410 123.177,239.549 123.148 C 242.118 122.621,244.800 123.025,244.800 123.938 C 244.800 124.907,245.584 125.600,246.680 125.600 C 247.675 125.600,247.917 124.587,247.232 123.295 C 247.030 122.913,246.507 121.610,246.070 120.400 C 243.279 112.663,242.322 111.438,240.498 113.262 M251.600 119.200 L 251.600 125.600 255.800 125.600 C 259.993 125.600,260.000 125.598,260.000 124.618 C 260.000 123.675,259.881 123.630,257.100 123.518 L 254.200 123.400 254.088 118.100 L 253.977 112.800 252.788 112.800 L 251.600 112.800 251.600 119.200 M264.400 119.200 L 264.400 125.600 265.600 125.600 L 266.800 125.600 266.800 119.200 L 266.800 112.800 265.600 112.800 L 264.400 112.800 264.400 119.200 M284.072 113.700 C 284.176 114.434,284.493 114.624,285.795 114.730 C 287.930 114.904,287.987 115.058,287.994 120.700 L 288.000 125.600 289.200 125.600 L 290.400 125.600 290.400 120.222 L 290.400 114.844 292.300 114.722 C 293.921 114.618,294.219 114.468,294.328 113.700 C 294.455 112.806,294.422 112.800,289.200 112.800 C 283.978 112.800,283.945 112.806,284.072 113.700 M62.031 115.969 C 64.844 118.782,63.066 123.761,59.333 123.523 L 57.400 123.400 57.284 119.630 C 57.139 114.919,57.187 114.800,59.218 114.800 C 60.501 114.800,61.118 115.056,62.031 115.969 M114.271 115.500 C 116.991 117.900,115.711 123.308,112.291 123.863 C 109.013 124.395,107.086 119.561,109.196 116.100 C 110.139 114.552,112.836 114.234,114.271 115.500 M193.920 115.280 C 195.547 116.907,194.051 118.897,191.331 118.723 C 189.346 118.597,188.604 117.331,189.359 115.362 C 189.631 114.655,193.230 114.590,193.920 115.280 M242.720 117.728 C 243.597 120.154,243.376 121.200,241.987 121.200 C 240.401 121.200,240.137 120.405,240.984 118.185 C 241.800 116.051,242.086 115.975,242.720 117.728"/>
    <path fill="#6f6f6f" d="M165.637 2.117 C 164.887 2.356,163.610 3.193,162.797 3.976 C 155.091 11.407,165.692 22.653,173.732 15.576 C 180.154 9.923,173.877 -0.514,165.637 2.117 M171.800 3.153 C 179.268 7.823,175.366 18.410,166.700 16.992 C 159.824 15.868,158.690 5.798,165.119 2.945 C 166.850 2.176,170.416 2.288,171.800 3.153 M161.467 23.067 C 161.320 23.213,161.200 25.909,161.200 29.057 L 161.200 34.780 154.933 34.890 C 151.211 34.955,148.612 35.162,148.532 35.400 C 148.446 35.659,150.725 35.758,154.999 35.681 L 161.600 35.563 161.600 29.581 L 161.600 23.600 168.189 23.600 L 174.779 23.600 174.889 29.500 L 175.000 35.400 180.400 35.497 C 188.436 35.643,187.640 34.880,187.510 42.310 L 187.400 48.600 181.200 48.800 L 175.000 49.000 174.800 55.200 L 174.600 61.400 168.200 61.400 L 161.800 61.400 161.690 55.119 L 161.580 48.837 154.989 48.719 C 151.365 48.653,148.399 48.735,148.399 48.900 C 148.400 49.065,150.995 49.200,154.167 49.200 C 161.909 49.200,161.200 48.534,161.200 55.800 C 161.200 63.017,160.453 62.308,168.133 62.377 C 176.086 62.448,175.555 62.932,175.690 55.491 L 175.800 49.400 181.900 49.290 L 188.000 49.179 188.000 42.236 C 188.000 34.022,188.756 34.814,180.900 34.805 L 175.600 34.800 175.600 29.280 C 175.600 25.520,175.447 23.607,175.120 23.280 C 174.603 22.763,161.968 22.565,161.467 23.067 M178.531 95.078 C 175.512 95.666,173.381 100.068,174.747 102.891 C 177.667 108.923,188.000 107.112,188.000 100.569 C 188.000 96.346,183.983 94.016,178.531 95.078 M313.001 95.430 C 310.289 96.844,309.000 98.893,309.320 101.280 C 310.321 108.741,323.192 108.102,323.199 100.591 C 323.202 96.418,317.064 93.312,313.001 95.430 M184.781 96.190 C 188.683 98.208,188.289 103.672,184.113 105.452 C 177.385 108.318,171.423 100.680,177.089 96.454 C 178.470 95.424,182.999 95.268,184.781 96.190 M320.188 96.500 C 324.756 99.485,322.610 105.502,316.829 105.920 C 310.250 106.396,307.215 99.357,312.606 96.124 C 314.056 95.253,318.628 95.480,320.188 96.500 M80.000 112.060 C 77.584 112.712,76.716 113.652,76.508 115.842 C 76.246 118.611,77.197 119.544,81.600 120.838 C 84.253 121.617,84.673 122.432,82.895 123.351 C 81.567 124.038,79.831 123.358,79.393 121.979 C 78.969 120.643,76.244 121.025,76.079 122.444 C 75.632 126.298,83.779 128.241,86.403 124.905 C 88.667 122.027,87.121 118.885,82.793 117.570 C 80.688 116.931,80.000 116.545,80.000 116.004 C 80.000 114.537,82.065 114.408,83.275 115.800 C 85.043 117.833,87.633 117.009,86.675 114.718 C 86.149 113.461,85.626 113.073,83.081 112.050 C 81.825 111.545,81.913 111.544,80.000 112.060 M94.800 112.075 C 92.413 113.080,91.972 113.403,91.013 114.852 C 89.802 116.682,89.582 121.039,90.597 123.074 C 93.007 127.905,100.158 127.824,102.198 122.942 C 103.323 120.250,100.335 119.019,98.989 121.621 C 97.782 123.956,95.094 123.935,93.901 121.580 C 93.349 120.492,93.201 120.381,93.201 121.056 C 93.199 122.611,94.542 123.782,96.325 123.782 C 97.985 123.782,99.600 122.774,99.600 121.738 C 99.600 121.403,100.068 121.200,100.843 121.200 C 101.812 121.200,102.032 121.339,101.843 121.833 C 101.709 122.181,101.600 122.676,101.600 122.933 C 101.597 125.675,95.226 127.019,92.622 124.827 C 89.624 122.302,89.777 115.534,92.877 113.524 C 95.993 111.503,100.967 112.842,101.707 115.900 C 102.024 117.209,100.180 117.137,99.129 115.800 C 97.454 113.671,93.157 115.000,93.225 117.626 L 93.251 118.600 93.646 117.608 C 94.674 115.033,97.373 114.272,98.637 116.200 C 99.844 118.043,103.104 117.562,102.296 115.660 C 101.029 112.678,97.442 110.963,94.800 112.075 M110.282 112.085 C 104.198 113.699,103.443 123.318,109.186 126.039 C 116.000 129.267,122.007 120.023,116.979 114.048 C 116.163 113.078,112.888 111.486,112.029 111.641 C 111.903 111.664,111.117 111.864,110.282 112.085 M175.664 112.145 C 173.497 112.929,172.400 114.248,172.400 116.068 C 172.400 118.834,173.168 119.521,177.800 120.897 C 179.246 121.327,179.834 121.715,179.921 122.297 C 180.181 124.022,176.056 123.918,175.264 122.180 C 174.239 119.932,171.220 121.150,172.188 123.421 C 174.712 129.343,185.203 126.670,183.205 120.614 C 182.679 119.021,181.752 118.415,178.302 117.412 C 175.700 116.656,175.155 116.115,176.215 115.339 C 177.318 114.533,178.258 114.682,179.325 115.832 C 180.625 117.234,182.544 117.082,182.721 115.562 C 183.004 113.124,178.706 111.043,175.664 112.145 M218.258 112.162 C 210.581 114.541,213.024 127.890,220.906 126.630 C 225.260 125.933,228.520 120.400,224.576 120.400 C 223.440 120.400,223.137 120.611,222.573 121.800 C 220.972 125.174,217.417 123.454,217.407 119.301 C 217.397 115.493,220.322 113.650,222.329 116.200 C 223.117 117.203,225.676 117.648,226.159 116.866 C 226.514 116.292,224.821 113.343,223.889 112.911 C 220.765 111.464,220.586 111.440,218.258 112.162 M273.845 112.175 C 268.646 113.752,269.332 118.722,275.001 120.557 C 278.082 121.553,278.850 122.620,277.073 123.432 C 275.874 123.981,274.466 123.488,273.390 122.142 C 272.321 120.807,270.268 120.919,270.069 122.322 C 269.687 125.021,273.988 127.392,277.557 126.448 C 283.260 124.940,282.887 118.883,277.010 117.567 C 274.639 117.037,273.768 116.380,274.143 115.405 C 274.507 114.456,276.267 114.692,277.323 115.830 C 279.456 118.131,282.037 116.558,280.314 114.007 C 279.081 112.183,276.361 111.413,273.845 112.175 M300.464 112.145 C 298.297 112.929,297.200 114.248,297.200 116.068 C 297.200 118.805,297.977 119.517,302.400 120.831 C 305.054 121.620,305.471 122.432,303.695 123.351 C 302.409 124.016,300.754 123.408,299.996 121.992 C 299.259 120.615,296.800 120.887,296.800 122.346 C 296.800 126.829,304.810 128.373,307.500 124.408 C 309.600 121.312,308.280 119.053,303.500 117.563 C 301.453 116.926,300.800 116.545,300.800 115.988 C 300.800 114.498,303.612 114.529,304.414 116.027 C 305.130 117.364,307.600 117.102,307.600 115.689 C 307.600 114.014,306.640 112.971,304.437 112.250 C 302.153 111.503,302.231 111.505,300.464 112.145 M4.475 113.700 C 4.587 114.864,4.746 115.014,5.998 115.133 C 8.310 115.352,8.400 115.581,8.400 121.273 L 8.400 126.448 9.900 126.324 L 11.400 126.200 11.498 121.600 C 11.633 115.299,11.642 115.272,13.702 115.123 C 15.295 115.008,15.408 114.920,15.525 113.700 L 15.651 112.400 10.000 112.400 L 4.349 112.400 4.475 113.700 M18.490 119.277 L 18.600 126.200 19.958 126.330 C 21.696 126.496,21.986 126.007,21.994 122.900 L 22.000 120.400 24.182 120.400 L 26.365 120.400 26.482 123.300 L 26.600 126.200 28.200 126.200 L 29.800 126.200 29.800 119.400 L 29.800 112.600 28.100 112.477 L 26.400 112.354 26.400 114.777 L 26.400 117.200 24.220 117.200 L 22.040 117.200 21.920 114.900 L 21.800 112.600 20.090 112.477 L 18.381 112.353 18.490 119.277 M33.691 119.300 L 33.800 126.200 39.000 126.200 L 44.200 126.200 44.200 124.800 L 44.200 123.400 40.900 123.284 L 37.600 123.168 37.600 121.784 L 37.600 120.400 40.625 120.400 L 43.651 120.400 43.525 119.100 L 43.400 117.800 40.500 117.682 L 37.600 117.565 37.600 116.382 L 37.600 115.200 40.792 115.200 C 43.844 115.200,43.996 115.157,44.230 114.223 C 44.653 112.539,44.237 112.400,38.767 112.400 L 33.581 112.400 33.691 119.300 M54.400 119.400 L 54.400 126.400 57.792 126.400 C 63.502 126.400,65.818 124.744,66.269 120.339 C 66.853 114.643,64.660 112.400,58.509 112.400 L 54.400 112.400 54.400 119.400 M69.690 119.277 L 69.800 126.200 71.400 126.200 L 73.000 126.200 73.000 119.400 L 73.000 112.600 71.290 112.477 L 69.581 112.353 69.690 119.277 M84.745 113.324 C 85.264 113.576,85.851 114.207,86.048 114.725 C 86.766 116.614,85.403 116.979,83.527 115.400 C 82.210 114.292,80.926 114.127,79.833 114.926 C 78.394 115.978,79.220 116.937,82.518 118.042 C 88.191 119.944,88.654 124.599,83.299 125.902 C 80.381 126.612,76.400 124.694,76.400 122.578 C 76.400 121.698,78.825 121.810,79.058 122.700 C 79.503 124.403,82.234 124.816,83.751 123.410 C 85.121 122.141,84.588 121.092,82.229 120.410 C 77.610 119.074,76.313 117.687,77.193 115.022 C 77.967 112.677,81.691 111.840,84.745 113.324 M115.600 113.359 C 117.971 114.382,118.938 120.731,117.120 123.338 C 114.531 127.050,108.972 126.978,106.851 123.205 C 103.301 116.889,108.977 110.501,115.600 113.359 M122.001 117.677 C 122.003 124.755,123.303 126.800,127.800 126.800 C 132.297 126.800,133.597 124.755,133.599 117.677 L 133.600 112.354 131.900 112.477 L 130.200 112.600 130.000 117.668 C 129.778 123.285,129.795 123.237,128.022 123.287 C 126.040 123.343,125.818 122.812,125.600 117.482 L 125.400 112.600 123.700 112.477 L 122.000 112.354 122.001 117.677 M137.467 112.667 C 137.320 112.813,137.200 115.659,137.200 118.990 C 137.200 125.771,137.439 126.560,139.420 126.334 L 140.600 126.200 140.800 122.234 C 140.992 118.425,141.023 118.314,141.588 119.434 C 141.911 120.075,142.676 121.352,143.288 122.272 C 143.899 123.192,144.400 124.103,144.400 124.297 C 144.400 125.108,146.100 126.400,147.167 126.400 C 149.086 126.400,149.230 125.846,149.110 118.946 L 149.000 112.600 147.500 112.476 L 146.000 112.352 146.000 116.256 C 146.000 118.875,145.868 120.028,145.597 119.757 C 145.010 119.170,141.600 113.580,141.600 113.205 C 141.600 112.499,138.092 112.042,137.467 112.667 M152.075 113.700 C 152.189 114.889,152.336 115.017,153.800 115.200 L 155.400 115.400 155.498 120.000 C 155.634 126.328,155.681 126.475,157.513 126.323 L 159.000 126.200 159.098 121.600 C 159.233 115.299,159.242 115.272,161.302 115.123 C 162.895 115.008,163.008 114.920,163.125 113.700 L 163.251 112.400 157.600 112.400 L 151.949 112.400 152.075 113.700 M180.656 113.273 C 181.127 113.501,181.733 114.101,182.003 114.606 C 183.000 116.469,181.152 117.099,179.675 115.400 C 178.312 113.833,175.200 114.264,175.200 116.021 C 175.200 116.861,176.362 117.503,179.600 118.449 C 184.096 119.764,183.873 124.972,179.283 125.868 C 175.881 126.532,172.400 124.791,172.400 122.426 C 172.400 121.563,174.353 122.035,175.600 123.200 C 177.038 124.543,178.184 124.707,179.534 123.761 C 181.084 122.676,180.569 121.188,178.400 120.487 C 173.384 118.866,172.340 117.886,172.968 115.387 C 173.606 112.845,177.542 111.762,180.656 113.273 M186.400 119.400 L 186.400 126.400 187.957 126.400 C 189.733 126.400,190.000 126.011,190.000 123.424 L 190.000 121.714 192.395 121.464 C 196.350 121.050,198.272 118.647,197.213 115.439 C 196.375 112.899,195.280 112.400,190.546 112.400 L 186.400 112.400 186.400 119.400 M200.491 119.300 L 200.600 126.200 205.600 126.200 L 210.600 126.200 210.600 124.800 L 210.600 123.400 207.276 123.283 L 203.952 123.167 204.076 121.883 L 204.200 120.600 207.200 120.400 L 210.200 120.200 210.200 119.000 L 210.200 117.800 207.200 117.600 C 204.320 117.408,204.200 117.360,204.200 116.400 C 204.200 115.433,204.307 115.393,207.400 115.200 L 210.600 115.000 210.725 113.700 L 210.851 112.400 205.616 112.400 L 200.381 112.400 200.491 119.300 M223.482 113.289 C 224.227 113.650,225.600 115.770,225.600 116.560 C 225.600 117.261,223.425 116.685,222.729 115.800 C 220.390 112.826,215.751 116.065,216.609 120.074 C 217.459 124.047,221.482 125.523,222.876 122.373 C 223.678 120.562,225.787 120.639,225.386 122.464 C 224.224 127.755,215.854 126.999,214.364 121.468 C 212.696 115.271,217.911 110.593,223.482 113.289 M229.690 119.277 L 229.800 126.200 231.400 126.200 L 233.000 126.200 233.000 119.400 L 233.000 112.600 231.290 112.477 L 229.581 112.353 229.690 119.277 M239.265 114.900 C 238.753 116.275,237.972 118.390,237.529 119.600 C 237.087 120.810,236.401 122.631,236.006 123.648 C 234.826 126.683,237.859 127.883,239.172 124.900 C 239.886 123.278,244.400 122.822,244.400 124.371 C 244.400 125.558,245.509 126.400,247.073 126.400 L 248.489 126.400 248.209 124.900 C 248.055 124.075,247.802 123.220,247.648 123.000 C 247.493 122.780,247.136 121.880,246.855 121.000 C 244.462 113.521,243.813 112.400,241.879 112.400 L 240.196 112.400 239.265 114.900 M251.085 112.648 C 250.507 113.227,250.757 125.466,251.358 125.965 C 251.725 126.270,253.399 126.389,256.258 126.314 L 260.600 126.200 260.600 124.800 L 260.600 123.400 257.711 123.283 L 254.823 123.165 254.711 117.883 L 254.600 112.600 252.985 112.481 C 252.098 112.416,251.243 112.491,251.085 112.648 M263.867 112.667 C 263.477 113.056,263.552 125.305,263.948 125.930 C 264.150 126.248,264.825 126.408,265.642 126.330 L 267.000 126.200 267.109 119.300 L 267.219 112.400 265.676 112.400 C 264.828 112.400,264.013 112.520,263.867 112.667 M279.200 113.583 C 280.391 114.421,280.563 116.119,279.477 116.328 C 279.077 116.405,278.326 116.006,277.796 115.434 C 276.336 113.858,273.200 114.234,273.200 115.985 C 273.200 116.771,275.159 118.000,276.413 118.000 C 279.064 118.000,281.542 120.698,280.973 122.965 C 280.172 126.158,273.817 127.123,271.542 124.398 C 269.439 121.879,271.292 120.831,273.662 123.200 C 275.564 125.102,278.548 124.512,278.320 122.279 C 278.198 121.082,277.180 120.459,274.319 119.831 C 271.342 119.178,270.071 115.854,272.009 113.790 C 273.385 112.326,277.254 112.215,279.200 113.583 M283.393 112.812 C 282.622 114.059,283.584 115.200,285.408 115.200 L 287.200 115.200 287.206 120.300 C 287.213 126.108,287.349 126.510,289.242 126.330 L 290.600 126.200 290.713 121.225 C 290.838 115.723,291.006 115.299,293.130 115.122 C 294.469 115.011,294.600 114.893,294.600 113.800 L 294.600 112.600 289.130 112.489 C 285.517 112.416,283.570 112.525,283.393 112.812 M304.442 112.795 C 305.386 112.803,307.200 114.634,307.200 115.581 C 307.200 116.721,305.970 116.635,304.638 115.400 C 303.403 114.256,301.571 114.086,300.629 115.029 C 299.493 116.165,300.295 117.354,302.496 117.797 C 306.165 118.536,307.600 119.775,307.600 122.207 C 307.600 126.931,298.797 127.530,297.415 122.900 C 297.006 121.531,298.807 121.712,300.400 123.200 C 301.962 124.659,303.139 124.719,304.551 123.410 C 305.918 122.143,305.392 121.101,303.029 120.394 C 298.713 119.104,297.600 118.240,297.600 116.179 C 297.600 113.899,300.241 112.174,303.000 112.651 C 303.440 112.727,304.089 112.792,304.442 112.795 M15.128 113.700 C 15.022 114.444,14.688 114.635,13.200 114.800 L 11.400 115.000 11.288 120.300 L 11.177 125.600 10.000 125.600 L 8.823 125.600 8.712 120.300 L 8.600 115.000 6.800 114.800 C 5.312 114.635,4.978 114.444,4.872 113.700 C 4.745 112.806,4.778 112.800,10.000 112.800 C 15.222 112.800,15.255 112.806,15.128 113.700 M21.205 114.500 C 21.216 117.854,21.386 118.051,24.151 117.918 L 26.600 117.800 26.719 115.300 C 26.837 112.825,26.850 112.800,28.019 112.800 L 29.200 112.800 29.200 119.200 L 29.200 125.600 28.018 125.600 C 26.838 125.600,26.836 125.597,26.718 122.900 L 26.600 120.200 24.237 120.078 C 21.416 119.933,21.215 120.147,21.206 123.300 C 21.200 125.588,21.193 125.600,20.000 125.600 L 18.800 125.600 18.800 119.200 L 18.800 112.800 20.000 112.800 C 21.144 112.800,21.200 112.879,21.205 114.500 M43.528 113.700 C 43.410 114.528,43.143 114.616,40.200 114.800 L 37.000 115.000 37.000 116.400 L 37.000 117.800 40.000 118.000 C 42.667 118.178,43.000 118.289,43.000 119.000 C 43.000 119.711,42.667 119.822,40.000 120.000 L 37.000 120.200 37.000 121.800 L 37.000 123.400 40.400 123.600 C 43.739 123.796,43.862 123.857,43.660 125.200 C 43.624 125.440,41.760 125.600,39.000 125.600 L 34.400 125.600 34.400 119.200 L 34.400 112.800 39.028 112.800 C 43.598 112.800,43.654 112.811,43.528 113.700 M63.241 113.715 C 66.513 115.918,66.855 121.356,63.909 124.368 C 62.725 125.580,62.640 125.600,58.753 125.600 L 54.800 125.600 54.800 119.200 L 54.800 112.800 58.341 112.800 C 61.367 112.800,62.079 112.933,63.241 113.715 M72.400 119.200 L 72.400 125.600 71.200 125.600 L 70.000 125.600 70.000 119.200 L 70.000 112.800 71.200 112.800 L 72.400 112.800 72.400 119.200 M124.800 117.226 C 124.800 123.002,125.978 124.943,128.831 123.866 C 130.451 123.254,130.800 122.071,130.800 117.181 L 130.800 112.800 132.039 112.800 L 133.278 112.800 133.139 118.168 C 132.979 124.331,132.640 125.049,129.483 125.893 C 124.516 127.222,122.641 125.165,122.461 118.189 L 122.322 112.800 123.561 112.800 L 124.800 112.800 124.800 117.226 M141.581 114.572 C 142.251 115.547,142.800 116.449,142.800 116.578 C 142.800 116.707,143.460 117.806,144.267 119.022 C 146.093 121.773,146.386 121.426,146.394 116.500 C 146.400 112.822,146.406 112.800,147.400 112.800 L 148.400 112.800 148.400 119.200 L 148.400 125.600 147.000 125.600 C 146.230 125.600,145.600 125.443,145.600 125.251 C 145.600 125.060,144.735 123.575,143.678 121.951 C 142.620 120.328,141.632 118.674,141.481 118.275 C 140.875 116.676,140.400 118.235,140.400 121.824 L 140.400 125.600 139.200 125.600 L 138.000 125.600 138.000 119.200 L 138.000 112.800 139.181 112.800 C 140.127 112.800,140.603 113.152,141.581 114.572 M162.600 113.800 C 162.600 114.452,162.267 114.637,160.800 114.800 L 159.000 115.000 158.888 120.300 L 158.777 125.600 157.600 125.600 L 156.423 125.600 156.312 120.300 L 156.200 115.000 154.300 114.878 C 152.578 114.768,152.400 114.663,152.400 113.766 L 152.400 112.776 157.500 112.888 C 162.296 112.993,162.600 113.048,162.600 113.800 M195.478 113.765 C 198.430 116.305,196.428 120.800,192.344 120.800 C 189.676 120.800,189.200 121.280,189.200 123.974 C 189.200 125.514,189.137 125.600,188.000 125.600 L 186.800 125.600 186.800 119.200 L 186.800 112.800 190.578 112.800 C 193.994 112.800,194.463 112.892,195.478 113.765 M210.328 113.700 C 210.209 114.534,209.951 114.615,206.800 114.800 L 203.400 115.000 203.400 116.400 L 203.400 117.800 206.500 117.917 C 209.479 118.029,209.600 118.071,209.600 119.000 C 209.600 119.929,209.479 119.971,206.500 120.083 L 203.400 120.200 203.400 121.800 L 203.400 123.400 206.900 123.516 C 210.321 123.629,210.400 123.653,210.400 124.616 L 210.400 125.600 205.600 125.600 L 200.800 125.600 200.800 119.200 L 200.800 112.800 205.628 112.800 C 210.406 112.800,210.454 112.809,210.328 113.700 M232.400 119.200 L 232.400 125.600 231.200 125.600 L 230.000 125.600 230.000 119.200 L 230.000 112.800 231.200 112.800 L 232.400 112.800 232.400 119.200 M244.283 115.600 C 244.830 117.030,245.634 119.190,246.070 120.400 C 246.507 121.610,247.030 122.913,247.232 123.295 C 247.917 124.587,247.675 125.600,246.680 125.600 C 245.584 125.600,244.800 124.907,244.800 123.938 C 244.800 123.025,242.118 122.621,239.549 123.148 C 239.410 123.177,239.073 123.740,238.800 124.400 C 238.220 125.799,235.809 126.272,236.250 124.900 C 236.777 123.260,237.302 121.746,237.604 121.000 C 238.923 117.731,240.000 114.709,240.000 114.276 C 240.000 111.526,243.092 112.481,244.283 115.600 M254.088 118.100 L 254.200 123.400 257.100 123.518 C 259.881 123.630,260.000 123.675,260.000 124.618 C 260.000 125.598,259.993 125.600,255.800 125.600 L 251.600 125.600 251.600 119.200 L 251.600 112.800 252.788 112.800 L 253.977 112.800 254.088 118.100 M266.800 119.200 L 266.800 125.600 265.600 125.600 L 264.400 125.600 264.400 119.200 L 264.400 112.800 265.600 112.800 L 266.800 112.800 266.800 119.200 M294.328 113.700 C 294.219 114.468,293.921 114.618,292.300 114.722 L 290.400 114.844 290.400 120.222 L 290.400 125.600 289.200 125.600 L 288.000 125.600 287.994 120.700 C 287.987 115.058,287.930 114.904,285.795 114.730 C 284.493 114.624,284.176 114.434,284.072 113.700 C 283.945 112.806,283.978 112.800,289.200 112.800 C 294.422 112.800,294.455 112.806,294.328 113.700 M57.372 115.330 C 57.260 115.622,57.220 117.557,57.284 119.630 L 57.400 123.400 59.333 123.523 C 63.066 123.761,64.844 118.782,62.031 115.969 C 60.746 114.685,57.776 114.277,57.372 115.330 M109.196 116.100 C 107.086 119.561,109.013 124.395,112.291 123.863 C 117.270 123.055,116.762 114.800,111.733 114.800 C 110.194 114.800,109.895 114.953,109.196 116.100 M189.359 115.362 C 188.604 117.331,189.346 118.597,191.331 118.723 C 194.051 118.897,195.547 116.907,193.920 115.280 C 193.230 114.590,189.631 114.655,189.359 115.362 M61.898 116.720 C 64.031 119.285,62.433 123.200,59.253 123.200 L 57.600 123.200 57.600 119.467 C 57.600 117.413,57.732 115.601,57.894 115.440 C 58.488 114.846,61.010 115.652,61.898 116.720 M113.969 115.973 C 115.041 116.903,115.301 120.517,114.414 122.174 C 112.958 124.894,108.805 122.752,108.801 119.280 C 108.798 115.855,111.695 114.001,113.969 115.973 M193.300 115.757 C 194.824 116.914,193.823 118.400,191.520 118.400 C 190.013 118.400,190.000 118.386,190.000 116.800 C 190.000 115.043,191.666 114.517,193.300 115.757 M240.984 118.185 C 240.137 120.405,240.401 121.200,241.987 121.200 C 243.376 121.200,243.597 120.154,242.720 117.728 C 242.086 115.975,241.800 116.051,240.984 118.185 M242.405 118.100 C 242.408 118.375,242.519 119.005,242.652 119.500 C 242.842 120.208,242.727 120.400,242.113 120.400 C 240.980 120.400,240.833 120.095,241.331 118.777 C 241.783 117.579,242.396 117.193,242.405 118.100"/>
    <path fill="#fff" d="M0.000 64.400 L 0.000 128.800 200.000 128.800 L 400.000 128.800 400.000 64.400 L 400.000 0.000 200.000 0.000 L 0.000 0.000 0.000 64.400 M171.113 2.221 C 176.745 4.574,178.141 11.695,173.732 15.576 C 165.692 22.653,155.091 11.407,162.797 3.976 C 165.142 1.715,168.304 1.048,171.113 2.221 M175.120 23.280 C 175.447 23.607,175.600 25.520,175.600 29.280 L 175.600 34.800 180.900 34.805 C 188.756 34.814,188.000 34.022,188.000 42.236 L 188.000 49.179 181.900 49.290 L 175.800 49.400 175.690 55.491 C 175.555 62.932,176.086 62.448,168.133 62.377 C 160.453 62.308,161.200 63.017,161.200 55.800 C 161.200 48.534,161.911 49.200,154.158 49.200 L 148.382 49.200 148.491 42.100 L 148.600 35.000 154.900 34.890 L 161.200 34.780 161.200 29.057 C 161.200 25.909,161.320 23.213,161.467 23.067 C 161.968 22.565,174.603 22.763,175.120 23.280 M27.400 29.532 L 29.400 30.200 29.511 35.982 C 29.642 42.773,29.545 43.259,28.290 42.095 C 23.790 37.921,16.000 40.676,16.000 46.441 C 16.000 52.171,21.057 54.714,26.839 51.893 C 30.246 50.230,30.097 49.976,29.783 56.900 C 29.470 63.794,29.661 63.303,27.000 64.022 C 14.794 67.320,3.200 58.984,3.200 46.909 C 3.200 34.239,15.357 25.510,27.400 29.532 M216.600 30.210 C 220.204 31.669,220.164 31.562,218.519 35.361 C 217.747 37.142,217.024 39.005,216.911 39.500 C 216.664 40.588,215.586 40.672,214.128 39.716 C 211.400 37.928,206.620 37.958,206.882 39.761 C 207.007 40.622,208.046 41.102,213.505 42.816 C 223.220 45.867,222.776 58.767,212.800 63.316 C 208.055 65.479,198.614 64.698,193.582 61.726 C 191.969 60.773,192.018 60.526,195.374 52.687 L 196.022 51.173 198.511 52.564 C 202.665 54.884,206.352 55.234,207.065 53.375 C 207.452 52.366,206.402 51.667,203.257 50.842 C 195.577 48.825,192.772 44.785,194.385 38.060 C 196.304 30.063,206.946 26.302,216.600 30.210 M47.370 30.265 C 47.510 30.631,47.507 31.971,47.363 33.242 C 47.220 34.514,47.228 36.734,47.383 38.177 L 47.664 40.800 50.599 40.800 C 55.050 40.800,54.800 41.149,54.800 34.947 L 54.800 29.580 61.100 29.690 L 67.400 29.800 67.400 46.600 L 67.400 63.400 61.111 63.510 L 54.822 63.620 54.711 57.910 L 54.600 52.200 51.018 52.200 L 47.436 52.200 47.398 55.000 C 47.376 56.540,47.323 59.110,47.279 60.710 L 47.200 63.621 41.100 63.510 L 35.000 63.400 34.895 47.000 C 34.838 37.981,34.877 30.376,34.983 30.100 C 35.311 29.244,47.038 29.400,47.370 30.265 M96.600 34.200 L 96.600 38.600 91.277 38.712 L 85.953 38.824 86.077 40.312 L 86.200 41.800 90.913 41.913 L 95.626 42.026 95.513 46.513 L 95.400 51.000 90.677 51.113 L 85.953 51.226 86.077 52.713 L 86.200 54.200 91.500 54.312 L 96.800 54.423 96.800 59.012 L 96.800 63.600 85.200 63.600 L 73.600 63.600 73.600 46.594 L 73.600 29.588 85.100 29.694 L 96.600 29.800 96.600 34.200 M118.180 31.900 C 118.530 33.165,119.179 35.460,119.623 37.000 C 120.682 40.680,121.122 42.302,121.522 44.000 C 122.004 46.053,122.473 45.433,123.488 41.400 C 123.987 39.420,124.559 37.350,124.760 36.800 C 124.962 36.250,125.536 34.405,126.036 32.700 L 126.947 29.600 133.413 29.600 L 139.879 29.600 140.769 35.100 C 141.968 42.503,143.528 52.372,144.042 55.800 C 144.272 57.340,144.627 59.355,144.831 60.277 C 145.617 63.849,145.996 63.635,139.100 63.510 L 133.000 63.400 132.750 61.200 C 132.613 59.990,132.287 56.963,132.025 54.474 C 131.442 48.927,130.986 46.406,130.709 47.200 C 130.593 47.530,129.453 51.355,128.174 55.700 L 125.848 63.600 122.022 63.600 L 118.195 63.600 117.737 62.100 C 117.485 61.275,116.316 57.386,115.140 53.457 L 113.000 46.315 112.561 49.457 C 112.320 51.186,111.881 55.075,111.587 58.100 L 111.052 63.600 104.875 63.600 L 98.698 63.600 98.945 62.100 C 99.505 58.706,102.410 41.633,102.790 39.500 C 103.269 36.814,103.872 33.228,104.203 31.100 L 104.436 29.600 110.990 29.600 L 117.543 29.600 118.180 31.900 M248.142 34.871 C 248.071 41.055,248.224 40.800,244.583 40.800 L 241.612 40.800 241.506 52.100 L 241.400 63.400 235.106 63.510 L 228.812 63.620 228.706 52.310 L 228.600 41.000 225.400 40.800 L 222.200 40.600 222.089 35.095 L 221.977 29.589 235.089 29.695 L 248.200 29.800 248.142 34.871 M147.597 71.555 L 149.400 72.224 149.510 78.312 C 149.634 85.132,149.638 85.125,146.993 83.302 C 139.982 78.469,131.740 87.340,137.701 93.301 L 139.281 94.881 142.370 94.741 C 144.950 94.623,145.739 94.414,147.165 93.471 C 149.456 91.954,150.088 92.245,149.823 94.693 C 149.710 95.742,149.507 98.520,149.372 100.866 L 149.128 105.132 147.189 105.766 C 140.173 108.060,131.233 105.487,126.699 99.869 C 118.728 89.992,124.062 73.674,136.055 71.243 C 137.235 71.003,138.560 70.728,139.000 70.631 C 140.467 70.308,145.772 70.878,147.597 71.555 M212.923 70.810 C 214.421 71.026,216.176 71.477,216.823 71.812 L 218.000 72.421 218.000 78.410 C 218.000 85.086,217.999 85.088,215.440 83.350 C 211.262 80.510,205.406 82.262,204.371 86.661 C 202.830 93.219,209.390 97.371,215.336 93.600 C 218.167 91.804,218.105 91.690,217.942 98.340 C 217.787 104.695,217.517 105.600,215.775 105.600 C 215.265 105.600,214.736 105.780,214.600 106.000 C 214.198 106.650,206.209 106.483,203.767 105.773 C 189.353 101.583,186.827 81.712,199.623 73.176 C 203.024 70.907,207.764 70.064,212.923 70.810 M246.000 71.286 C 255.204 74.074,260.642 83.690,258.236 92.925 C 252.995 113.049,222.873 110.112,222.074 89.400 C 221.576 76.466,233.442 67.482,246.000 71.286 M23.800 71.996 C 38.254 74.980,42.180 94.214,30.000 102.371 C 26.081 104.995,22.826 105.600,12.623 105.600 L 4.400 105.600 4.400 88.667 C 4.400 79.353,4.535 71.591,4.700 71.418 C 5.107 70.990,21.300 71.480,23.800 71.996 M55.104 88.500 L 55.209 105.600 49.047 105.600 C 43.966 105.600,42.846 105.496,42.658 105.006 C 42.364 104.240,42.375 73.294,42.669 72.090 C 42.890 71.187,42.938 71.180,48.946 71.290 L 55.000 71.400 55.104 88.500 M81.167 71.652 C 88.006 72.826,90.980 76.269,90.993 83.031 C 91.002 87.045,89.683 89.614,86.918 90.974 C 84.664 92.082,84.447 91.507,90.650 100.834 C 94.077 105.987,94.397 105.638,86.348 105.509 L 79.496 105.400 76.848 100.336 C 75.392 97.551,74.134 95.338,74.053 95.417 C 73.972 95.496,73.927 97.499,73.952 99.869 C 74.018 106.115,74.591 105.600,67.573 105.600 L 61.600 105.600 61.600 88.667 C 61.600 79.353,61.720 71.613,61.867 71.467 C 62.316 71.017,78.366 71.171,81.167 71.652 M118.917 72.300 C 119.016 72.905,119.075 75.020,119.048 77.000 L 119.000 80.600 113.705 80.712 L 108.409 80.823 108.154 81.841 C 107.765 83.389,108.242 83.563,113.206 83.686 L 117.800 83.800 117.913 88.300 L 118.026 92.800 113.221 92.800 L 108.415 92.800 108.149 93.862 C 107.624 95.952,108.188 96.189,113.956 96.312 L 119.226 96.423 119.113 100.912 L 119.000 105.400 107.500 105.506 L 96.000 105.612 96.000 88.673 C 96.000 79.356,96.120 71.613,96.267 71.467 C 96.413 71.320,101.529 71.200,107.635 71.200 L 118.736 71.200 118.917 72.300 M178.311 76.880 L 178.422 82.360 176.986 82.629 C 176.196 82.777,174.762 82.810,173.798 82.701 C 171.489 82.441,171.600 81.838,171.600 94.633 L 171.600 105.600 165.406 105.600 L 159.212 105.600 159.106 94.300 L 159.000 83.000 155.700 82.884 L 152.400 82.768 152.400 76.978 L 152.400 71.189 165.300 71.294 L 178.200 71.400 178.311 76.880 M279.929 73.400 C 280.241 74.500,280.640 75.760,280.815 76.200 C 280.990 76.640,281.216 77.360,281.316 77.800 C 281.417 78.240,281.957 80.310,282.516 82.400 C 283.075 84.490,283.606 86.650,283.695 87.200 L 283.857 88.200 284.358 87.000 C 284.634 86.340,285.008 85.080,285.189 84.200 C 285.633 82.050,288.403 72.781,288.868 71.890 C 289.203 71.248,289.844 71.190,295.519 71.290 L 301.800 71.400 302.485 75.400 C 302.861 77.600,303.341 80.570,303.550 82.000 C 304.036 85.317,305.507 94.674,306.034 97.800 C 306.752 102.052,307.101 104.992,306.925 105.300 C 306.537 105.977,295.302 105.642,295.034 104.945 C 294.792 104.313,294.300 100.236,293.630 93.288 C 293.054 87.323,293.066 87.300,288.872 101.900 L 287.809 105.600 284.153 105.600 C 280.289 105.600,279.886 105.427,279.492 103.600 C 279.373 103.050,278.702 100.710,278.001 98.400 C 277.299 96.090,276.417 93.077,276.039 91.703 C 275.308 89.040,274.396 88.860,274.404 91.380 C 274.408 92.698,273.276 103.224,272.971 104.700 C 272.744 105.798,261.386 106.149,260.972 105.071 C 260.860 104.780,261.419 100.775,262.215 96.171 C 263.010 91.567,263.814 86.810,264.003 85.600 C 264.334 83.470,265.113 79.151,266.060 74.200 C 266.313 72.880,266.596 71.660,266.689 71.490 C 266.783 71.319,269.672 71.229,273.110 71.290 L 279.361 71.400 279.929 73.400 M350.647 72.400 C 351.460 74.108,354.640 81.667,357.882 89.600 C 358.646 91.470,359.547 93.630,359.883 94.400 C 361.258 97.548,361.580 98.320,362.629 101.000 C 363.232 102.540,363.893 104.017,364.097 104.282 C 364.935 105.370,363.867 105.600,357.971 105.600 L 351.990 105.600 351.012 103.389 L 350.034 101.178 344.161 101.289 L 338.288 101.400 337.490 103.500 L 336.693 105.600 330.770 105.600 C 327.512 105.600,324.760 105.458,324.652 105.285 C 324.489 105.020,327.058 98.458,328.992 94.200 C 329.292 93.540,329.921 92.025,330.390 90.832 C 330.858 89.640,331.572 87.930,331.976 87.032 C 332.380 86.135,333.258 84.022,333.928 82.338 C 334.597 80.654,335.486 78.494,335.902 77.538 C 336.318 76.582,336.995 74.990,337.405 74.000 C 338.629 71.050,338.322 71.167,344.543 71.289 C 350.104 71.399,350.176 71.412,350.647 72.400 M374.400 82.000 C 374.642 94.834,375.071 96.000,379.547 96.000 C 384.101 96.000,384.569 94.750,384.702 82.220 C 384.783 74.527,384.940 71.756,385.306 71.515 C 386.148 70.960,395.983 71.240,396.313 71.828 C 397.095 73.220,396.206 95.339,395.274 97.667 C 390.209 110.327,366.664 109.174,363.216 96.097 C 362.500 93.379,362.518 72.027,363.238 71.554 C 363.547 71.351,366.140 71.233,369.000 71.292 L 374.200 71.400 374.400 82.000 M73.885 81.490 C 73.770 82.090,73.774 83.530,73.894 84.690 L 74.112 86.800 75.602 86.800 C 78.831 86.800,80.495 83.356,78.274 81.270 C 76.822 79.905,74.162 80.039,73.885 81.490 M17.300 82.256 C 16.931 82.412,16.800 84.079,16.800 88.633 L 16.800 94.800 18.506 94.800 C 25.951 94.800,26.772 83.281,19.400 82.265 C 18.520 82.144,17.575 82.140,17.300 82.256 M236.852 83.500 C 235.154 84.918,234.249 88.019,234.873 90.280 C 237.010 98.018,247.004 95.291,245.806 87.297 C 245.143 82.877,240.140 80.755,236.852 83.500 M343.852 86.317 C 343.248 87.294,341.749 91.877,341.895 92.300 C 342.107 92.917,346.236 92.989,346.611 92.383 C 346.913 91.893,344.845 86.000,344.370 86.000 C 344.192 86.000,343.959 86.142,343.852 86.317 M183.613 95.063 C 187.449 95.830,189.409 101.064,186.952 103.984 C 182.590 109.168,172.557 105.594,174.381 99.506 C 174.911 97.735,177.150 95.347,178.531 95.078 C 179.994 94.793,182.232 94.786,183.613 95.063 M319.453 95.452 C 321.593 96.467,323.200 98.673,323.199 100.591 C 323.192 108.102,310.321 108.741,309.320 101.280 C 308.704 96.688,314.741 93.216,319.453 95.452 M83.081 112.050 C 85.626 113.073,86.149 113.461,86.675 114.718 C 87.633 117.009,85.043 117.833,83.275 115.800 C 82.065 114.408,80.000 114.537,80.000 116.004 C 80.000 116.545,80.688 116.931,82.793 117.570 C 87.121 118.885,88.667 122.027,86.403 124.905 C 83.779 128.241,75.632 126.298,76.079 122.444 C 76.244 121.025,78.969 120.643,79.393 121.979 C 79.831 123.358,81.567 124.038,82.895 123.351 C 84.673 122.432,84.253 121.617,81.600 120.838 C 77.197 119.544,76.246 118.611,76.508 115.842 C 76.716 113.652,77.584 112.712,80.000 112.060 C 81.913 111.544,81.825 111.545,83.081 112.050 M98.867 112.348 C 101.075 113.301,103.320 116.147,102.507 116.960 C 101.807 117.660,99.266 117.161,98.637 116.200 C 97.160 113.946,93.972 115.413,93.369 118.623 C 92.610 122.671,97.185 125.111,98.989 121.621 C 100.335 119.019,103.323 120.250,102.198 122.942 C 100.555 126.876,95.209 127.904,91.912 124.920 C 88.862 122.160,89.501 114.496,92.913 112.909 C 96.197 111.381,96.549 111.347,98.867 112.348 M114.123 112.236 C 121.077 114.605,120.001 125.648,112.719 126.646 C 103.278 127.940,102.606 113.344,112.029 111.641 C 112.155 111.619,113.097 111.886,114.123 112.236 M179.379 112.162 C 181.546 112.916,182.871 114.264,182.721 115.562 C 182.544 117.082,180.625 117.234,179.325 115.832 C 178.258 114.682,177.318 114.533,176.215 115.339 C 175.155 116.115,175.700 116.656,178.302 117.412 C 181.752 118.415,182.679 119.021,183.205 120.614 C 185.203 126.670,174.712 129.343,172.188 123.421 C 171.220 121.150,174.239 119.932,175.264 122.180 C 176.056 123.918,180.181 124.022,179.921 122.297 C 179.834 121.715,179.246 121.327,177.800 120.897 C 173.168 119.521,172.400 118.834,172.400 116.068 C 172.400 114.248,173.497 112.929,175.664 112.145 C 177.404 111.514,177.521 111.515,179.379 112.162 M221.881 112.050 C 224.381 113.055,224.810 113.390,225.571 114.928 C 226.530 116.866,226.378 117.200,224.534 117.200 C 223.497 117.200,222.903 116.931,222.329 116.200 C 220.322 113.650,217.397 115.493,217.407 119.301 C 217.417 123.454,220.972 125.174,222.573 121.800 C 223.137 120.611,223.440 120.400,224.576 120.400 C 228.520 120.400,225.260 125.933,220.906 126.630 C 213.024 127.890,210.581 114.541,218.258 112.162 C 220.297 111.530,220.567 111.522,221.881 112.050 M278.400 112.392 C 279.522 112.687,281.291 115.028,281.111 115.980 C 280.898 117.107,278.415 117.009,277.323 115.830 C 276.267 114.692,274.507 114.456,274.143 115.405 C 273.768 116.380,274.639 117.037,277.010 117.567 C 282.887 118.883,283.260 124.940,277.557 126.448 C 273.988 127.392,269.687 125.021,270.069 122.322 C 270.268 120.919,272.321 120.807,273.390 122.142 C 274.466 123.488,275.874 123.981,277.073 123.432 C 278.850 122.620,278.082 121.553,275.001 120.557 C 269.332 118.722,268.646 113.752,273.845 112.175 C 275.312 111.731,276.006 111.764,278.400 112.392 M304.437 112.250 C 306.640 112.971,307.600 114.014,307.600 115.689 C 307.600 117.102,305.130 117.364,304.414 116.027 C 303.612 114.529,300.800 114.498,300.800 115.988 C 300.800 116.545,301.453 116.926,303.500 117.563 C 308.280 119.053,309.600 121.312,307.500 124.408 C 304.810 128.373,296.800 126.829,296.800 122.346 C 296.800 120.887,299.259 120.615,299.996 121.992 C 300.754 123.408,302.409 124.016,303.695 123.351 C 305.471 122.432,305.054 121.620,302.400 120.831 C 297.977 119.517,297.200 118.805,297.200 116.068 C 297.200 114.248,298.297 112.929,300.464 112.145 C 302.231 111.505,302.153 111.503,304.437 112.250 M15.525 113.700 C 15.408 114.920,15.295 115.008,13.702 115.123 C 11.642 115.272,11.633 115.299,11.498 121.600 L 11.400 126.200 9.900 126.324 L 8.400 126.448 8.400 121.273 C 8.400 115.581,8.310 115.352,5.998 115.133 C 4.746 115.014,4.587 114.864,4.475 113.700 L 4.349 112.400 10.000 112.400 L 15.651 112.400 15.525 113.700 M21.920 114.900 L 22.040 117.200 24.220 117.200 L 26.400 117.200 26.400 114.777 L 26.400 112.354 28.100 112.477 L 29.800 112.600 29.800 119.400 L 29.800 126.200 28.200 126.200 L 26.600 126.200 26.482 123.300 L 26.365 120.400 24.182 120.400 L 22.000 120.400 21.994 122.900 C 21.986 126.007,21.696 126.496,19.958 126.330 L 18.600 126.200 18.490 119.277 L 18.381 112.353 20.090 112.477 L 21.800 112.600 21.920 114.900 M44.214 112.823 C 45.194 114.409,44.056 115.200,40.792 115.200 L 37.600 115.200 37.600 116.382 L 37.600 117.565 40.500 117.682 L 43.400 117.800 43.525 119.100 L 43.651 120.400 40.625 120.400 L 37.600 120.400 37.600 121.784 L 37.600 123.168 40.900 123.284 L 44.200 123.400 44.200 124.800 L 44.200 126.200 39.000 126.200 L 33.800 126.200 33.691 119.300 L 33.581 112.400 38.767 112.400 C 41.979 112.400,44.052 112.561,44.214 112.823 M64.099 113.621 C 65.881 115.090,66.584 117.266,66.269 120.339 C 65.818 124.744,63.502 126.400,57.792 126.400 L 54.400 126.400 54.400 119.400 L 54.400 112.400 58.509 112.400 C 62.500 112.400,62.660 112.435,64.099 113.621 M73.000 119.400 L 73.000 126.200 71.400 126.200 L 69.800 126.200 69.690 119.277 L 69.581 112.353 71.290 112.477 L 73.000 112.600 73.000 119.400 M125.600 117.482 C 125.818 122.812,126.040 123.343,128.022 123.287 C 129.795 123.237,129.778 123.285,130.000 117.668 L 130.200 112.600 131.900 112.477 L 133.600 112.354 133.599 117.677 C 133.597 124.755,132.297 126.800,127.800 126.800 C 123.303 126.800,122.003 124.755,122.001 117.677 L 122.000 112.354 123.700 112.477 L 125.400 112.600 125.600 117.482 M140.967 112.643 C 141.315 112.776,141.600 113.029,141.600 113.205 C 141.600 113.580,145.010 119.170,145.597 119.757 C 145.868 120.028,146.000 118.875,146.000 116.256 L 146.000 112.352 147.500 112.476 L 149.000 112.600 149.110 118.946 C 149.230 125.846,149.086 126.400,147.167 126.400 C 146.100 126.400,144.400 125.108,144.400 124.297 C 144.400 124.103,143.899 123.192,143.288 122.272 C 142.676 121.352,141.911 120.075,141.588 119.434 C 141.023 118.314,140.992 118.425,140.800 122.234 L 140.600 126.200 139.420 126.334 C 137.439 126.560,137.200 125.771,137.200 118.990 C 137.200 115.659,137.320 112.813,137.467 112.667 C 137.800 112.333,140.120 112.318,140.967 112.643 M163.125 113.700 C 163.008 114.920,162.895 115.008,161.302 115.123 C 159.242 115.272,159.233 115.299,159.098 121.600 L 159.000 126.200 157.513 126.323 C 155.681 126.475,155.634 126.328,155.498 120.000 L 155.400 115.400 153.800 115.200 C 152.336 115.017,152.189 114.889,152.075 113.700 L 151.949 112.400 157.600 112.400 L 163.251 112.400 163.125 113.700 M195.717 113.206 C 199.361 116.072,197.402 120.940,192.395 121.464 L 190.000 121.714 190.000 123.424 C 190.000 126.011,189.733 126.400,187.957 126.400 L 186.400 126.400 186.400 119.400 L 186.400 112.400 190.546 112.400 C 194.097 112.400,194.839 112.516,195.717 113.206 M210.725 113.700 L 210.600 115.000 207.400 115.200 C 204.307 115.393,204.200 115.433,204.200 116.400 C 204.200 117.360,204.320 117.408,207.200 117.600 L 210.200 117.800 210.200 119.000 L 210.200 120.200 207.200 120.400 L 204.200 120.600 204.076 121.883 L 203.952 123.167 207.276 123.283 L 210.600 123.400 210.600 124.800 L 210.600 126.200 205.600 126.200 L 200.600 126.200 200.491 119.300 L 200.381 112.400 205.616 112.400 L 210.851 112.400 210.725 113.700 M233.000 119.400 L 233.000 126.200 231.400 126.200 L 229.800 126.200 229.690 119.277 L 229.581 112.353 231.290 112.477 L 233.000 112.600 233.000 119.400 M244.136 113.700 C 244.850 115.320,246.178 118.886,246.855 121.000 C 247.136 121.880,247.493 122.780,247.648 123.000 C 247.802 123.220,248.055 124.075,248.209 124.900 L 248.489 126.400 247.073 126.400 C 245.509 126.400,244.400 125.558,244.400 124.371 C 244.400 122.822,239.886 123.278,239.172 124.900 C 237.859 127.883,234.826 126.683,236.006 123.648 C 236.401 122.631,237.087 120.810,237.529 119.600 C 237.972 118.390,238.753 116.275,239.265 114.900 L 240.196 112.400 241.879 112.400 C 243.394 112.400,243.620 112.530,244.136 113.700 M254.711 117.883 L 254.823 123.165 257.711 123.283 L 260.600 123.400 260.600 124.800 L 260.600 126.200 256.258 126.314 C 250.490 126.465,250.800 126.869,250.800 119.218 C 250.800 112.188,250.758 112.317,252.985 112.481 L 254.600 112.600 254.711 117.883 M267.109 119.300 L 267.000 126.200 265.642 126.330 C 263.714 126.514,263.613 126.158,263.606 119.167 C 263.599 112.216,263.543 112.400,265.676 112.400 L 267.219 112.400 267.109 119.300 M294.600 113.800 C 294.600 114.893,294.469 115.011,293.130 115.122 C 291.006 115.299,290.838 115.723,290.713 121.225 L 290.600 126.200 289.242 126.330 C 287.349 126.510,287.213 126.108,287.206 120.300 L 287.200 115.200 285.408 115.200 C 283.840 115.200,283.584 115.077,283.370 114.223 C 282.935 112.488,283.325 112.371,289.130 112.489 L 294.600 112.600 294.600 113.800 M57.894 115.440 C 57.732 115.601,57.600 117.413,57.600 119.467 L 57.600 123.200 59.253 123.200 C 63.799 123.200,64.104 116.185,59.594 115.393 C 58.820 115.257,58.055 115.278,57.894 115.440 M110.492 115.468 C 108.854 116.127,108.337 119.836,109.596 121.900 C 110.672 123.666,113.529 123.828,114.414 122.174 C 116.380 118.501,113.822 114.128,110.492 115.468 M190.000 116.800 C 190.000 118.386,190.013 118.400,191.520 118.400 C 193.823 118.400,194.824 116.914,193.300 115.757 C 191.666 114.517,190.000 115.043,190.000 116.800 M241.331 118.777 C 240.833 120.095,240.980 120.400,242.113 120.400 C 242.727 120.400,242.842 120.208,242.652 119.500 C 242.519 119.005,242.408 118.375,242.405 118.100 C 242.396 117.193,241.783 117.579,241.331 118.777"/>
    <path fill="#f36523" d="M15.800 29.361 C -0.612 34.565,-1.184 57.582,14.947 63.680 C 18.340 64.962,27.750 64.674,29.253 63.241 C 29.392 63.108,29.630 60.255,29.783 56.900 C 30.097 49.976,30.246 50.230,26.839 51.893 C 21.057 54.714,16.000 52.171,16.000 46.441 C 16.000 40.676,23.790 37.921,28.290 42.095 C 29.545 43.259,29.642 42.773,29.511 35.982 L 29.400 30.200 27.400 29.532 C 24.963 28.718,18.144 28.618,15.800 29.361 M202.505 29.546 C 196.663 31.604,193.559 36.366,194.109 42.428 C 194.513 46.878,197.050 49.212,203.257 50.842 C 206.402 51.667,207.452 52.366,207.065 53.375 C 206.352 55.234,202.665 54.884,198.511 52.564 L 196.022 51.173 195.374 52.687 C 192.018 60.526,191.969 60.773,193.582 61.726 C 198.614 64.698,208.055 65.479,212.800 63.316 C 222.776 58.767,223.220 45.867,213.505 42.816 C 208.046 41.102,207.007 40.622,206.882 39.761 C 206.620 37.958,211.400 37.928,214.128 39.716 C 215.586 40.672,216.664 40.588,216.911 39.500 C 217.024 39.005,217.747 37.142,218.519 35.361 C 220.164 31.562,220.204 31.669,216.600 30.210 C 212.880 28.704,205.837 28.372,202.505 29.546 M34.983 30.100 C 34.877 30.376,34.838 37.981,34.895 47.000 L 35.000 63.400 41.100 63.510 L 47.200 63.621 47.279 60.710 C 47.323 59.110,47.376 56.540,47.398 55.000 L 47.436 52.200 51.018 52.200 L 54.600 52.200 54.711 57.910 L 54.822 63.620 61.111 63.510 L 67.400 63.400 67.400 46.600 L 67.400 29.800 61.100 29.690 L 54.800 29.580 54.800 34.947 C 54.800 41.149,55.050 40.800,50.599 40.800 L 47.664 40.800 47.383 38.177 C 47.228 36.734,47.220 34.514,47.363 33.242 C 47.789 29.477,47.999 29.600,41.145 29.600 C 36.735 29.600,35.125 29.731,34.983 30.100 M73.600 46.594 L 73.600 63.600 85.200 63.600 L 96.800 63.600 96.800 59.012 L 96.800 54.423 91.500 54.312 L 86.200 54.200 86.077 52.713 L 85.953 51.226 90.677 51.113 L 95.400 51.000 95.513 46.513 L 95.626 42.026 90.913 41.913 L 86.200 41.800 86.077 40.312 L 85.953 38.824 91.277 38.712 L 96.600 38.600 96.600 34.200 L 96.600 29.800 85.100 29.694 L 73.600 29.588 73.600 46.594 M104.203 31.100 C 103.872 33.228,103.269 36.814,102.790 39.500 C 102.410 41.633,99.505 58.706,98.945 62.100 L 98.698 63.600 104.875 63.600 L 111.052 63.600 111.587 58.100 C 111.881 55.075,112.320 51.186,112.561 49.457 L 113.000 46.315 115.140 53.457 C 116.316 57.386,117.485 61.275,117.737 62.100 L 118.195 63.600 122.022 63.600 L 125.848 63.600 128.174 55.700 C 129.453 51.355,130.593 47.530,130.709 47.200 C 130.986 46.406,131.442 48.927,132.025 54.474 C 132.287 56.963,132.613 59.990,132.750 61.200 L 133.000 63.400 139.100 63.510 C 145.996 63.635,145.617 63.849,144.831 60.277 C 144.627 59.355,144.272 57.340,144.042 55.800 C 143.528 52.372,141.968 42.503,140.769 35.100 L 139.879 29.600 133.413 29.600 L 126.947 29.600 126.036 32.700 C 125.536 34.405,124.962 36.250,124.760 36.800 C 124.559 37.350,123.987 39.420,123.488 41.400 C 122.473 45.433,122.004 46.053,121.522 44.000 C 121.122 42.302,120.682 40.680,119.623 37.000 C 119.179 35.460,118.530 33.165,118.180 31.900 L 117.543 29.600 110.990 29.600 L 104.436 29.600 104.203 31.100 M222.089 35.095 L 222.200 40.600 225.400 40.800 L 228.600 41.000 228.706 52.310 L 228.812 63.620 235.106 63.510 L 241.400 63.400 241.506 52.100 L 241.612 40.800 244.583 40.800 C 248.224 40.800,248.071 41.055,248.142 34.871 L 248.200 29.800 235.089 29.695 L 221.977 29.589 222.089 35.095 M139.000 70.631 C 138.560 70.728,137.235 71.003,136.055 71.243 C 124.062 73.674,118.728 89.992,126.699 99.869 C 131.233 105.487,140.173 108.060,147.189 105.766 L 149.128 105.132 149.372 100.866 C 149.507 98.520,149.710 95.742,149.823 94.693 C 150.088 92.245,149.456 91.954,147.165 93.471 C 145.739 94.414,144.950 94.623,142.370 94.741 L 139.281 94.881 137.701 93.301 C 131.740 87.340,139.982 78.469,146.993 83.302 C 149.638 85.125,149.634 85.132,149.510 78.312 L 149.400 72.224 147.597 71.555 C 145.772 70.878,140.467 70.308,139.000 70.631 M206.400 70.785 C 187.865 73.651,185.840 100.562,203.767 105.773 C 206.209 106.483,214.198 106.650,214.600 106.000 C 214.736 105.780,215.265 105.600,215.775 105.600 C 217.517 105.600,217.787 104.695,217.942 98.340 C 218.105 91.690,218.167 91.804,215.336 93.600 C 209.390 97.371,202.830 93.219,204.371 86.661 C 205.406 82.262,211.262 80.510,215.440 83.350 C 217.999 85.088,218.000 85.086,218.000 78.410 L 218.000 72.421 216.823 71.812 C 214.675 70.701,209.953 70.236,206.400 70.785 M238.000 70.659 C 218.773 72.741,215.951 99.613,234.323 105.674 C 241.344 107.990,250.475 105.486,254.731 100.078 C 265.028 86.991,254.711 68.850,238.000 70.659 M4.700 71.418 C 4.535 71.591,4.400 79.353,4.400 88.667 L 4.400 105.600 12.623 105.600 C 22.826 105.600,26.081 104.995,30.000 102.371 C 42.180 94.214,38.254 74.980,23.800 71.996 C 21.300 71.480,5.107 70.990,4.700 71.418 M42.669 72.090 C 42.375 73.294,42.364 104.240,42.658 105.006 C 42.846 105.496,43.966 105.600,49.047 105.600 L 55.209 105.600 55.104 88.500 L 55.000 71.400 48.946 71.290 C 42.938 71.180,42.890 71.187,42.669 72.090 M61.867 71.467 C 61.720 71.613,61.600 79.353,61.600 88.667 L 61.600 105.600 67.573 105.600 C 74.591 105.600,74.018 106.115,73.952 99.869 C 73.927 97.499,73.972 95.496,74.053 95.417 C 74.134 95.338,75.392 97.551,76.848 100.336 L 79.496 105.400 86.348 105.509 C 94.397 105.638,94.077 105.987,90.650 100.834 C 84.447 91.507,84.664 92.082,86.918 90.974 C 93.184 87.892,92.364 76.406,85.636 73.026 C 82.551 71.476,63.131 70.202,61.867 71.467 M96.267 71.467 C 96.120 71.613,96.000 79.356,96.000 88.673 L 96.000 105.612 107.500 105.506 L 119.000 105.400 119.113 100.912 L 119.226 96.423 113.956 96.312 C 108.188 96.189,107.624 95.952,108.149 93.862 L 108.415 92.800 113.221 92.800 L 118.026 92.800 117.913 88.300 L 117.800 83.800 113.206 83.686 C 108.242 83.563,107.765 83.389,108.154 81.841 L 108.409 80.823 113.705 80.712 L 119.000 80.600 119.048 77.000 C 119.075 75.020,119.016 72.905,118.917 72.300 L 118.736 71.200 107.635 71.200 C 101.529 71.200,96.413 71.320,96.267 71.467 M152.400 76.978 L 152.400 82.768 155.700 82.884 L 159.000 83.000 159.106 94.300 L 159.212 105.600 165.406 105.600 L 171.600 105.600 171.600 94.633 C 171.600 81.838,171.489 82.441,173.798 82.701 C 174.762 82.810,176.196 82.777,176.986 82.629 L 178.422 82.360 178.311 76.880 L 178.200 71.400 165.300 71.294 L 152.400 71.189 152.400 76.978 M266.689 71.490 C 266.596 71.660,266.313 72.880,266.060 74.200 C 265.113 79.151,264.334 83.470,264.003 85.600 C 263.814 86.810,263.010 91.567,262.215 96.171 C 261.419 100.775,260.860 104.780,260.972 105.071 C 261.386 106.149,272.744 105.798,272.971 104.700 C 273.276 103.224,274.408 92.698,274.404 91.380 C 274.396 88.860,275.308 89.040,276.039 91.703 C 276.417 93.077,277.299 96.090,278.001 98.400 C 278.702 100.710,279.373 103.050,279.492 103.600 C 279.886 105.427,280.289 105.600,284.153 105.600 L 287.809 105.600 288.872 101.900 C 293.066 87.300,293.054 87.323,293.630 93.288 C 294.300 100.236,294.792 104.313,295.034 104.945 C 295.302 105.642,306.537 105.977,306.925 105.300 C 307.101 104.992,306.752 102.052,306.034 97.800 C 305.507 94.674,304.036 85.317,303.550 82.000 C 303.341 80.570,302.861 77.600,302.485 75.400 L 301.800 71.400 295.519 71.290 C 289.844 71.190,289.203 71.248,288.868 71.890 C 288.403 72.781,285.633 82.050,285.189 84.200 C 285.008 85.080,284.634 86.340,284.358 87.000 L 283.857 88.200 283.695 87.200 C 283.606 86.650,283.075 84.490,282.516 82.400 C 281.957 80.310,281.417 78.240,281.316 77.800 C 281.216 77.360,280.990 76.640,280.815 76.200 C 280.640 75.760,280.241 74.500,279.929 73.400 L 279.361 71.400 273.110 71.290 C 269.672 71.229,266.783 71.319,266.689 71.490 M338.534 71.689 C 338.324 71.970,337.816 73.010,337.405 74.000 C 336.995 74.990,336.318 76.582,335.902 77.538 C 335.486 78.494,334.597 80.654,333.928 82.338 C 333.258 84.022,332.380 86.135,331.976 87.032 C 331.572 87.930,330.858 89.640,330.390 90.832 C 329.921 92.025,329.292 93.540,328.992 94.200 C 327.058 98.458,324.489 105.020,324.652 105.285 C 324.760 105.458,327.512 105.600,330.770 105.600 L 336.693 105.600 337.490 103.500 L 338.288 101.400 344.161 101.289 L 350.034 101.178 351.012 103.389 L 351.990 105.600 357.971 105.600 C 363.867 105.600,364.935 105.370,364.097 104.282 C 363.893 104.017,363.232 102.540,362.629 101.000 C 361.580 98.320,361.258 97.548,359.883 94.400 C 359.547 93.630,358.646 91.470,357.882 89.600 C 354.640 81.667,351.460 74.108,350.647 72.400 C 350.084 71.218,339.357 70.589,338.534 71.689 M363.238 71.554 C 362.518 72.027,362.500 93.379,363.216 96.097 C 366.664 109.174,390.209 110.327,395.274 97.667 C 396.206 95.339,397.095 73.220,396.313 71.828 C 395.983 71.240,386.148 70.960,385.306 71.515 C 384.940 71.756,384.783 74.527,384.702 82.220 C 384.569 94.750,384.101 96.000,379.547 96.000 C 375.071 96.000,374.642 94.834,374.400 82.000 L 374.200 71.400 369.000 71.292 C 366.140 71.233,363.547 71.351,363.238 71.554 M78.274 81.270 C 80.495 83.356,78.831 86.800,75.602 86.800 L 74.112 86.800 73.894 84.690 C 73.451 80.394,75.576 78.735,78.274 81.270 M22.325 83.482 C 26.847 86.883,24.176 94.800,18.506 94.800 L 16.800 94.800 16.800 88.633 C 16.800 84.079,16.931 82.412,17.300 82.256 C 18.291 81.838,21.027 82.506,22.325 83.482 M244.124 83.969 C 247.792 88.029,245.515 94.804,240.486 94.797 C 236.296 94.792,233.835 91.154,234.995 86.682 C 236.158 82.198,241.177 80.706,244.124 83.969 M345.781 88.983 C 347.081 92.547,346.976 92.800,344.210 92.800 C 341.563 92.800,341.449 92.531,342.689 89.217 C 344.254 85.036,344.339 85.030,345.781 88.983"/>
  </g>
</svg>
