<svg data-name="Layer 1" xmlns="http://www.w3.org/2000/svg" viewBox="0 0 347.65 35.66"><title>bambury-logo</title><path d="M18.28 27.32H9.21v-6.16h9.07c2 0 3.33.87 3.33 3s-1.23 3.15-3.33 3.15M9.21 8.39h8A2.58 2.58 0 0 1 20 11.17c0 2.14-1.4 2.83-3.31 2.83H9.21V8.39zM25 17.33a8.06 8.06 0 0 0 4.29-7.48C29.32 3 24 0 17.73 0H0v35.66h19.29c6.2 0 11.63-3.33 11.63-10.08 0-4-2.19-6.84-5.88-8.25M62 22.12l3.87-10.26 3.83 10.26H62zM70.39 0h-9.12L46.82 35.66h10.07l2-5.2h13.87l2 5.2h10zM141.78 0v35.66h-9.17v-16.6l-6.44 13.46h-7.77l-6.44-13.46v16.6h-9.16V0h9.25l10.22 22.43L132.52 0h9.26M180.84 27.32h-9.07v-6.16h9.07c2 0 3.33.87 3.33 3s-1.23 3.15-3.33 3.15m-9.07-18.92h8a2.58 2.58 0 0 1 2.83 2.78c0 2.14-1.41 2.78-3.33 2.78h-7.48V8.39zm15.82 8.94a8.06 8.06 0 0 0 4.29-7.48C191.88 3 186.54 0 180.3 0h-17.74v35.66h19.28c6.2 0 11.63-3.33 11.63-10.08 0-4-2.19-6.84-5.89-8.25M245 0v19.66c0 9.74-6.52 16-16.41 16s-16.37-6.17-16.37-16V0h9.21v19.13c0 4.65 2.1 7.77 7.16 7.77s7.25-3.08 7.25-7.77V0H245zM282.18 17.78h-7.75V8.39h7.75c3.1 0 5 1.56 5 4.74s-2 4.65-5 4.65m6.82 7.07c4.74-2.15 7-6.75 7-11.81 0-8.17-5.29-13-13.35-13h-17.38v35.62h9.16v-9.53H279l6.75 9.53h11zM347.65 0l-14.14 22.57v13.09h-9.16V22.57L310.26 0h10.85l7.8 12.86L336.75 0h10.9"/></svg>