<?xml version="1.0" encoding="utf-8"?>
<!-- Generator: Adobe Illustrator 21.0.0, SVG Export Plug-In . SVG Version: 6.00 Build 0)  -->
<svg version="1.1" id="Layer_1" xmlns="http://www.w3.org/2000/svg" xmlns:xlink="http://www.w3.org/1999/xlink" x="0px" y="0px"
	 viewBox="0 0 360 40" style="enable-background:new 0 0 360 40;" xml:space="preserve">
<style type="text/css">
	.st0{fill:#FFFFFF;}
</style>
<g>
	<path class="st0" d="M24.6,19.2L24.6,19.2c5.4-1,9-3.2,9-9.4c0-6-3.2-9.2-13.8-9.2H0v37.8h22.4c9.4,0,12-5,12-9.8
		C34.4,22.2,30.4,20,24.6,19.2z M13.8,8.4h2.8c1.8,0,3,1.6,3,3.6s-1.2,3.4-3,3.4h-2.8V8.4z M16.8,30.6h-3V23H17c1.8,0,3,1,3,3.2
		C20,28.6,18.8,30.6,16.8,30.6z"/>
	<rect x="37.6" y="0.6" class="st0" width="13.6" height="37.8"/>
	<path class="st0" d="M86,33.4V18.6c0-6.8-5.8-9.8-15.6-9.8c-8.6,0-13.8,2-14.4,10h11c0-2.4,1.6-3,3.6-3c1.6,0,3,1,3,2.8
		c0,6.2-19-2-19,12.6c0,4.2,2.4,8.2,8.8,8.2c4.2,0,9-1.8,10.2-6.2h0.2c0,1.4,0.4,4,0.8,5.4h13.8v-0.2C86.4,37.4,86,35.4,86,33.4z
		 M73.6,25.6c0,4.4-1.4,6.4-3.8,6.4c-1.4,0-3-1.2-3-2.6c0-4,5.2-3,6.8-5.6l0.2,0.2v1.6H73.6z"/>
	<path class="st0" d="M121.6,20.8c-0.4-6.2-2.4-12-15.2-12C93.4,8.8,90,13.6,90,24c0,10.6,3.4,15.2,16.4,15.2
		c13-0.2,15-7.2,15.2-12.6H109v2.2c0,2-0.8,2.6-2.6,2.6c-1.8,0-2.6-0.8-2.6-2.6v-9.6c0-2,0.8-2.6,2.6-2.6c1.8,0,2.6,0.8,2.6,2.6v1.6
		C109,20.8,121.6,20.8,121.6,20.8z"/>
	<polygon class="st0" points="162.4,9.6 147.2,9.6 139.6,22.6 139.6,22.6 139.6,0.6 125.8,0.6 125.8,38.4 139.6,38.4 139.6,24 
		139.6,24 147,38.4 162.6,38.4 153.6,23.4 	"/>
	<polygon class="st0" points="203.8,30.6 203.8,30.6 200.6,9.6 182.8,9.6 180.2,30.6 180,30.6 177.6,9.6 164.8,9.6 171.4,38.4 
		189.4,38.4 192.4,17.4 192.6,17.4 194.2,38.4 212,38.4 218.6,9.6 205.8,9.6 	"/>
	<path class="st0" d="M236.2,8.8C226,8.8,220,11.4,220,24s6,15.2,16.2,15.2s16.2-2.6,16.2-15.2S246.4,8.8,236.2,8.8z M238.8,28.8
		c0,1.6-1,2.4-2.6,2.4s-2.6-0.8-2.6-2.4v-9.6c0-1.6,1-2.4,2.6-2.4s2.6,0.8,2.6,2.4V28.8z"/>
	<path class="st0" d="M272.4,8.8c-10.2,0-16.2,2.6-16.2,15.2s6,15.2,16.2,15.2s16.2-2.6,16.2-15.2S282.6,8.8,272.4,8.8z M275,28.8
		c0,1.6-1,2.4-2.6,2.4s-2.6-0.8-2.6-2.4v-9.6c0-1.6,1-2.4,2.6-2.4s2.6,0.8,2.6,2.4V28.8z"/>
	<path class="st0" d="M311,13.8L311,13.8c-1.4-3-4.8-5-8.6-5c-6.2,0-9.8,3.2-9.8,12.8v4.6c0,9.6,3.6,13,9.6,13c4.2,0,7.2-1.8,9-5.4
		h0.2v4.6H325V0.6h-14V13.8L311,13.8z M311.2,26.4c0,2.2-1,3.4-2.6,3.4c-1.8,0-2.4-1.2-2.4-3.4v-4.8c0-2.2,0.8-3.2,2.6-3.2
		c1.4,0,2.4,1,2.4,3.2V26.4z"/>
	<path class="st0" d="M342.6,17.4c0-1.6,0.6-2.4,2.4-2.4c0.8,0,1.6,0.4,2,0.8c0.4,0.6,0.6,1.2,0.8,2.2h11.8c0-7.6-6-9.2-15.2-9.2
		c-10.8,0-14.6,3.2-14.6,9.6c0,11.4,17.2,7.2,17.2,12.2c0,1-0.8,2.2-2.8,2.2c-1,0-1.6-0.2-2-0.8c-0.4-0.4-0.6-1.2-0.6-2h-12.4
		c0,8,9.4,9.2,15.4,9.2c11.4,0,15.4-3.4,15.4-10.4C360,16.8,342.6,22.8,342.6,17.4z"/>
</g>
</svg>
