<?xml version="1.0" encoding="UTF-8"?>
<svg width="227px" height="73px" viewBox="0 0 227 73" version="1.1" xmlns="http://www.w3.org/2000/svg" xmlns:xlink="http://www.w3.org/1999/xlink">
    <!-- Generator: Sketch 46.2 (44496) - http://www.bohemiancoding.com/sketch -->
    <title>Group 3</title>
    <desc>Created with Sketch.</desc>
    <defs>
        <polygon id="path-1" points="226.600729 17.9055931 226.600729 0.000186206897 0.000186575342 0.000186206897 0.000186575342 17.9055931"></polygon>
    </defs>
    <g id="Symbols" stroke="none" stroke-width="1" fill="none" fill-rule="evenodd">
        <g id="NAV-AW" transform="translate(-787.000000, -26.000000)">
            <g id="Group-3" transform="translate(787.000000, 26.000000)">
                <g id="Page-1" transform="translate(0.000000, 37.000000)">
                    <mask id="mask-2" fill="white">
                        <use xlink:href="#path-1"></use>
                    </mask>
                    <g id="Clip-2"></g>
                    <path d="M14.1743153,15.8616621 C14.1743153,16.8795931 13.9317674,16.9044207 11.8570496,17.0285586 L11.8570496,17.6238 L18.7821044,17.6238 L18.7821044,17.0285586 C16.7073866,16.9044207 16.4648386,16.8795931 16.4648386,15.8616621 L16.4648386,2.01097241 C16.4648386,0.993041379 16.7073866,0.968213793 18.7821044,0.844075862 L18.7821044,0.248213793 L11.8570496,0.248213793 L11.8570496,0.844075862 C13.9317674,0.968213793 14.1743153,0.993041379 14.1743153,2.01097241 L14.1743153,8.34014483 L4.60797562,8.34014483 L4.60797562,2.01097241 C4.60797562,0.993041379 4.85052356,0.968213793 6.92524137,0.844075862 L6.92524137,0.248213793 L0.000186575342,0.248213793 L0.000186575342,0.844075862 C2.07490438,0.968213793 2.31745233,0.993041379 2.31745233,2.01097241 L2.31745233,15.8616621 C2.31745233,16.8795931 2.07490438,16.9044207 0.000186575342,17.0285586 L0.000186575342,17.6238 L6.92524137,17.6238 L6.92524137,17.0285586 C4.85052356,16.9044207 4.60797562,16.8795931 4.60797562,15.8616621 L4.60797562,9.23393793 L14.1743153,9.23393793 L14.1743153,15.8616621 Z M30.3429345,0.124075862 L29.0493455,0.124075862 L23.309666,15.6133862 C22.9595263,16.6313172 22.5820222,16.7802828 21.0999921,17.0285586 L21.0999921,17.6238 L26.7047153,17.6238 L26.7047153,17.0285586 C24.4950414,16.7802828 24.1449016,16.4823517 24.6841044,14.9926966 L25.8159948,11.8650414 L32.6067153,11.8650414 L34.0078962,15.5140759 C34.4388852,16.6064897 34.1154879,16.8051103 31.9599208,17.0285586 L31.9599208,17.6238 L38.8582332,17.6238 L38.8582332,17.0285586 C37.2412468,16.8795931 36.8911071,16.5071793 36.5677099,15.6630414 L30.3429345,0.124075862 Z M29.0760879,2.82966207 L29.1301948,2.82966207 L32.2559537,10.971869 L26.1393921,10.971869 L29.0760879,2.82966207 Z M54.4068003,17.7479379 L55.7538742,17.7479379 L60.9549729,2.25862759 C61.2783701,1.24131724 61.6826167,1.09235172 63.1646468,0.844075862 L63.1646468,0.248213793 L57.5599236,0.248213793 L57.5599236,0.844075862 C59.7695975,1.09235172 60.0929948,1.36545517 59.5805345,2.87931724 L55.7271318,14.6451103 L55.6736468,14.6451103 L51.9278359,2.35793793 C51.5770742,1.24131724 51.8196222,1.06752414 53.9758112,0.844075862 L53.9758112,0.248213793 L47.1042414,0.248213793 L47.1042414,0.844075862 C48.6938633,0.993041379 49.1248523,1.34062759 49.3947647,2.20897241 L49.906603,3.82276552 L45.8915016,14.6451103 L45.8373948,14.6451103 L41.4721537,2.35793793 C41.0679071,1.26614483 41.3645619,1.06752414 43.520129,0.844075862 L43.520129,0.248213793 L36.6218167,0.248213793 L36.6218167,0.844075862 C38.2381811,0.993041379 38.6156852,1.36545517 38.91234,2.20897241 L44.5979126,17.7479379 L45.8915016,17.7479379 L50.4458058,5.4855931 L54.4068003,17.7479379 Z M78.8208058,0.248213793 L65.266729,0.248213793 L65.266729,0.844075862 C67.3414468,0.968213793 67.5839948,0.993041379 67.5839948,2.01097241 L67.5839948,15.8616621 C67.5839948,16.8795931 67.3414468,16.9044207 65.266729,17.0285586 L65.266729,17.6238 L78.9825044,17.6238 L79.2524167,13.5781448 L78.6056222,13.5781448 C77.9855701,16.0354552 76.7728304,16.7802828 74.6440058,16.7802828 L69.8745181,16.7802828 L69.8745181,9.23393793 L72.5692879,9.23393793 C74.293866,9.23393793 75.2640578,9.73048966 75.5066058,11.7160759 L76.1534003,11.7160759 L76.1534003,5.8580069 L75.5066058,5.8580069 C75.2640578,7.84421379 74.293866,8.34014483 72.5692879,8.34014483 L69.8745181,8.34014483 L69.8745181,1.09235172 L74.8598112,1.09235172 C76.9886359,1.09235172 77.7703866,2.13448966 78.3089674,4.29448966 L78.9557619,4.29448966 L78.8208058,0.248213793 Z M93.9116414,5.18766207 L93.642351,1.11717931 C92.1603208,0.372351724 90.327529,-6.20689655e-05 88.6838003,-6.20689655e-05 C84.9920962,-6.20689655e-05 82.890014,1.93648966 82.890014,4.41862759 C82.890014,9.85462759 92.1603208,8.88635172 92.1603208,13.5036621 C92.1603208,15.5140759 90.7050332,16.9540759 88.3062962,16.9540759 C86.2856852,16.9540759 83.9677975,16.283731 83.2401537,12.3119379 L82.5939811,12.3119379 L82.8632715,16.6313172 C84.3453016,17.3761448 86.4200195,17.8720759 88.360403,17.8720759 C91.9712578,17.8720759 94.4234797,15.9858 94.4234797,12.9574552 C94.4234797,7.2980069 85.1537948,7.99317931 85.1537948,3.69862759 C85.1537948,1.88683448 86.6625674,0.918558621 88.7379071,0.918558621 C91.0284304,0.918558621 92.537203,2.28345517 93.2648468,5.18766207 L93.9116414,5.18766207 Z M114.745266,2.58076552 C114.45483,2.82655862 114.239647,3.14435172 114.098472,3.53476552 C113.957296,3.92455862 113.862765,4.36586897 113.816121,4.85683448 C113.768855,5.34842069 113.737137,5.8400069 113.721589,6.33097241 C114.00394,6.24407586 114.352836,6.11435172 114.768899,5.94055862 C115.18434,5.76738621 115.592318,5.55821379 115.992833,5.31242069 C116.392726,5.06662759 116.733537,4.78855862 117.015888,4.4775931 C117.298239,4.16724828 117.439414,3.83083448 117.439414,3.4695931 C117.439414,3.10835172 117.306324,2.80855862 117.039521,2.57021379 C116.772718,2.33186897 116.412006,2.21269655 115.957384,2.21269655 C115.439326,2.21269655 115.035702,2.3355931 114.745266,2.58076552 L114.745266,2.58076552 Z M109.03917,8.34697241 C108.64674,8.63621379 108.337025,8.95028276 108.109403,9.2898 C107.881781,9.62931724 107.728789,9.99428276 107.650428,10.3840759 C107.572066,10.7744897 107.532885,11.1860069 107.532885,11.619869 C107.532885,11.8799379 107.544702,12.2089034 107.568335,12.6061448 C107.591967,13.0040069 107.63488,13.4223517 107.697693,13.8630414 C107.760507,14.3043517 107.854417,14.7487655 107.980044,15.1962828 C108.105672,15.6444207 108.27048,16.0491103 108.474469,16.4103517 C108.677836,16.7715931 108.932822,17.0639379 109.238806,17.2880069 C109.544789,17.5120759 109.909855,17.6238 110.333381,17.6238 C110.756907,17.6238 111.133167,17.5449724 111.462784,17.3854552 C111.7924,17.2265586 112.086567,17.0353862 112.345285,16.8113172 C112.604003,16.5872483 112.827272,16.3526276 113.015713,16.1068345 C113.204154,15.8610414 113.360877,15.6444207 113.486504,15.4563517 C113.12517,14.9219379 112.831003,14.3726276 112.604003,13.8090414 C112.376381,13.2454552 112.199756,12.6967655 112.074751,12.161731 C111.948502,11.6273172 111.862677,11.1251793 111.815411,10.6553172 C111.768767,10.1860759 111.745135,9.79193793 111.745135,9.47414483 C111.745135,9.14145517 111.756951,8.75848966 111.780584,8.32524828 C111.804217,7.89138621 111.839044,7.48731724 111.88631,7.11117931 L110.544833,7.58786897 C109.933488,7.80511034 109.430978,8.05773103 109.03917,8.34697241 L109.03917,8.34697241 Z M112.298019,5.30124828 C112.478376,4.74511034 112.72963,4.2138 113.051162,3.70793793 C113.372693,3.20269655 113.764502,2.77628276 114.22783,2.42931724 C114.689915,2.08235172 115.243422,1.90917931 115.886485,1.90917931 C116.498452,1.90917931 116.964891,2.06062759 117.287044,2.36414483 C117.607954,2.66766207 117.76903,3.05062759 117.76903,3.51304138 C117.76903,3.91773103 117.61977,4.29014483 117.321872,4.62904138 C117.023973,4.96917931 116.663261,5.26897241 116.239735,5.52904138 C115.816208,5.78911034 115.372781,6.01317931 114.910074,6.20062759 C114.447367,6.38869655 114.051206,6.53331724 113.721589,6.63448966 C113.753307,7.42897241 113.804304,8.2998 113.874581,9.24635172 C113.94548,10.1929034 114.098472,11.1649034 114.333556,12.161731 L114.663173,13.5272483 L114.709817,13.5272483 C115.102247,12.7904897 115.466691,12.1040069 115.804392,11.4678 C116.141472,10.8322138 116.494099,10.2798 116.862896,9.80993793 C117.231693,9.34069655 117.631587,8.9720069 118.063198,8.70448966 C118.494808,8.43697241 119.000428,8.30352414 119.581299,8.30352414 C120.177096,8.30352414 120.667167,8.44814483 121.051513,8.73676552 C121.435858,9.0260069 121.62803,9.40152414 121.62803,9.86393793 C121.62803,10.1531793 121.549669,10.3952483 121.392945,10.5901448 C121.236222,10.7850414 121.000515,10.8831103 120.687069,10.8831103 C120.122367,10.8831103 119.840017,10.6373172 119.840017,10.145731 C119.840017,10.0160069 119.851833,9.91111034 119.875466,9.83166207 C119.898477,9.75221379 119.92211,9.68331724 119.945743,9.6255931 C119.969376,9.56786897 119.988655,9.50642069 120.004825,9.44124828 C120.020373,9.37607586 120.028458,9.27862759 120.028458,9.14890345 C120.028458,8.94655862 119.961291,8.80566207 119.8282,8.72621379 C119.694488,8.64676552 119.518485,8.60704138 119.298948,8.60704138 C118.969332,8.60704138 118.57317,8.75166207 118.110463,9.04028276 C117.647135,9.32952414 117.172611,9.85711034 116.686893,10.6230414 C116.514,10.8973862 116.341729,11.189731 116.168836,11.5006966 C115.995943,11.8116621 115.828025,12.1182828 115.663217,12.4218 C115.498408,12.7253172 115.341063,13.0145586 115.192425,13.2889034 C115.043165,13.563869 114.913806,13.8022138 114.804348,14.0039379 C114.86654,14.3223517 114.980973,14.7015931 115.145159,15.1422828 C115.309967,15.5829724 115.486592,15.9622138 115.675033,16.2800069 C115.753395,16.4103517 115.847304,16.5549724 115.957384,16.713869 C116.066841,16.8727655 116.200554,17.0173862 116.357277,17.1471103 C116.514,17.2774552 116.702441,17.3891793 116.921978,17.4829034 C117.141515,17.5772483 117.400233,17.6238 117.698754,17.6238 C118.10611,17.6238 118.474907,17.5232483 118.804524,17.3209034 C119.13414,17.1185586 119.428307,16.8622138 119.687025,16.5512483 C119.945743,16.2402828 120.169633,15.8976621 120.357452,15.5215241 C120.545893,15.1460069 120.706348,14.7847655 120.840061,14.4378 C120.973151,14.0908345 121.075145,13.7842138 121.146044,13.5166966 C121.216321,13.2491793 121.259233,13.0648345 121.275403,12.9636621 L121.605019,13.0288345 C121.573302,13.115731 121.522304,13.2994552 121.452028,13.5812483 C121.381129,13.8630414 121.282866,14.1851793 121.157861,14.5458 C121.032233,14.9076621 120.871156,15.2869034 120.675252,15.6841448 C120.478726,16.0813862 120.236178,16.4426276 119.945743,16.767869 C119.655307,17.0931103 119.306411,17.363731 118.898433,17.5809724 C118.490455,17.7975931 118.019663,17.9055931 117.48668,17.9055931 C117.047606,17.9055931 116.643359,17.847869 116.275184,17.7324207 C115.906387,17.6169724 115.564954,17.4580759 115.251507,17.255731 C114.937439,17.0533862 114.651356,16.8187655 114.392639,16.5512483 C114.133299,16.283731 113.894482,16.0056621 113.674945,15.7164207 L113.368962,16.1285586 C112.960362,16.677869 112.493924,17.1111103 111.968403,17.4289034 C111.442882,17.7466966 110.78054,17.9055931 109.980132,17.9055931 C109.524888,17.9055931 109.031085,17.8261448 108.49748,17.6672483 C107.964496,17.5083517 107.470072,17.2520069 107.01545,16.8982138 C106.560206,16.5438 106.180214,16.0851103 105.87423,15.5215241 C105.568247,14.9579379 105.415255,14.2640069 105.415255,13.4403517 C105.415255,12.6601448 105.552077,11.9413862 105.826965,11.2840759 C106.10123,10.6267655 106.470028,10.037731 106.932735,9.51697241 C107.395441,8.99683448 107.929047,8.54931724 108.532929,8.17317931 C109.136811,7.79766207 109.76868,7.5015931 110.427291,7.28435172 L111.933576,6.78593793 C111.995767,6.35269655 112.117663,5.8580069 112.298019,5.30124828 L112.298019,5.30124828 Z M141.016318,16.9789034 C137.29725,16.9789034 134.387296,13.9009034 134.387296,8.9360069 C134.387296,3.97173103 137.29725,0.893731034 141.016318,0.893731034 C144.249669,0.893731034 145.866655,2.75517931 146.405858,4.9400069 L147.05203,4.9400069 L146.78274,1.4895931 C145.704956,0.868903448 143.711088,-6.20689655e-05 141.016318,-6.20689655e-05 C135.922811,-6.20689655e-05 131.935074,3.72345517 131.935074,8.9360069 C131.935074,14.1491793 135.922811,17.8720759 141.016318,17.8720759 C143.711088,17.8720759 145.704956,17.003731 146.78274,16.3830414 L147.160244,12.9326276 L146.51345,12.9326276 C145.974247,14.9182138 144.680658,16.9789034 141.016318,16.9789034 L141.016318,16.9789034 Z M151.687184,10.9222138 C151.687184,15.2161448 153.789266,17.8720759 158.558754,17.8720759 C162.951359,17.8720759 165.672872,15.3899379 165.672872,10.9222138 L165.672872,2.01097241 C165.672872,0.993041379 165.915419,0.968213793 168.151836,0.844075862 L168.151836,0.248213793 L162.035274,0.248213793 L162.035274,0.844075862 C164.325798,0.968213793 164.568345,0.993041379 164.568345,2.01097241 L164.568345,10.6739379 C164.568345,14.4713172 162.735554,16.6561448 159.232291,16.6561448 C155.6488,16.6561448 153.977707,14.4961448 153.977707,10.6739379 L153.977707,2.01097241 C153.977707,0.993041379 154.220255,0.968213793 156.294973,0.844075862 L156.294973,0.248213793 L149.369918,0.248213793 L149.369918,0.844075862 C151.444636,0.968213793 151.687184,0.993041379 151.687184,2.01097241 L151.687184,10.9222138 Z M170.739014,0.248213793 L170.739014,0.844075862 C172.813732,0.968213793 173.05628,0.993041379 173.05628,2.01097241 L173.05628,15.8616621 C173.05628,16.8795931 172.813732,16.9044207 170.739014,17.0285586 L170.739014,17.6238 L177.664069,17.6238 L177.664069,17.0285586 C175.589351,16.9044207 175.346803,16.8795931 175.346803,15.8616621 L175.346803,10.0780759 L177.23308,10.0780759 C178.230014,10.6987655 179.119356,11.889869 179.873743,12.9574552 L181.463987,15.1913172 C181.92234,15.9361448 182.784318,16.9789034 183.457855,17.6238 L187.446214,17.6238 L187.446214,17.0285586 C186.36843,16.9044207 185.317389,16.7554552 184.320455,15.4892483 L181.975825,12.4112483 C181.32903,11.5671103 180.493795,10.6491103 179.308419,9.97876552 C183.40437,9.45738621 184.859036,7.14904138 184.859036,4.96483448 C184.859036,2.2338 182.622619,0.248213793 178.580776,0.248213793 L170.739014,0.248213793 Z M178.01483,1.09235172 C181.437244,1.09235172 182.406814,3.22690345 182.406814,5.21248966 C182.406814,7.39731724 181.275545,9.18428276 177.313929,9.18428276 L175.346803,9.18428276 L175.346803,1.09235172 L178.01483,1.09235172 Z M187.796354,4.29448966 L188.443148,4.29448966 C188.982351,2.13448966 189.709995,1.09235172 191.838819,1.09235172 L193.751839,1.09235172 L193.751839,15.8616621 C193.751839,16.8795931 193.509291,16.9044207 191.434573,17.0285586 L191.434573,17.6238 L198.36025,17.6238 L198.36025,17.0285586 C196.28491,16.9044207 196.042362,16.8795931 196.042362,15.8616621 L196.042362,1.09235172 L197.956003,1.09235172 C200.084828,1.09235172 200.81185,2.13448966 201.351052,4.29448966 L201.997847,4.29448966 L201.862891,0.248213793 L187.93131,0.248213793 L187.796354,4.29448966 Z M206.929033,15.8616621 C206.929033,16.8795931 206.686485,16.9044207 204.611767,17.0285586 L204.611767,17.6238 L211.537444,17.6238 L211.537444,17.0285586 C209.462104,16.9044207 209.219556,16.8795931 209.219556,15.8616621 L209.219556,2.01097241 C209.219556,0.993041379 209.462104,0.968213793 211.537444,0.844075862 L211.537444,0.248213793 L204.611767,0.248213793 L204.611767,0.844075862 C206.686485,0.968213793 206.929033,0.993041379 206.929033,2.01097241 L206.929033,15.8616621 Z M226.088455,5.18766207 L225.819165,1.11717931 C224.337135,0.372351724 222.504343,-6.20689655e-05 220.860614,-6.20689655e-05 C217.16891,-6.20689655e-05 215.06745,1.93648966 215.06745,4.41862759 C215.06745,9.85462759 224.337135,8.88635172 224.337135,13.5036621 C224.337135,15.5140759 222.881847,16.9540759 220.483732,16.9540759 C218.462499,16.9540759 216.145233,16.283731 215.417589,12.3119379 L214.770795,12.3119379 L215.040085,16.6313172 C216.522115,17.3761448 218.597455,17.8720759 220.537217,17.8720759 C224.148693,17.8720759 226.600915,15.9858 226.600915,12.9574552 C226.600915,7.2980069 217.330608,7.99317931 217.330608,3.69862759 C217.330608,1.88683448 218.840003,0.918558621 220.914721,0.918558621 C223.205244,0.918558621 224.714017,2.28345517 225.441661,5.18766207 L226.088455,5.18766207 Z" id="Fill-1" fill="#2D2D2D" mask="url(#mask-2)"></path>
                </g>
                <path d="M49.6185474,71.4101447 C50.0831305,71.4101447 50.4802741,71.2602792 50.7725118,70.9755347 C51.0722428,70.6758037 51.2520814,70.2112206 51.2520814,69.5967721 L51.2520814,66.0899193 L50.6526194,66.0899193 L50.6526194,69.6042654 C50.6526194,70.4360189 50.2180095,70.8631356 49.6260407,70.8631356 C49.0790316,70.8631356 48.7493275,70.600871 48.4271167,70.1138081 L48,70.4809786 C48.3297041,71.0204944 48.8317535,71.4101447 49.6185474,71.4101447 Z M54.1851475,71.3352119 L58.0142111,71.3352119 L58.0142111,70.7956961 L54.7771162,70.7956961 L54.7771162,68.9598437 L57.6395473,68.9598437 L57.6395473,68.4203279 L54.7771162,68.4203279 L54.7771162,66.6294351 L57.9767447,66.6294351 L57.9767447,66.0899193 L54.1851475,66.0899193 L54.1851475,71.3352119 Z M60.7374654,71.3352119 L60.7374654,66.0899193 L62.9929413,66.0899193 C63.6373629,66.0899193 64.1543989,66.2847445 64.484103,66.6144486 C64.7388744,66.8692199 64.8887399,67.2363904 64.8887399,67.6485205 L64.8887399,67.6635071 C64.8887399,68.532727 64.2892779,69.0422697 63.4650176,69.1921352 L65.0760718,71.3352119 L64.3492241,71.3352119 L62.8280892,69.2970411 L61.3294342,69.2970411 L61.3294342,71.3352119 L60.7374654,71.3352119 Z M61.3294342,68.7650185 L62.9404883,68.7650185 C63.7272822,68.7650185 64.2892779,68.3603817 64.2892779,67.6859869 L64.2892779,67.6710004 C64.2892779,67.0265787 63.7947217,66.6369284 62.9479816,66.6369284 L61.3294342,66.6369284 L61.3294342,68.7650185 Z M67.686927,71.3352119 L68.2639092,71.3352119 L68.2639092,67.0940182 L70.1746943,69.8965031 L70.2046675,69.8965031 L72.1154526,67.0865249 L72.1154526,71.3352119 L72.7074214,71.3352119 L72.7074214,66.0899193 L72.1079593,66.0899193 L70.1971742,68.9523504 L68.286389,66.0899193 L67.686927,66.0899193 L67.686927,71.3352119 Z M77.3639407,71.3352119 L77.9634027,71.3352119 L77.9634027,69.2520814 L80.1439458,66.0899193 L79.4545645,66.0899193 L77.671165,68.7125656 L75.902752,66.0899193 L75.1833976,66.0899193 L77.3639407,69.2595747 L77.3639407,71.3352119 Z M82.6199221,71.3352119 L83.1969043,71.3352119 L83.1969043,67.034072 L86.5838646,71.3352119 L87.055941,71.3352119 L87.055941,66.0899193 L86.4789588,66.0899193 L86.4789588,70.2936467 L83.1744244,66.0899193 L82.6199221,66.0899193 L82.6199221,71.3352119 Z M95.6496252,71.4101447 C96.6911905,71.4101447 97.440518,70.8256692 97.440518,69.9264762 L97.440518,69.9114896 C97.440518,69.1097092 96.9010022,68.6825925 95.7320513,68.4278212 C94.5780869,68.1805431 94.308329,67.9032919 94.308329,67.4087357 L94.308329,67.3937492 C94.308329,66.9216728 94.7429389,66.5470091 95.424827,66.5470091 C95.9643428,66.5470091 96.4514057,66.7193544 96.9384686,67.116498 L97.2831592,66.6594082 C96.7511367,66.2322915 96.2041276,66.0149866 95.4398135,66.0149866 C94.4432079,66.0149866 93.7163602,66.6219418 93.7163602,67.4462021 L93.7163602,67.4611887 C93.7163602,68.3229153 94.2708626,68.7125656 95.4772799,68.9748302 C96.5787914,69.2071218 96.841056,69.484373 96.841056,69.9714358 L96.841056,69.9864224 C96.841056,70.5034584 96.3764729,70.8781221 95.6721051,70.8781221 C94.9452574,70.8781221 94.4207281,70.6308441 93.873719,70.1362879 L93.5065485,70.5708979 C94.1359837,71.1328935 94.8178717,71.4101447 95.6496252,71.4101447 Z M101.452616,71.3352119 L102.052078,71.3352119 L102.052078,66.6369284 L103.812997,66.6369284 L103.812997,66.0899193 L99.691696,66.0899193 L99.691696,66.6369284 L101.452616,66.6369284 L101.452616,71.3352119 Z M105.397274,72.2493915 C105.966763,72.1220058 106.229027,71.8297681 106.229027,71.2228128 L106.229027,70.548418 L105.539646,70.548418 L105.539646,71.3352119 L105.809404,71.3352119 C105.839377,71.6574228 105.682018,71.8522479 105.307355,71.9871269 L105.397274,72.2493915 Z M112.85198,71.3352119 L116.396299,71.3352119 L116.396299,70.7882028 L113.443949,70.7882028 L113.443949,66.0899193 L112.85198,66.0899193 L112.85198,71.3352119 Z M121.157725,71.4251312 C119.561657,71.4251312 118.490119,70.1737543 118.490119,68.7275522 L118.490119,68.7125656 C118.490119,67.2663635 119.576644,66 121.172711,66 C122.768779,66 123.840317,67.251377 123.840317,68.6975791 L123.840317,68.7125656 C123.840317,70.1587677 122.753792,71.4251312 121.157725,71.4251312 Z M121.172711,70.8781221 C122.371635,70.8781221 123.225869,69.9189829 123.225869,68.7275522 L123.225869,68.7125656 C123.225869,67.5211349 122.356649,66.5470091 121.157725,66.5470091 C119.958801,66.5470091 119.104567,67.5061483 119.104567,68.6975791 L119.104567,68.7125656 C119.104567,69.9039964 119.973787,70.8781221 121.172711,70.8781221 Z M126.623518,71.3352119 L127.2005,71.3352119 L127.2005,67.034072 L130.58746,71.3352119 L131.059537,71.3352119 L131.059537,66.0899193 L130.482554,66.0899193 L130.482554,70.2936467 L127.17802,66.0899193 L126.623518,66.0899193 L126.623518,71.3352119 Z M134.075029,71.3352119 L134.075029,66.0899193 L135.895895,66.0899193 C137.544415,66.0899193 138.683393,67.2214039 138.683393,68.6975791 L138.683393,68.7125656 C138.683393,70.1887408 137.544415,71.3352119 135.895895,71.3352119 L134.075029,71.3352119 Z M135.895895,66.6369284 L134.666997,66.6369284 L134.666997,70.7882028 L135.895895,70.7882028 C137.222204,70.7882028 138.068944,69.8890098 138.068944,68.7275522 L138.068944,68.7125656 C138.068944,67.551108 137.222204,66.6369284 135.895895,66.6369284 Z M143.901908,71.4251312 C142.30584,71.4251312 141.234302,70.1737543 141.234302,68.7275522 L141.234302,68.7125656 C141.234302,67.2663635 142.320827,66 143.916895,66 C145.512962,66 146.5845,67.251377 146.5845,68.6975791 L146.5845,68.7125656 C146.5845,70.1587677 145.497976,71.4251312 143.901908,71.4251312 Z M143.916895,70.8781221 C145.115819,70.8781221 145.970052,69.9189829 145.970052,68.7275522 L145.970052,68.7125656 C145.970052,67.5211349 145.100832,66.5470091 143.901908,66.5470091 C142.702984,66.5470091 141.848751,67.5061483 141.848751,68.6975791 L141.848751,68.7125656 C141.848751,69.9039964 142.71797,70.8781221 143.916895,70.8781221 Z M149.367701,71.3352119 L149.944683,71.3352119 L149.944683,67.034072 L153.331644,71.3352119 L153.80372,71.3352119 L153.80372,66.0899193 L153.226738,66.0899193 L153.226738,70.2936467 L149.922203,66.0899193 L149.367701,66.0899193 L149.367701,71.3352119 Z M161.19848,71.3352119 L161.782956,71.3352119 L161.782956,66.0524529 L161.348346,66.0524529 L160.066996,66.4945562 L160.209368,66.9741258 L161.19848,66.6669015 L161.19848,71.3352119 Z M166.297103,70.8856154 C167.308695,70.8856154 167.855704,69.8290636 167.855704,68.6975791 L167.855704,68.5926732 C167.526,69.1022159 167.04643,69.4244268 166.372036,69.4244268 C165.293004,69.4244268 164.543676,68.7425387 164.543676,67.798386 L164.543676,67.7833995 C164.543676,66.7867939 165.315484,66 166.431982,66 C167.031444,66 167.473547,66.2023184 167.810744,66.5395158 C168.207888,66.9366594 168.462659,67.5211349 168.462659,68.5701934 L168.462659,68.5851799 C168.462659,70.248687 167.578453,71.4251312 166.282116,71.4251312 C165.600228,71.4251312 165.105672,71.14788 164.663569,70.7807096 L165.008259,70.3236198 C165.435376,70.6982835 165.83252,70.8856154 166.297103,70.8856154 Z M166.439475,68.914884 C167.241255,68.914884 167.743305,68.3304086 167.743305,67.7309466 L167.743305,67.71596 C167.743305,67.0490585 167.196296,66.5245293 166.409502,66.5245293 C165.622708,66.5245293 165.150632,67.1015114 165.150632,67.7534264 L165.150632,67.7684129 C165.150632,68.4353144 165.675161,68.914884 166.439475,68.914884 Z M171.792869,71.3352119 L172.377344,71.3352119 L172.377344,66.0524529 L171.942734,66.0524529 L170.661384,66.4945562 L170.803757,66.9741258 L171.792869,66.6669015 L171.792869,71.3352119 Z M176.996397,71.4251312 C177.970523,71.4251312 178.749824,70.7807096 178.749824,69.8440502 L178.749824,69.8290636 C178.749824,68.8699244 177.933057,68.4278212 177.018877,68.3528884 L178.667398,66.5245293 L178.667398,66.0899193 L175.317904,66.0899193 L175.317904,66.6219418 L177.880604,66.6219418 L176.22459,68.4877674 L176.344482,68.8399513 L176.68168,68.8399513 C177.543406,68.8399513 178.150362,69.1996285 178.150362,69.8515434 L178.150362,69.86653 C178.150362,70.4809786 177.640819,70.8856154 177.003891,70.8856154 C176.359469,70.8856154 175.872406,70.600871 175.475262,70.1063148 L175.040653,70.4884718 C175.467769,71.0429742 176.119684,71.4251312 176.996397,71.4251312 Z" id="Page-1" stroke="#2D2D2D" stroke-width="0.2" fill="#2D2D2D"></path>
                <g id="Unknown-Copy" transform="translate(82.000000, 0.000000)" fill="#A59073">
                    <g id="Layer_1">
                        <g id="Group">
                            <g transform="translate(0.207753, 0.000000)">
                                <g>
                                    <ellipse id="Oval" cx="35.9549742" cy="3.54510294" rx="1.03721004" ry="1.02857721"></ellipse>
                                    <ellipse id="Oval" cx="42.0629889" cy="3.77367565" rx="1.03721004" ry="1.02857721"></ellipse>
                                    <ellipse id="Oval" cx="33.8805541" cy="4.34510744" rx="1.03721004" ry="1.02857721"></ellipse>
                                    <path d="M32.9585896,3.54510294 L32.612853,3.54510294 C32.2671163,4.00224836 31.6908885,4.23082108 31.1146607,4.34510744 L30.768924,4.34510744 C30.1926962,4.34510744 29.6164684,4.00224836 29.1554862,3.54510294 L28.924995,3.54510294 C28.924995,4.00224836 29.2707317,4.34510744 29.6164684,4.57368015 L29.6164684,4.68796651 C29.3859773,5.03082558 29.2707317,5.14511193 29.0402406,5.25939829 L29.0402406,6.05940279 C29.3859773,6.2879755 29.731714,6.40226186 30.0774506,6.51654822 L30.0774506,6.51654822 L30.0774506,6.51654822 C30.5384329,6.63083457 30.8841696,6.74512093 30.8841696,6.63083457 L30.8841696,6.63083457 L30.8841696,6.63083457 L30.9994151,6.63083457 L30.9994151,6.63083457 L30.9994151,6.63083457 C31.1146607,6.63083457 31.3451518,6.63083457 31.6908885,6.51654822 L31.6908885,6.51654822 L31.6908885,6.51654822 C32.0366252,6.40226186 32.3823618,6.2879755 32.7280985,6.05940279 L32.7280985,5.25939829 C32.4976074,5.14511193 32.3823618,5.03082558 32.1518707,4.68796651 L32.1518707,4.57368015 C32.612853,4.34510744 32.8433441,4.00224836 32.9585896,3.54510294 Z" id="Shape"></path>
                                    <ellipse id="Oval" cx="38.0293943" cy="2.85938479" rx="1.03721004" ry="1.02857721"></ellipse>
                                    <ellipse id="Oval" cx="40.1038144" cy="2.97367115" rx="1.03721004" ry="1.02857721"></ellipse>
                                    <ellipse id="Oval" cx="30.8841696" cy="2.0593803" rx="2.07442008" ry="2.05715443"></ellipse>
                                    <ellipse id="Oval" cx="21.6645248" cy="2.85938479" rx="1.03721004" ry="1.02857721"></ellipse>
                                    <path d="M25.006646,22.2880655 L25.006646,19.5451929 L26.5048383,19.5451929 L26.5048383,22.2880655 L26.043856,22.9737836 L27.0810661,24.8023653 L28.0030306,22.9737836 L27.6572939,22.4023518 L27.6572939,19.7737656 L29.1554862,19.7737656 L29.1554862,22.5166382 L28.6945039,23.2023563 L29.731714,25.030938 L30.6536784,23.2023563 L30.3079418,22.6309246 L30.3079418,20.0023383 L31.806134,20.0023383 L31.806134,22.7452109 L31.3451518,23.4309291 L32.3823618,25.2595108 L33.3043263,23.4309291 L32.7280985,22.2880655 L32.7280985,19.6594793 L34.2262908,19.6594793 L34.2262908,22.4023518 L33.8805541,22.9737836 L34.9177642,24.8023653 L35.8397286,22.9737836 L35.493992,22.4023518 L35.493992,19.7737656 L36.9921842,19.7737656 L36.9921842,22.5166382 L36.6464476,23.2023563 L38.1446398,25.030938 L38.1446398,8.34512993 L23.8541904,8.34512993 L23.8541904,24.688079 L25.3523827,22.8594973 L25.006646,22.2880655 Z M37.4531665,8.687989 C37.568412,8.687989 37.6836576,8.80227536 37.6836576,8.91656171 C37.6836576,9.03084807 37.568412,9.14513443 37.4531665,9.14513443 C37.3379209,9.14513443 37.2226754,9.03084807 37.2226754,8.91656171 C37.2226754,8.80227536 37.3379209,8.687989 37.4531665,8.687989 Z M37.4531665,11.2022889 C37.568412,11.2022889 37.6836576,11.3165752 37.6836576,11.4308616 C37.6836576,11.5451479 37.568412,11.6594343 37.4531665,11.6594343 C37.3379209,11.6594343 37.2226754,11.5451479 37.2226754,11.4308616 C37.2226754,11.3165752 37.3379209,11.2022889 37.4531665,11.2022889 Z M37.4531665,13.7165887 C37.568412,13.7165887 37.6836576,13.8308751 37.6836576,13.9451614 C37.6836576,14.0594478 37.568412,14.1737341 37.4531665,14.1737341 C37.3379209,14.1737341 37.2226754,14.0594478 37.2226754,13.9451614 C37.2226754,13.8308751 37.3379209,13.7165887 37.4531665,13.7165887 Z M37.4531665,16.3451749 C37.568412,16.3451749 37.6836576,16.4594613 37.6836576,16.5737476 C37.6836576,16.688034 37.568412,16.8023203 37.4531665,16.8023203 C37.3379209,16.8023203 37.2226754,16.688034 37.2226754,16.5737476 C37.2226754,16.4594613 37.3379209,16.3451749 37.4531665,16.3451749 Z M37.4531665,18.8594748 C37.568412,18.8594748 37.6836576,18.9737611 37.6836576,19.0880475 C37.6836576,19.2023338 37.568412,19.3166202 37.4531665,19.3166202 C37.3379209,19.3166202 37.2226754,19.2023338 37.2226754,19.0880475 C37.2226754,18.9737611 37.3379209,18.8594748 37.4531665,18.8594748 Z M35.3787464,9.4879935 L36.8769387,9.4879935 L36.8769387,10.9737161 L35.3787464,10.9737161 L35.3787464,9.4879935 Z M35.3787464,12.0022934 L36.8769387,12.0022934 L36.8769387,13.488016 L35.3787464,13.488016 L35.3787464,12.0022934 Z M35.3787464,14.5165932 L36.8769387,14.5165932 L36.8769387,16.0023158 L35.3787464,16.0023158 L35.3787464,14.5165932 Z M35.3787464,17.1451794 L36.8769387,17.1451794 L36.8769387,18.6309021 L35.3787464,18.6309021 L35.3787464,17.1451794 Z M34.8025186,8.687989 C34.9177642,8.687989 35.0330097,8.80227536 35.0330097,8.91656171 C35.0330097,9.03084807 34.9177642,9.14513443 34.8025186,9.14513443 C34.687273,9.14513443 34.5720275,9.03084807 34.5720275,8.91656171 C34.687273,8.80227536 34.8025186,8.687989 34.8025186,8.687989 Z M34.8025186,11.2022889 C34.9177642,11.2022889 35.0330097,11.3165752 35.0330097,11.4308616 C35.0330097,11.5451479 34.9177642,11.6594343 34.8025186,11.6594343 C34.687273,11.6594343 34.5720275,11.5451479 34.5720275,11.4308616 C34.5720275,11.3165752 34.8025186,11.2022889 34.8025186,11.2022889 Z M34.8025186,13.7165887 C34.9177642,13.7165887 35.0330097,13.8308751 35.0330097,13.9451614 C35.0330097,14.0594478 34.9177642,14.1737341 34.8025186,14.1737341 C34.687273,14.1737341 34.5720275,14.0594478 34.5720275,13.9451614 C34.5720275,13.8308751 34.8025186,13.7165887 34.8025186,13.7165887 Z M34.8025186,16.3451749 C34.9177642,16.3451749 35.0330097,16.4594613 35.0330097,16.5737476 C35.0330097,16.688034 34.9177642,16.8023203 34.8025186,16.8023203 C34.687273,16.8023203 34.5720275,16.688034 34.5720275,16.5737476 C34.687273,16.4594613 34.8025186,16.3451749 34.8025186,16.3451749 Z M34.8025186,18.8594748 C34.9177642,18.8594748 35.0330097,18.9737611 35.0330097,19.0880475 C35.0330097,19.2023338 34.9177642,19.3166202 34.8025186,19.3166202 C34.687273,19.3166202 34.5720275,19.2023338 34.5720275,19.0880475 C34.5720275,18.9737611 34.8025186,18.8594748 34.8025186,18.8594748 Z M32.8433441,9.4879935 L34.3415364,9.4879935 L34.3415364,10.9737161 L32.8433441,10.9737161 L32.8433441,9.4879935 Z M32.8433441,12.0022934 L34.3415364,12.0022934 L34.3415364,13.488016 L32.8433441,13.488016 L32.8433441,12.0022934 Z M32.8433441,14.5165932 L34.3415364,14.5165932 L34.3415364,16.0023158 L32.8433441,16.0023158 L32.8433441,14.5165932 Z M32.8433441,17.0308931 L34.3415364,17.0308931 L34.3415364,18.5166157 L32.8433441,18.5166157 L32.8433441,17.0308931 Z M32.2671163,8.687989 C32.3823618,8.687989 32.4976074,8.80227536 32.4976074,8.91656171 C32.4976074,9.03084807 32.3823618,9.14513443 32.2671163,9.14513443 C32.1518707,9.14513443 32.0366252,9.03084807 32.0366252,8.91656171 C32.0366252,8.80227536 32.1518707,8.687989 32.2671163,8.687989 Z M32.2671163,11.2022889 C32.3823618,11.2022889 32.4976074,11.3165752 32.4976074,11.4308616 C32.4976074,11.5451479 32.3823618,11.6594343 32.2671163,11.6594343 C32.1518707,11.6594343 32.0366252,11.5451479 32.0366252,11.4308616 C32.0366252,11.3165752 32.1518707,11.2022889 32.2671163,11.2022889 Z M32.2671163,13.7165887 C32.3823618,13.7165887 32.4976074,13.8308751 32.4976074,13.9451614 C32.4976074,14.0594478 32.3823618,14.1737341 32.2671163,14.1737341 C32.1518707,14.1737341 32.0366252,14.0594478 32.0366252,13.9451614 C32.0366252,13.8308751 32.1518707,13.7165887 32.2671163,13.7165887 Z M32.2671163,16.3451749 C32.3823618,16.3451749 32.4976074,16.4594613 32.4976074,16.5737476 C32.4976074,16.688034 32.3823618,16.8023203 32.2671163,16.8023203 C32.1518707,16.8023203 32.0366252,16.688034 32.0366252,16.5737476 C32.0366252,16.4594613 32.1518707,16.3451749 32.2671163,16.3451749 Z M32.2671163,18.8594748 C32.3823618,18.8594748 32.4976074,18.9737611 32.4976074,19.0880475 C32.4976074,19.2023338 32.3823618,19.3166202 32.2671163,19.3166202 C32.1518707,19.3166202 32.0366252,19.2023338 32.0366252,19.0880475 C32.0366252,18.9737611 32.1518707,18.8594748 32.2671163,18.8594748 Z M30.1926962,9.4879935 L31.6908885,9.4879935 L31.6908885,10.9737161 L30.1926962,10.9737161 L30.1926962,9.4879935 Z M30.1926962,12.0022934 L31.6908885,12.0022934 L31.6908885,13.488016 L30.1926962,13.488016 L30.1926962,12.0022934 Z M30.1926962,14.5165932 L31.6908885,14.5165932 L31.6908885,16.0023158 L30.1926962,16.0023158 L30.1926962,14.5165932 Z M30.1926962,17.0308931 L31.6908885,17.0308931 L31.6908885,18.5166157 L30.1926962,18.5166157 L30.1926962,17.0308931 Z M29.6164684,8.687989 C29.731714,8.687989 29.8469595,8.80227536 29.8469595,8.91656171 C29.8469595,9.03084807 29.731714,9.14513443 29.6164684,9.14513443 C29.5012228,9.14513443 29.3859773,9.03084807 29.3859773,8.91656171 C29.3859773,8.80227536 29.5012228,8.687989 29.6164684,8.687989 Z M29.6164684,11.2022889 C29.731714,11.2022889 29.8469595,11.3165752 29.8469595,11.4308616 C29.8469595,11.5451479 29.731714,11.6594343 29.6164684,11.6594343 C29.5012228,11.6594343 29.3859773,11.5451479 29.3859773,11.4308616 C29.3859773,11.3165752 29.5012228,11.2022889 29.6164684,11.2022889 Z M29.6164684,13.7165887 C29.731714,13.7165887 29.8469595,13.8308751 29.8469595,13.9451614 C29.8469595,14.0594478 29.731714,14.1737341 29.6164684,14.1737341 C29.5012228,14.1737341 29.3859773,14.0594478 29.3859773,13.9451614 C29.3859773,13.8308751 29.5012228,13.7165887 29.6164684,13.7165887 Z M29.6164684,16.3451749 C29.731714,16.3451749 29.8469595,16.4594613 29.8469595,16.5737476 C29.8469595,16.688034 29.731714,16.8023203 29.6164684,16.8023203 C29.5012228,16.8023203 29.3859773,16.688034 29.3859773,16.5737476 C29.3859773,16.4594613 29.5012228,16.3451749 29.6164684,16.3451749 Z M29.6164684,18.8594748 C29.731714,18.8594748 29.8469595,18.9737611 29.8469595,19.0880475 C29.8469595,19.2023338 29.731714,19.3166202 29.6164684,19.3166202 C29.5012228,19.3166202 29.3859773,19.2023338 29.3859773,19.0880475 C29.3859773,18.9737611 29.5012228,18.8594748 29.6164684,18.8594748 Z M27.5420483,9.4879935 L29.0402406,9.4879935 L29.0402406,10.9737161 L27.5420483,10.9737161 L27.5420483,9.4879935 Z M27.5420483,12.0022934 L29.0402406,12.0022934 L29.0402406,13.488016 L27.5420483,13.488016 L27.5420483,12.0022934 Z M27.5420483,14.5165932 L29.0402406,14.5165932 L29.0402406,16.0023158 L27.5420483,16.0023158 L27.5420483,14.5165932 Z M27.5420483,17.0308931 L29.0402406,17.0308931 L29.0402406,18.5166157 L27.5420483,18.5166157 L27.5420483,17.0308931 Z M26.9658205,8.687989 C27.0810661,8.687989 27.1963116,8.80227536 27.1963116,8.91656171 C27.1963116,9.03084807 27.0810661,9.14513443 26.9658205,9.14513443 C26.850575,9.14513443 26.7353294,9.03084807 26.7353294,8.91656171 C26.850575,8.80227536 26.9658205,8.687989 26.9658205,8.687989 Z M26.9658205,11.2022889 C27.0810661,11.2022889 27.1963116,11.3165752 27.1963116,11.4308616 C27.1963116,11.5451479 27.0810661,11.6594343 26.9658205,11.6594343 C26.850575,11.6594343 26.7353294,11.5451479 26.7353294,11.4308616 C26.7353294,11.3165752 26.9658205,11.2022889 26.9658205,11.2022889 Z M26.9658205,13.7165887 C27.0810661,13.7165887 27.1963116,13.8308751 27.1963116,13.9451614 C27.1963116,14.0594478 27.0810661,14.1737341 26.9658205,14.1737341 C26.850575,14.1737341 26.7353294,14.0594478 26.7353294,13.9451614 C26.7353294,13.8308751 26.9658205,13.7165887 26.9658205,13.7165887 Z M26.9658205,16.3451749 C27.0810661,16.3451749 27.1963116,16.4594613 27.1963116,16.5737476 C27.1963116,16.688034 27.0810661,16.8023203 26.9658205,16.8023203 C26.850575,16.8023203 26.7353294,16.688034 26.7353294,16.5737476 C26.850575,16.4594613 26.9658205,16.3451749 26.9658205,16.3451749 Z M26.9658205,18.8594748 C27.0810661,18.8594748 27.1963116,18.9737611 27.1963116,19.0880475 C27.1963116,19.2023338 27.0810661,19.3166202 26.9658205,19.3166202 C26.850575,19.3166202 26.7353294,19.2023338 26.7353294,19.0880475 C26.7353294,18.9737611 26.9658205,18.8594748 26.9658205,18.8594748 Z M25.006646,9.4879935 L26.5048383,9.4879935 L26.5048383,10.9737161 L25.006646,10.9737161 L25.006646,9.4879935 Z M25.006646,12.0022934 L26.5048383,12.0022934 L26.5048383,13.488016 L25.006646,13.488016 L25.006646,12.0022934 Z M25.006646,14.5165932 L26.5048383,14.5165932 L26.5048383,16.0023158 L25.006646,16.0023158 L25.006646,14.5165932 Z M25.006646,17.0308931 L26.5048383,17.0308931 L26.5048383,18.5166157 L25.006646,18.5166157 L25.006646,17.0308931 Z M24.4304182,19.3166202 C24.3151726,19.3166202 24.1999271,19.2023338 24.1999271,19.0880475 C24.1999271,18.9737611 24.3151726,18.8594748 24.4304182,18.8594748 C24.5456638,18.8594748 24.6609093,18.9737611 24.6609093,19.0880475 C24.6609093,19.2023338 24.5456638,19.3166202 24.4304182,19.3166202 Z M24.4304182,16.688034 C24.3151726,16.688034 24.1999271,16.5737476 24.1999271,16.4594613 C24.1999271,16.3451749 24.3151726,16.2308886 24.4304182,16.2308886 C24.5456638,16.2308886 24.6609093,16.4594613 24.6609093,16.4594613 C24.6609093,16.5737476 24.5456638,16.688034 24.4304182,16.688034 Z M24.4304182,14.1737341 C24.3151726,14.1737341 24.1999271,14.0594478 24.1999271,13.9451614 C24.1999271,13.8308751 24.3151726,13.7165887 24.4304182,13.7165887 C24.5456638,13.7165887 24.6609093,13.8308751 24.6609093,13.9451614 C24.6609093,14.0594478 24.5456638,14.1737341 24.4304182,14.1737341 Z M24.4304182,11.6594343 C24.3151726,11.6594343 24.1999271,11.5451479 24.1999271,11.4308616 C24.1999271,11.3165752 24.3151726,11.2022889 24.4304182,11.2022889 C24.5456638,11.2022889 24.6609093,11.3165752 24.6609093,11.4308616 C24.6609093,11.5451479 24.5456638,11.6594343 24.4304182,11.6594343 Z M24.4304182,9.14513443 C24.3151726,9.14513443 24.1999271,9.03084807 24.1999271,8.91656171 C24.1999271,8.80227536 24.3151726,8.687989 24.4304182,8.687989 C24.5456638,8.687989 24.6609093,8.80227536 24.6609093,8.91656171 C24.6609093,9.03084807 24.5456638,9.14513443 24.4304182,9.14513443 Z" id="Shape"></path>
                                    <ellipse id="Oval" cx="27.887785" cy="4.23082108" rx="1.03721004" ry="1.02857721"></ellipse>
                                    <ellipse id="Oval" cx="19.7053502" cy="3.77367565" rx="1.03721004" ry="1.02857721"></ellipse>
                                    <ellipse id="Oval" cx="25.9286105" cy="3.43081658" rx="1.03721004" ry="1.02857721"></ellipse>
                                    <ellipse id="Oval" cx="23.8541904" cy="2.85938479" rx="1.03721004" ry="1.02857721"></ellipse>
                                    <path d="M59.9260507,11.7737206 C58.7735951,11.5451479 58.6583495,11.888007 58.6583495,12.0022934 C58.5431039,12.0022934 57.2754028,11.4308616 56.3534383,12.4594388 C55.7772105,13.488016 56.5839294,14.4023068 57.9668761,15.6594568 C59.580314,16.8023203 60.2717873,20.6880565 57.1601572,19.3166202 C56.1229472,17.1451794 54.3942638,17.6023248 53.5875449,16.688034 C52.2045981,15.5451704 52.6655804,13.2594433 52.6655804,13.1451569 L53.1265626,13.1451569 C53.1265626,12.6880115 53.0113171,12.5737251 53.0113171,12.4594388 C53.1265626,12.4594388 53.3570537,12.3451524 53.4722993,12.0022934 C53.5875449,12.4594388 53.9332815,12.6880115 54.2790182,13.2594433 C54.3942638,12.9165842 54.6247549,12.1165797 54.9704916,11.6594343 C55.5467194,10.287998 55.0857371,10.1737116 55.2009827,9.71656621 C55.3162283,9.94513893 55.0857371,9.37370714 55.7772105,9.94513893 C56.0077016,9.71656621 55.7772105,9.37370714 55.6619649,9.37370714 C55.6619649,9.37370714 54.9704916,9.03084807 55.5467194,8.11655722 C55.6619649,7.77369814 55.5467194,8.687989 55.7772105,8.57370264 C56.0077016,8.34512993 55.6619649,7.8879845 55.7772105,7.54512543 C56.0077016,7.31655272 56.0077016,7.08798 55.7772105,6.2879755 C55.4314738,5.71654372 54.855246,5.48797101 54.855246,5.48797101 C54.9704916,5.48797101 55.3162283,5.60225736 55.3162283,5.25939829 C55.3162283,4.91653922 54.9704916,5.03082558 54.855246,5.03082558 C54.855246,4.45939379 55.8924561,5.25939829 55.7772105,5.03082558 C55.8924561,4.68796651 54.7400005,4.57368015 54.855246,4.00224836 C54.9704916,3.77367565 55.2009827,3.65938929 55.3162283,3.54510294 C55.3162283,3.54510294 55.0857371,3.65938929 54.855246,3.65938929 C54.5095093,3.08795751 54.2790182,3.43081658 53.9332815,3.20224387 C53.5875449,3.31653022 54.3942638,2.74509844 53.3570537,2.28795301 C53.3570537,2.40223937 53.2418082,2.63081208 53.1265626,2.63081208 C53.1265626,2.63081208 53.5875449,2.51652572 53.1265626,2.63081208 C52.7808259,2.63081208 52.2045981,2.0593803 51.8588615,2.28795301 C51.5131248,2.28795301 51.8588615,2.51652572 51.8588615,2.74509844 C51.7436159,2.85938479 51.1673881,2.63081208 51.0521425,2.74509844 C50.936897,3.08795751 51.2826337,3.31653022 50.936897,3.65938929 C50.4759147,4.11653472 50.2454236,3.88796201 50.1301781,3.88796201 C50.1301781,3.88796201 50.7064059,4.45939379 48.8624769,5.14511193 C47.9405124,5.71654372 48.1710035,5.71654372 48.1710035,5.83083008 L48.1710035,5.83083008 L48.1710035,5.83083008 C48.1710035,5.83083008 48.4014947,6.63083457 49.5539503,6.63083457 C49.3234591,7.20226636 48.4014947,7.20226636 48.2862491,7.08798 C48.4014947,6.63083457 47.5947757,6.40226186 47.7100213,7.43083907 C47.9405124,8.00227086 48.8624769,8.11655722 49.092968,8.00227086 C49.092968,8.23084357 48.8624769,8.687989 48.8624769,8.80227536 L48.8624769,8.80227536 C49.2082136,8.45941629 51.1673881,8.00227086 50.936897,8.91656171 C50.4759147,9.60227986 48.4014947,9.60227986 47.3642846,10.8594298 C44.5983912,10.6308571 45.2898646,7.20226636 45.2898646,6.97369365 C45.2898646,6.40226186 44.9441279,5.94511643 44.9441279,5.94511643 C44.2526545,7.31655272 44.2526545,5.71654372 43.7916723,6.05940279 C43.6764267,6.17368915 44.0221634,6.97369365 43.6764267,7.08798 L43.2154445,7.08798 C42.4087256,4.57368015 39.6428321,4.34510744 39.1818499,4.34510744 C38.9513588,4.34510744 37.9141487,4.11653472 33.9957997,5.94511643 C32.4976074,6.74512093 31.6908885,6.85940729 31.2299062,6.97369365 L30.9994151,6.97369365 L30.768924,6.97369365 C30.4231873,6.97369365 29.6164684,6.74512093 28.0030306,5.94511643 C24.0846815,4.11653472 23.0474715,4.34510744 22.8169804,4.34510744 C22.2407526,4.34510744 19.4748591,4.57368015 18.7833858,7.08798 L18.3224035,7.08798 C17.9766668,6.97369365 18.3224035,6.17368915 18.207158,6.05940279 C17.7461757,5.60225736 17.7461757,7.31655272 17.0547024,5.83083008 C16.9394568,5.83083008 16.5937201,6.2879755 16.7089657,6.85940729 C16.7089657,7.08798 17.2851935,10.6308571 14.6345456,10.7451434 C13.48209,9.4879935 11.4076699,9.4879935 11.0619332,8.80227536 C10.8314421,7.8879845 12.7906166,8.23084357 13.1363533,8.687989 L13.1363533,8.687989 C13.1363533,8.57370264 12.9058622,8.00227086 12.9058622,7.8879845 C13.0211078,7.8879845 13.9430722,7.77369814 14.2888089,7.31655272 C14.2888089,6.40226186 13.48209,6.63083457 13.7125811,6.97369365 C13.5973356,7.20226636 12.6753711,7.08798 12.44488,6.51654822 C13.5973356,6.51654822 13.8278267,5.71654372 13.8278267,5.71654372 L13.8278267,5.71654372 L13.8278267,5.71654372 C13.8278267,5.71654372 14.0583178,5.60225736 13.1363533,5.03082558 C11.0619332,4.45939379 11.638161,3.88796201 11.638161,3.88796201 C11.5229155,4.00224836 11.1771788,4.11653472 10.8314421,3.65938929 C10.4857054,3.31653022 10.8314421,3.08795751 10.7161966,2.74509844 C10.4857054,2.63081208 10.0247232,2.85938479 9.90947765,2.74509844 C9.90947765,2.40223937 10.2552143,2.17366665 9.90947765,2.28795301 C9.67898653,2.17366665 9.10275873,2.63081208 8.64177649,2.63081208 C8.18079425,2.40223937 8.64177649,2.63081208 8.64177649,2.63081208 C8.52653093,2.63081208 8.41128537,2.40223937 8.41128537,2.28795301 C7.37407533,2.74509844 8.18079425,3.31653022 7.83505757,3.20224387 C7.48932089,3.31653022 7.25882977,3.08795751 6.91309309,3.65938929 C6.79784753,3.65938929 6.45211085,3.54510294 6.45211085,3.54510294 C6.56735641,3.65938929 6.68260197,3.77367565 6.91309309,4.00224836 C7.02833865,4.57368015 5.87588305,4.68796651 5.99112861,5.03082558 C5.87588305,5.37368465 6.91309309,4.57368015 6.91309309,5.03082558 C6.79784753,5.03082558 6.45211085,4.91653922 6.45211085,5.25939829 C6.45211085,5.60225736 6.68260197,5.48797101 6.91309309,5.48797101 C6.91309309,5.48797101 6.33686529,5.71654372 5.99112861,6.2879755 C5.76063749,6.97369365 5.76063749,7.20226636 5.99112861,7.54512543 C6.10637417,7.8879845 5.76063749,8.34512993 5.99112861,8.57370264 C6.22161973,8.57370264 6.10637417,7.77369814 6.22161973,8.11655722 C6.79784753,9.03084807 6.22161973,9.37370714 6.22161973,9.37370714 C6.22161973,9.4879935 5.99112861,9.71656621 6.10637417,9.94513893 C6.79784753,9.4879935 6.68260197,9.94513893 6.68260197,9.71656621 C6.79784753,10.0594253 6.33686529,10.287998 6.91309309,11.6594343 C7.37407533,12.2308661 7.48932089,12.9165842 7.60456645,13.2594433 C7.83505757,12.6880115 8.29603981,12.4594388 8.41128537,12.0022934 C8.52653093,12.3451524 8.75702205,12.3451524 8.87226761,12.4594388 C8.87226761,12.5737251 8.75702205,12.8022979 8.75702205,13.1451569 L9.21800429,13.1451569 C9.21800429,13.2594433 9.67898653,15.5451704 8.29603981,16.688034 C7.60456645,17.6023248 5.76063749,17.1451794 4.72342745,19.3166202 C1.72704289,20.5737701 2.30327069,16.688034 3.91670853,15.6594568 C5.29965525,14.4023068 6.10637417,13.488016 5.53014637,12.4594388 C4.60818189,11.3165752 3.34048073,12.0022934 3.22523517,12.0022934 C3.22523517,12.0022934 2.99474405,11.6594343 1.95753401,11.7737206 C0.459341734,12.2308661 1.26606065,13.0308706 0.113605054,13.7165887 C0.689832853,13.7165887 0.574587294,13.1451569 1.38130621,13.488016 C2.18802513,13.6023024 2.30327069,13.6023024 2.76425293,13.2594433 C3.34048073,12.8022979 3.57097185,12.4594388 3.57097185,12.4594388 C7.02833865,12.2308661 3.34048073,15.3165977 2.99474405,15.6594568 C2.99474405,15.6594568 1.84228845,16.5737476 1.84228845,18.7451884 C2.18802513,20.8023428 4.26244521,20.3451974 4.37769077,20.3451974 C4.83867301,20.5737701 3.91670853,20.9166292 3.91670853,21.0309156 C4.03195409,21.1452019 3.45572629,21.0309156 4.37769077,21.3737746 C4.60818189,21.7166337 4.03195409,21.7166337 4.03195409,21.9452064 C4.03195409,22.2880655 4.14719965,22.4023518 4.26244521,22.5166382 C4.26244521,22.6309246 4.03195409,22.6309246 4.03195409,22.7452109 C4.03195409,22.8594973 4.26244521,23.08807 4.26244521,23.08807 C4.14719965,23.2023563 4.14719965,23.2023563 4.03195409,23.3166427 C4.03195409,23.4309291 4.26244521,23.6595018 4.26244521,23.6595018 C4.37769077,23.8880745 4.03195409,23.8880745 4.03195409,24.4595063 C2.99474405,24.9166517 3.68621741,24.9166517 2.99474405,24.9166517 C2.99474405,25.030938 3.10998961,25.1452244 3.22523517,25.2595108 C3.22523517,25.4880835 3.10998961,25.4880835 2.99474405,25.6023698 C2.99474405,25.6023698 3.10998961,25.8309425 2.99474405,25.9452289 C2.87949849,25.9452289 3.22523517,26.8595198 3.22523517,26.8595198 C3.45572629,27.888097 3.80146297,27.4309515 3.91670853,27.888097 C3.91670853,28.0023833 3.91670853,28.0023833 4.03195409,28.1166697 C4.26244521,28.1166697 4.49293633,28.3452424 4.83867301,28.230956 C5.06916413,28.4595288 5.06916413,28.5738151 5.29965525,28.5738151 C5.29965525,28.3452424 5.18440969,28.1166697 5.29965525,28.1166697 C5.64539193,28.1166697 6.10637417,28.4595288 6.22161973,28.3452424 C6.10637417,28.230956 5.99112861,28.1166697 5.99112861,27.888097 C5.99112861,27.5452379 6.45211085,28.230956 6.68260197,28.230956 C6.68260197,28.1166697 6.68260197,27.5452379 6.22161973,27.2023788 C5.76063749,26.8595198 4.95391857,26.9738061 4.72342745,26.5166607 C4.60818189,26.4023743 4.37769077,26.288088 4.95391857,25.6023698 C5.29965525,25.030938 5.29965525,24.8023653 5.29965525,24.688079 C5.64539193,24.1166472 6.10637417,23.5452154 6.10637417,23.5452154 C6.10637417,23.5452154 7.60456645,23.2023563 8.06554869,22.8594973 C8.52653093,22.5166382 9.10275873,22.2880655 9.56374097,21.488061 C9.67898653,21.2594883 10.600951,21.6023473 11.5229155,21.2594883 C11.638161,21.7166337 11.8686522,22.1737791 11.9838977,22.2880655 C12.44488,22.8594973 12.3296344,22.4023518 12.44488,23.4309291 C12.5601255,24.5737926 13.5973356,24.0023608 14.1735634,24.4595063 C14.4040545,24.688079 14.6345456,24.2309336 14.7497912,24.3452199 C15.0955278,24.3452199 15.6717556,24.8023653 15.9022468,24.8023653 C16.1327379,24.8023653 16.1327379,24.688079 16.2479834,24.4595063 C16.5937201,24.1166472 16.9394568,24.8023653 16.9394568,24.4595063 C16.8242112,24.2309336 16.8242112,24.3452199 16.5937201,23.7737881 C16.8242112,23.3166427 17.1699479,23.6595018 17.400439,23.6595018 C17.2851935,23.3166427 16.2479834,22.8594973 17.1699479,22.7452109 C17.0547024,22.6309246 16.5937201,22.2880655 16.0174923,22.4023518 C15.6717556,22.5166382 15.6717556,22.9737836 15.326019,23.08807 L14.6345456,23.08807 L13.8278267,22.6309246 C13.8278267,22.2880655 14.1735634,21.488061 14.0583178,20.9166292 C13.9430722,19.5451929 13.0211078,19.6594793 12.7906166,18.8594748 C12.5601255,18.7451884 13.2515989,17.8308976 13.48209,17.6023248 C13.5973356,17.6023248 13.8278267,17.6023248 13.9430722,17.4880385 C14.0583178,17.3737521 14.0583178,17.3737521 14.1735634,17.2594658 C14.2888089,17.1451794 14.5193,17.1451794 14.6345456,17.1451794 L14.6345456,16.688034 C14.8650367,16.3451749 14.9802823,16.8023203 15.326019,16.0023158 C15.326019,15.8880295 15.4412645,16.4594613 15.4412645,16.4594613 C15.4412645,15.6594568 15.9022468,15.6594568 16.0174923,14.9737386 C16.363229,14.8594523 16.8242112,15.088025 16.8242112,15.2023113 C17.0547024,14.9737386 17.400439,15.4308841 17.5156846,15.4308841 C17.5156846,15.6594568 17.9766668,14.8594523 18.5528946,15.3165977 C18.5528946,15.088025 18.7833858,15.3165977 18.7833858,15.3165977 L18.7833858,26.630947 L30.5384329,26.630947 L31.5756429,26.630947 L43.33069,26.630947 L43.33069,15.3165977 C43.33069,15.2023113 43.5611812,14.9737386 43.5611812,15.3165977 C44.137409,14.8594523 44.5983912,15.6594568 44.5983912,15.4308841 C44.5983912,15.4308841 44.9441279,14.9737386 45.2898646,15.2023113 C45.2898646,15.2023113 45.7508468,14.8594523 46.0965835,14.9737386 C46.211829,15.6594568 46.6728113,15.6594568 46.6728113,16.4594613 C46.6728113,16.4594613 46.7880568,16.0023158 47.018548,16.2308886 C47.3642846,16.9166067 47.4795302,16.4594613 47.7100213,16.9166067 L47.7100213,17.3737521 C47.9405124,17.3737521 48.055758,17.3737521 48.1710035,17.4880385 C48.2862491,17.6023248 48.2862491,17.6023248 48.4014947,17.7166112 C48.5167402,17.7166112 48.7472313,17.7166112 48.8624769,17.8308976 C49.092968,17.9451839 49.7844414,18.8594748 49.5539503,19.0880475 C49.3234591,19.888052 48.4014947,19.7737656 48.2862491,21.1452019 C48.1710035,21.7166337 48.5167402,22.5166382 48.5167402,22.8594973 C48.4014947,22.8594973 47.7100213,23.3166427 47.7100213,23.3166427 C47.7100213,23.3166427 47.018548,23.4309291 47.018548,23.3166427 C46.6728113,23.2023563 46.6728113,22.7452109 46.3270746,22.6309246 C45.7508468,22.4023518 45.174619,22.8594973 45.174619,22.9737836 C46.211829,22.9737836 45.0593734,23.5452154 44.9441279,23.8880745 C45.174619,23.8880745 45.6356012,23.5452154 45.7508468,24.0023608 C45.6356012,24.5737926 45.5203557,24.4595063 45.4051101,24.688079 C45.4051101,25.030938 45.7508468,24.3452199 46.0965835,24.688079 C46.211829,24.8023653 46.211829,24.9166517 46.4423202,25.030938 C46.6728113,25.1452244 47.2490391,24.5737926 47.5947757,24.5737926 C47.7100213,24.4595063 47.9405124,24.9166517 48.1710035,24.688079 C48.8624769,24.1166472 49.7844414,24.688079 49.8996869,23.6595018 C50.0149325,22.6309246 49.8996869,23.08807 50.3606692,22.5166382 C50.4759147,22.4023518 50.7064059,21.9452064 50.8216514,21.488061 C51.6283703,21.8309201 52.5503348,21.3737746 52.7808259,21.7166337 C53.2418082,22.5166382 53.818036,22.8594973 54.2790182,23.08807 C54.7400005,23.3166427 56.2381927,23.6595018 56.2381927,23.7737881 C56.2381927,23.7737881 56.699175,24.2309336 57.0449117,24.9166517 C57.0449117,25.030938 57.0449117,25.2595108 57.3906483,25.8309425 C57.9668761,26.5166607 57.736385,26.630947 57.6211395,26.7452334 C57.2754028,27.2023788 56.5839294,27.0880925 56.1229472,27.4309515 C55.6619649,27.7738106 55.6619649,28.3452424 55.6619649,28.4595288 C55.8924561,28.5738151 56.3534383,27.888097 56.3534383,28.1166697 C56.4686839,28.3452424 56.3534383,28.4595288 56.1229472,28.5738151 C56.1229472,28.6881015 56.699175,28.3452424 57.0449117,28.3452424 C57.1601572,28.4595288 57.0449117,28.5738151 57.0449117,28.8023878 C57.2754028,28.8023878 57.2754028,28.5738151 57.5058939,28.4595288 C57.736385,28.5738151 57.9668761,28.230956 58.3126128,28.3452424 C58.3126128,28.230956 58.4278584,28.230956 58.4278584,28.1166697 C58.5431039,27.7738106 58.8888406,28.230956 59.1193317,27.0880925 C59.1193317,27.0880925 59.4650684,26.1738016 59.3498229,26.1738016 C59.2345773,26.1738016 59.3498229,25.8309425 59.3498229,25.8309425 C59.2345773,25.7166562 59.1193317,25.7166562 59.1193317,25.4880835 C59.2345773,25.4880835 59.3498229,25.2595108 59.3498229,25.1452244 C58.5431039,25.1452244 59.3498229,25.1452244 58.3126128,24.688079 C58.4278584,24.1166472 58.0821217,24.1166472 58.0821217,23.8880745 C58.0821217,23.8880745 58.3126128,23.6595018 58.3126128,23.5452154 C58.1973673,23.5452154 58.1973673,23.4309291 58.0821217,23.3166427 C58.0821217,23.3166427 58.3126128,23.08807 58.3126128,22.9737836 C58.3126128,22.8594973 58.0821217,22.9737836 58.0821217,22.7452109 C58.0821217,22.7452109 58.3126128,22.5166382 58.3126128,22.1737791 C58.3126128,21.8309201 57.736385,21.9452064 57.9668761,21.6023473 C58.8888406,21.2594883 58.3126128,21.3737746 58.4278584,21.2594883 C58.4278584,21.2594883 57.5058939,20.9166292 57.9668761,20.5737701 C58.0821217,20.6880565 60.1565418,21.1452019 60.5022785,18.9737611 C60.617524,16.8023203 59.4650684,15.8880295 59.3498229,15.8880295 C59.1193317,15.5451704 55.4314738,12.4594388 58.7735951,12.6880115 C58.7735951,12.6880115 59.0040862,13.1451569 59.580314,13.488016 C60.0412962,13.8308751 60.1565418,13.8308751 60.9632607,13.7165887 C61.7699796,13.3737296 61.7699796,13.9451614 62.2309619,13.9451614 C60.7327696,13.0308706 61.4242429,12.2308661 59.9260507,11.7737206 Z M10.600951,5.03082558 L10.600951,5.03082558 L10.4857054,5.03082558 L10.4857054,5.03082558 C10.4857054,5.03082558 10.4857054,5.03082558 10.4857054,4.91653922 L10.3704599,4.91653922 L10.3704599,4.91653922 L10.3704599,4.91653922 C10.3704599,4.91653922 10.3704599,4.91653922 10.3704599,4.80225286 L10.3704599,4.80225286 L10.3704599,4.80225286 L10.3704599,4.80225286 L10.3704599,4.68796651 C10.7161966,4.68796651 10.9466877,4.57368015 11.2924244,4.57368015 L11.2924244,4.57368015 L11.2924244,4.57368015 C11.2924244,4.80225286 11.1771788,4.91653922 11.1771788,5.25939829 C10.9466877,5.14511193 10.7161966,5.14511193 10.600951,5.03082558 L10.600951,5.03082558 Z M18.5528946,13.488016 L18.5528946,13.488016 L18.5528946,13.488016 C16.7089657,13.6023024 16.2479834,12.4594388 16.2479834,12.4594388 C16.363229,11.888007 17.0547024,11.4308616 17.2851935,11.3165752 C17.5156846,11.2022889 17.5156846,10.5165707 17.7461757,10.4022844 C17.9766668,10.287998 18.0919124,10.1737116 18.207158,10.1737116 C18.207158,10.1737116 18.0919124,9.94513893 17.9766668,9.94513893 L17.9766668,9.94513893 C17.9766668,9.94513893 18.0919124,9.83085257 18.207158,9.60227986 C18.5528946,9.03084807 18.207158,9.14513443 18.207158,9.03084807 C18.3224035,8.80227536 18.3224035,8.45941629 18.5528946,8.34512993 C18.4376491,8.00227086 18.5528946,7.8879845 18.7833858,7.65941179 L18.5528946,13.488016 L18.5528946,13.488016 Z M42.6392167,26.0595153 L31.5756429,26.0595153 L30.3079418,26.0595153 L19.244368,26.0595153 L19.244368,15.088025 C19.3596136,15.088025 19.3596136,15.088025 19.3596136,14.9737386 L19.3596136,14.9737386 L19.3596136,25.8309425 L30.3079418,25.8309425 L31.5756429,25.8309425 L42.5239711,25.8309425 L42.5239711,14.9737386 L42.5239711,14.9737386 C42.5239711,14.9737386 42.5239711,15.088025 42.6392167,15.088025 L42.6392167,26.0595153 L42.6392167,26.0595153 Z M20.8578058,14.4023068 C21.2035425,14.4023068 21.6645248,14.4023068 22.0102614,14.1737341 L22.0102614,14.1737341 C21.7797703,14.1737341 21.2035425,13.488016 22.2407526,13.3737296 C22.3559981,13.3737296 22.3559981,13.2594433 22.4712437,13.2594433 C22.4712437,13.1451569 22.7017348,13.2594433 22.4712437,13.0308706 C22.3559981,12.8022979 21.3187881,13.1451569 22.0102614,12.1165797 C20.8578058,11.888007 19.9358414,13.1451569 19.3596136,13.2594433 L19.3596136,8.00227086 C19.3596136,7.77369814 19.3596136,6.51654822 20.3968236,5.83083008 C21.3187881,5.25939829 22.3559981,5.14511193 22.5864892,5.14511193 C23.162717,5.14511193 24.0846815,5.25939829 25.4676282,5.83083008 C27.0810661,6.51654822 29.2707317,7.65941179 30.5384329,7.77369814 L30.5384329,7.77369814 L30.5384329,7.77369814 L30.5384329,7.77369814 L30.5384329,7.77369814 L30.768924,7.77369814 L30.9994151,7.77369814 L30.9994151,7.77369814 L30.9994151,7.77369814 L30.9994151,7.77369814 L30.9994151,7.77369814 C32.1518707,7.65941179 34.3415364,6.51654822 36.0702198,5.83083008 C37.4531665,5.25939829 38.375131,5.14511193 38.9513588,5.14511193 C39.1818499,5.14511193 40.2190599,5.25939829 41.1410244,5.83083008 C42.1782344,6.51654822 42.1782344,7.77369814 42.1782344,8.00227086 L42.1782344,13.3737296 C41.6020066,13.2594433 40.7952877,12.0022934 39.5275866,12.2308661 C40.3343055,13.2594433 39.2970954,13.0308706 39.0666043,13.1451569 C38.9513588,13.3737296 39.0666043,13.2594433 39.0666043,13.3737296 C39.1818499,13.3737296 39.1818499,13.488016 39.2970954,13.488016 C40.3343055,13.488016 39.7580777,14.1737341 39.5275866,14.2880205 C39.2970954,14.4023068 39.5275866,14.2880205 39.5275866,14.2880205 C39.9885688,14.6308796 40.449551,14.5165932 40.6800422,14.5165932 C41.0257788,14.5165932 40.7952877,14.6308796 40.7952877,14.7451659 L41.25627,14.7451659 L41.25627,14.9737386 L41.6020066,14.9737386 C41.7172522,14.9737386 41.9477433,15.088025 42.0629889,15.088025 L42.0629889,25.8309425 L31.5756429,25.8309425 L30.3079418,25.8309425 L19.4748591,25.8309425 L19.4748591,15.088025 C19.5901047,15.088025 19.8205958,14.9737386 19.9358414,14.9737386 L20.281578,14.9737386 L20.281578,14.7451659 L20.7425603,14.7451659 C20.7425603,14.5165932 20.5120692,14.4023068 20.8578058,14.4023068 Z M42.6392167,13.488016 C42.6392167,13.488016 42.5239711,13.488016 42.5239711,13.3737296 L42.5239711,7.43083907 L42.5239711,7.43083907 C42.5239711,7.31655272 42.29348,5.14511193 39.1818499,4.91653922 C37.9141487,5.03082558 36.7616931,5.25939829 35.8397286,5.83083008 C35.0330097,6.17368915 32.2671163,7.43083907 31.2299062,7.54512543 L31.2299062,7.54512543 L31.2299062,7.54512543 L31.2299062,7.54512543 L30.9994151,7.54512543 L30.9994151,7.54512543 L30.9994151,7.54512543 L30.768924,7.54512543 L30.768924,7.54512543 L30.768924,7.54512543 L30.768924,7.54512543 C29.731714,7.43083907 26.850575,6.05940279 26.1591016,5.83083008 C25.2371371,5.37368465 24.1999271,5.03082558 22.8169804,4.91653922 C19.7053502,5.14511193 19.4748591,7.31655272 19.4748591,7.43083907 L19.4748591,7.43083907 L19.4748591,13.3737296 C19.4748591,13.3737296 19.3596136,13.3737296 19.3596136,13.488016 L19.3596136,7.31655272 L19.3596136,7.20226636 C19.7053502,5.03082558 22.5864892,4.80225286 22.9322259,4.80225286 C24.7761549,4.80225286 26.5048383,5.83083008 26.5048383,5.83083008 C26.5048383,5.83083008 30.4231873,7.54512543 30.9994151,7.43083907 L30.9994151,7.43083907 L30.9994151,7.43083907 C31.6908885,7.54512543 35.493992,5.83083008 35.493992,5.83083008 C35.493992,5.83083008 37.3379209,4.80225286 39.0666043,4.80225286 C39.412341,4.80225286 42.1782344,5.03082558 42.6392167,7.20226636 L42.6392167,7.31655272 L42.6392167,13.488016 L42.6392167,13.488016 Z M43.2154445,13.6023024 L43.2154445,13.6023024 L43.2154445,13.6023024 L43.2154445,7.65941179 C43.33069,7.77369814 43.5611812,8.00227086 43.4459356,8.34512993 C43.5611812,8.45941629 43.6764267,8.80227536 43.7916723,9.03084807 C43.7916723,9.14513443 43.4459356,9.03084807 43.7916723,9.60227986 C43.9069178,9.94513893 44.0221634,9.94513893 44.0221634,9.94513893 L44.0221634,9.94513893 C43.9069178,9.94513893 43.7916723,10.1737116 43.7916723,10.1737116 C43.9069178,10.287998 44.0221634,10.287998 44.2526545,10.4022844 C44.4831456,10.5165707 44.4831456,11.2022889 44.7136368,11.3165752 C44.9441279,11.4308616 45.7508468,11.888007 45.7508468,12.4594388 C45.5203557,12.5737251 45.0593734,13.7165887 43.2154445,13.6023024 Z M51.6283703,4.80225286 L51.6283703,4.80225286 L51.6283703,4.80225286 L51.6283703,4.80225286 C51.5131248,4.80225286 51.5131248,4.91653922 51.5131248,4.91653922 L51.3978792,4.91653922 L51.3978792,4.91653922 L51.2826337,4.91653922 C51.2826337,4.91653922 51.2826337,4.91653922 51.2826337,5.03082558 L51.1673881,5.03082558 L51.0521425,5.03082558 L51.1673881,5.03082558 C51.1673881,5.03082558 51.1673881,5.03082558 51.1673881,5.14511193 C51.0521425,5.14511193 50.936897,5.25939829 50.8216514,5.25939829 C50.8216514,5.03082558 50.7064059,4.80225286 50.7064059,4.57368015 L50.7064059,4.57368015 L50.7064059,4.57368015 C51.0521425,4.57368015 51.2826337,4.68796651 51.6283703,4.80225286 L51.6283703,4.80225286 L51.6283703,4.80225286 Z" id="Shape"></path>
                                </g>
                            </g>
                        </g>
                    </g>
                </g>
            </g>
        </g>
    </g>
</svg>