<?xml version="1.0" encoding="utf-8"?>
<!-- Generator: Adobe Illustrator 16.0.0, SVG Export Plug-In . SVG Version: 6.00 Build 0)  -->
<!DOCTYPE svg PUBLIC "-//W3C//DTD SVG 1.1//EN" "http://www.w3.org/Graphics/SVG/1.1/DTD/svg11.dtd">
<svg version="1.1" id="Layer_1" xmlns="http://www.w3.org/2000/svg" xmlns:xlink="http://www.w3.org/1999/xlink" x="0px" y="0px"
	 width="247.212px" height="233.682px" viewBox="0 0 247.212 233.682" enable-background="new 0 0 247.212 233.682"
	 xml:space="preserve">
<g>
	<g>
		<path fill="#F9DC2F" d="M145.801,57.219c26.51,0,50.282,11.692,66.454,30.199c9.114-10.22,25.29-28.388,25.29-28.388l0.165-0.154
			c2.789-2.614,4.333-5.989,4.351-9.507c0-0.02,0.004-0.039,0.004-0.059c0-3.525-1.544-6.862-4.454-9.646
			c-3.329-3.18-7.166-5.939-11.475-8.956C179.811-1.764,118.834-3.454,70.783,26.397C53.736,36.99,39.447,50.73,28.321,67.236
			C17.57,83.185,10.293,100.895,6.69,119.874c-0.006,0.039-1.772,10.843-1.477,17.057c0.222,4.636,1.894,11.565,13.89,12.582
			c0.033,0.002,23.371,2.647,38.865,4.291c-0.258-2.749-0.397-5.535-0.397-8.354C57.571,96.723,97.072,57.219,145.801,57.219z"/>
		<path fill="#E5A42F" d="M241.168,35.939c-3.716-3.551-7.907-6.532-12.077-9.451C182.619-6.085,119.318-9.825,68.064,22.024
			C31.917,44.482,8.983,80.155,1.63,118.912c0,0-2.037,10.552-1.557,17.696c0.695,10.346,2.675,16.691,18.598,18.038l39.851,3.776
			c6.276,42.578,42.958,75.259,87.279,75.259c48.729,0,88.229-39.501,88.229-88.232c0-20.378-6.912-39.143-18.515-54.079
			l25.718-28.735C248.744,55.588,249.676,44.074,241.168,35.939z M226.361,143.449c0,45.591-36.967,82.554-82.563,82.554
			c-41.944,0-76.58-31.279-81.858-71.782c-0.46-3.524-0.7-7.121-0.7-10.771c0-2.174,0.087-4.328,0.25-6.46
			c3.294-42.579,38.889-76.103,82.308-76.103c1.916,0,3.81,0.074,5.692,0.202c23.762,1.615,44.759,13.286,58.78,30.794
			C219.588,106.009,226.361,123.938,226.361,143.449z M237.71,58.876l-0.165,0.154c0,0-16.176,18.168-25.29,28.388
			c-16.172-18.507-39.944-30.199-66.454-30.199c-48.729,0-88.23,39.504-88.23,88.23c0,2.819,0.139,5.605,0.397,8.354
			c0.02,0.002,0.037,0.002,0.059,0.007h-0.002c-0.02,0.013-0.033,0.03-0.052,0.043c-0.002-0.018-0.002-0.035-0.004-0.05
			c-15.495-1.644-38.833-4.289-38.865-4.291c-11.996-1.017-13.668-7.946-13.89-12.582c-0.295-6.214,1.47-17.018,1.477-17.057
			c3.603-18.979,10.88-36.689,21.631-52.638C39.447,50.73,53.736,36.99,70.783,26.397c48.051-29.851,109.027-28.162,155.353,4.311
			c4.309,3.017,8.146,5.776,11.475,8.956c2.91,2.784,4.454,6.121,4.454,9.646c0,0.02-0.004,0.039-0.004,0.059
			C242.043,52.887,240.499,56.262,237.71,58.876z"/>
		<path fill="#F9DC2F" d="M208.271,91.883c-14.021-17.508-35.019-29.179-58.78-30.794c-1.883-0.128-3.776-0.202-5.692-0.202
			c-43.419,0-79.014,33.523-82.308,76.103c-0.163,2.132-0.25,4.286-0.25,6.46c0,3.65,0.239,7.247,0.7,10.771
			c5.279,40.503,39.914,71.782,81.858,71.782c45.596,0,82.563-36.963,82.563-82.554C226.361,123.938,219.588,106.009,208.271,91.883
			z M141.135,217.334c-37.561,0-68.793-27.043-75.308-62.716c-0.818-4.489-1.25-9.114-1.25-13.84
			c0-16.722,5.366-32.188,14.462-44.781c8.839-12.232,21.199-21.75,35.6-27.063c8.254-3.047,17.18-4.71,26.496-4.71
			c22.521,0,42.773,9.727,56.783,25.215c12.287,13.579,19.772,31.584,19.772,51.339C217.69,183.06,183.413,217.334,141.135,217.334z
			"/>
		<path fill="#00ACEC" d="M197.918,89.439c-14.01-15.488-34.262-25.215-56.783-25.215c-9.316,0-18.242,1.663-26.496,4.71
			c-14.4,5.313-26.761,14.83-35.6,27.063c-9.097,12.594-14.462,28.06-14.462,44.781c0,4.726,0.432,9.351,1.25,13.84
			c6.515,35.673,37.747,62.716,75.308,62.716c42.278,0,76.556-34.274,76.556-76.556C217.69,121.023,210.205,103.019,197.918,89.439z
			"/>
		<path fill="#FFFFFF" d="M171.687,162.306c0,5.785-2.909,19.054-18.511,18.91c-11.407-0.104-18.708-8.506-18.708-19.614
			c0-11.109,7.431-19.955,17.056-19.955c4.74,0,7.748,1.05,9.125,2.239v-22.209c0-3.184,2.265-5.733,5.524-5.733
			c3.251,0,5.514,2.55,5.514,5.733C171.687,121.677,171.687,158.751,171.687,162.306z M145.51,160.927
			c0,5.453,2.687,8.799,7.566,8.799c4.889,0,7.572-3.346,7.572-8.799c0-5.446-2.684-8.665-7.572-8.665
			C148.196,152.262,145.51,155.48,145.51,160.927z"/>
		<path fill="#FFFFFF" d="M179.266,168.245c3.468,0,5.868,3.186,10.61,3.186c2.261,0,3.116-1.066,3.116-2.195
			c0-2.263-2.408-2.476-8.564-5.023c-5.661-2.332-8.704-4.458-8.704-10.401c0-6.296,5.377-12.181,14.225-12.181
			c4.46,0,12.738,2.102,12.738,7.828c0,2.763-1.982,4.353-4.598,4.353c-2.195,0-5.452-2.761-8.849-2.761
			c-1.483,0-2.903,0.708-2.903,2.335c0,4.317,17.269,3.322,17.269,15.425c0,7.785-6.58,12.383-14.152,12.383
			c-6.935,0-14.718-2.759-14.718-7.643C174.735,170.44,176.786,168.245,179.266,168.245z"/>
		<g>
			<path fill="#00ACEC" d="M215.414,40.864l-5.365-3.592c-1.525-1.019-2.96-0.655-3.938,0.806l-11.473,17.144
				c-1.021,1.526-0.617,3.031,0.69,3.908c1.313,0.88,2.862,0.678,3.883-0.847l4.428-6.619l0.063,0.044l1.283,12.733
				c0.098,0.906,0.684,1.609,1.238,1.977c1.34,0.899,3.06,0.374,3.854-0.82c0.286-0.422,0.408-1.002,0.288-1.749l-1.47-9.019
				c3.438,1.592,7.255,1.364,9.503-1.989C221.605,48.053,220.116,44.009,215.414,40.864z M213.641,49.655
				c-1.143,1.709-2.974,1.939-4.652,0.818l-3.142-2.104l3.613-5.396l3.14,2.1C214.276,46.198,214.802,47.918,213.641,49.655z"/>
			<path fill="#00ACEC" d="M42.148,114.394c-3.144-0.559-6.143,1.404-7.123,4.399l-0.07-0.011c-0.677-2.509-2.185-3.859-4.714-4.311
				c-3.831-0.685-6.899,1.902-7.572,5.661l-1.238,6.937c-0.295,1.659,0.464,3.026,2.202,3.335l20.27,3.616
				c1.696,0.302,2.964-0.738,3.262-2.402l1.325-7.439C49.379,119.19,47.238,115.303,42.148,114.394z M32.58,123.503l-0.502,2.819
				l-5.42-0.969l0.501-2.816c0.287-1.59,1.392-2.773,3.088-2.474C32.055,120.387,32.897,121.733,32.58,123.503z M43.605,123.977
				l-0.76,4.265l-5.998-1.072l0.682-3.826c0.454-2.532,1.844-3.627,3.537-3.323C43.093,120.378,43.955,122.026,43.605,123.977z"/>
			<path fill="#00ACEC" d="M56.055,95.354c-0.478-0.19-1.071-0.19-1.772,0.081l-8.521,3.305c0.849-3.694-0.163-7.379-3.913-8.884
				c-5.351-2.144-8.995,0.151-11.097,5.398l-2.406,5.993c-0.682,1.707-0.026,3.034,1.611,3.69l19.143,7.676
				c1.705,0.683,3.094-0.025,3.681-1.493c0.586-1.464,0.067-2.937-1.633-3.618l-7.393-2.962l0.026-0.07l12.196-3.887
				c0.864-0.287,1.433-1.01,1.676-1.622C58.257,97.463,57.386,95.887,56.055,95.354z M41.479,99.557l-1.403,3.51l-6.032-2.417
				l1.409-3.51c0.749-1.872,2.326-2.745,4.267-1.968C41.627,95.937,42.23,97.683,41.479,99.557z"/>
			<path fill="#00ACEC" d="M61.204,88.302L43.453,77.374c-1.565-0.962-3.053-0.504-3.88,0.843c-0.83,1.344-0.569,2.881,0.995,3.846
				l17.75,10.928c1.563,0.962,3.053,0.501,3.883-0.843C63.026,90.806,62.768,89.264,61.204,88.302z"/>
			<path fill="#00ACEC" d="M72.49,60.248c-1.731-1.585-3.219-1.702-4.778,0.005L63.5,64.861c-0.94,1.026-1.027,2.536,0.108,3.574
				c1.112,1.019,2.615,0.951,3.631-0.161l2.526-2.762c3.088,2.825,2.026,6.378,0.067,8.519c-3.147,3.438-7.581,2.417-10.887-0.605
				c-3.277-2.999-4.667-7.405-1.57-10.791c3.245-3.548,5.568-2.117,7.253-3.956c0.864-0.951,0.803-2.353-0.361-3.416
				c-1.896-1.733-6.891-0.135-10.63,3.954c-5.053,5.522-4.189,13.279,1.444,18.433c5.607,5.13,13.46,5.297,18.487-0.199
				C78.522,72.034,77.719,65.028,72.49,60.248z"/>
			<path fill="#00ACEC" d="M90.519,35.306c-0.99-1.544-2.532-1.781-3.861-0.932c-1.333,0.851-1.768,2.35-0.781,3.896l4.187,6.561
				l-9.716,6.198l-4.183-6.561c-0.99-1.547-2.532-1.781-3.861-0.932c-1.333,0.847-1.77,2.347-0.781,3.894l11.214,17.572
				c0.986,1.549,2.528,1.783,3.861,0.934c1.329-0.849,1.768-2.347,0.777-3.894l-4.304-6.747l9.716-6.197l4.304,6.745
				c0.988,1.546,2.53,1.782,3.861,0.934c1.331-0.85,1.768-2.348,0.784-3.894L90.519,35.306z"/>
			<path fill="#00ACEC" d="M109.258,30.779l3.802-1.242c1.677-0.545,1.972-1.995,1.583-3.181c-0.396-1.22-1.656-2.122-3.157-1.633
				l-12.839,4.196c-1.498,0.49-1.982,1.963-1.583,3.184c0.387,1.186,1.485,2.18,3.158,1.633l3.802-1.244l5.725,17.514
				c0.571,1.742,2.009,2.354,3.507,1.863c1.499-0.49,2.296-1.831,1.729-3.574L109.258,30.779z"/>
			<path fill="#00ACEC" d="M142.024,27.29c-0.128-1.538,1.221-2.5,2.793-2.636c2.193-0.189,3.462,0.806,4.958,0.675
				c1.5-0.126,2.339-1.49,2.217-2.917c-0.249-2.888-5.436-3.214-7.48-3.038c-4.867,0.419-8.795,3.965-8.354,9.083
				c0.731,8.482,12.724,4.834,13.095,9.147c0.152,1.793-1.047,3.259-3.462,3.468c-2.371,0.202-4.547-1.047-6.265-0.899
				c-1.498,0.133-2.348,1.386-2.224,2.813c0.295,3.436,6.424,3.57,9.235,3.327c5.047-0.437,9.08-4.063,8.633-9.293
				C154.355,27.585,142.349,31.056,142.024,27.29z"/>
			<path fill="#00ACEC" d="M175.572,24.977c0.162-1.274-0.587-2.627-2.152-2.832l-13.396-1.72c-1.566-0.202-2.633,0.917-2.797,2.193
				c-0.159,1.236,0.405,2.606,2.151,2.83l3.97,0.511l-2.352,18.271c-0.234,1.82,0.804,2.988,2.371,3.192
				c1.562,0.2,2.86-0.669,3.091-2.49l2.352-18.274l3.965,0.51C174.517,27.392,175.413,26.21,175.572,24.977z"/>
			<path fill="#00ACEC" d="M189.943,27.581c-1.746-0.66-3.565,0.102-4.747,1.457L171.22,45.091c-0.132,0.147-0.46,0.493-0.671,1.044
				c-0.519,1.371,0.256,2.846,1.629,3.364c1.405,0.534,2.415,0.05,3.162-0.882c0,0,3.244-4.021,6.295-7.833
				c2.273,0.937,5.503,6.255,5.29,12.266c-0.057,1.57,0.387,2.188,1.829,2.733c1.268,0.48,2.481,0.131,2.987-1.207
				c0.09-0.241,0.207-0.747,0.207-1.375l0.591-21.377C192.582,29.954,191.766,28.271,189.943,27.581z M180.849,41.64L180.849,41.64
				l0.087-0.108L180.849,41.64z M187.807,34.513c-0.091,0.969-0.352,6.685-0.352,6.685s-3.334-1.764-4.234-2.117
				c-0.059-0.024-0.122-0.033-0.183-0.039c1.933-2.415,3.544-4.45,3.839-4.856C187.342,33.535,187.894,33.549,187.807,34.513z"/>
		</g>
		<g>
			<path fill="#FFFFFF" d="M150.464,117.292h0.002l-6.937-8.378c-0.371-0.451-0.614-1.606-0.455-2.172l2.973-10.456
				c0.474-1.659,0.115-3.175-0.973-4.163c-1.093-0.983-2.641-1.188-4.235-0.551l-10.113,4.006c-0.543,0.213-1.713,0.089-2.199-0.234
				c0-0.002-9.034-6.061-9.034-6.061c-1.431-0.962-2.986-1.095-4.259-0.36c-1.274,0.729-1.943,2.139-1.83,3.86l0.684,10.85
				c0.032,0.589-0.447,1.661-0.91,2.021l-8.552,6.717c-1.361,1.071-1.961,2.509-1.659,3.941c0.305,1.438,1.432,2.509,3.102,2.938
				c0.004,0.002,10.536,2.701,10.536,2.701c0.569,0.148,1.442,0.94,1.645,1.486l3.746,10.21c0.588,1.618,1.763,2.637,3.225,2.793
				c1.464,0.163,2.832-0.584,3.755-2.039c0.009,0,5.833-9.186,5.833-9.186c0.311-0.495,1.333-1.079,1.922-1.105l10.864-0.404
				c1.727-0.067,3.058-0.875,3.659-2.215C151.85,120.15,151.564,118.624,150.464,117.292z"/>
			<path fill="#E5A42F" d="M138.033,105.316c0,0,1.355-4.771,2.241-7.879c-2.999,1.184-7.62,3.017-7.624,3.014
				c-2.159,0.858-5.123,0.537-7.047-0.76c0,0-4.118-2.76-6.802-4.561c0.197,3.214,0.513,8.174,0.513,8.174
				c0.084,1.343-0.287,2.813-0.969,4.101c-0.5,0.934-1.16,1.77-1.929,2.375c0,0-3.911,3.066-6.447,5.061
				c3.116,0.799,7.935,2.034,7.935,2.034c2.255,0.578,4.468,2.582,5.265,4.759c0,0,1.709,4.662,2.82,7.691
				c1.721-2.712,4.387-6.91,4.387-6.91c1.238-1.961,3.822-3.448,6.152-3.542c0,0,4.962-0.185,8.188-0.3
				c-2.051-2.481-5.217-6.316-5.217-6.316C138.019,110.478,137.401,107.56,138.033,105.316z"/>
		</g>
		<path fill="#FFFFFF" d="M130.552,147.428c0-3.186-2.263-5.733-5.518-5.733s-5.521,2.548-5.521,5.733v20.484
			c0.074,4.841-4.751-0.799-6.254-2.258l-7.116-7.188l5.941-5.872c2.616-2.545,3.89-3.821,3.89-5.8c0-2.693-2.122-5.1-5.377-5.1
			c-2.688,0-4.315,1.914-6.225,3.822l-8.985,8.986v-32.752c0-3.187-2.266-5.729-5.521-5.729c-3.258,0-5.521,2.543-5.521,5.729
			v53.573c0,3.19,2.506,5.977,5.764,5.977c3.251,0,5.277-2.786,5.277-5.977v-13.32l9.965,11.329
			c4.294,4.519,8.342,7.968,14.248,7.968c9.238,0,10.873-5.67,11.006-9.818C130.606,171.452,130.552,147.428,130.552,147.428z"/>
	</g>
	<g>
		<path fill="#00ACEC" d="M239.541,87.419c1.403,0,2.705,0.38,3.904,1.14s2.117,1.774,2.754,3.043
			c0.559,1.104,0.838,2.269,0.838,3.495c0,1.441-0.371,2.772-1.111,3.995c-0.742,1.222-1.749,2.163-3.023,2.822
			c-1.088,0.566-2.244,0.85-3.469,0.85c-1.439,0-2.768-0.375-3.984-1.124s-2.155-1.769-2.813-3.059
			c-0.565-1.111-0.849-2.272-0.849-3.484c0-1.469,0.374-2.813,1.122-4.032s1.774-2.158,3.077-2.817
			C237.082,87.695,238.267,87.419,239.541,87.419z M239.509,88.919c-1.722,0-3.163,0.597-4.324,1.789s-1.741,2.655-1.741,4.388
			c0,1.153,0.295,2.226,0.884,3.218s1.392,1.753,2.405,2.283c0.851,0.444,1.747,0.666,2.69,0.666c1.679,0,3.097-0.608,4.255-1.826
			c1.135-1.203,1.703-2.65,1.703-4.34c0-1.16-0.287-2.232-0.863-3.217c-0.574-0.985-1.365-1.746-2.373-2.283
			C241.302,89.145,240.423,88.919,239.509,88.919z M238.443,95.974v1.998c0,0.38-0.047,0.655-0.139,0.827
			c-0.186,0.344-0.492,0.516-0.918,0.516c-0.436,0-0.744-0.172-0.93-0.516c-0.093-0.172-0.139-0.448-0.139-0.828v-5.695
			c0-0.358,0.028-0.612,0.086-0.763c0.114-0.301,0.324-0.501,0.632-0.602c0.171-0.057,0.436-0.086,0.793-0.086h1.757
			c0.879,0,1.6,0.211,2.164,0.634c0.629,0.466,0.943,1.129,0.943,1.988c0,1.247-0.652,2.013-1.958,2.299l1.601,1.677
			c0.329,0.344,0.494,0.645,0.494,0.902c0,0.287-0.105,0.525-0.317,0.715c-0.212,0.19-0.464,0.285-0.758,0.285
			c-0.323,0-0.656-0.204-1-0.612L238.443,95.974z M238.443,94.384h1.158c0.666,0,0.998-0.285,0.998-0.856
			c0-0.282-0.102-0.506-0.306-0.672s-0.448-0.25-0.735-0.25h-1.115V94.384z"/>
	</g>
</g>
</svg>
