<svg xmlns="http://www.w3.org/2000/svg" viewBox="0 0 344.25 66.93"><defs><style>.a{opacity:0.12;}.b{fill:#231f20;}.c{fill:#1b9c48;}.d{fill:#832990;}.e{opacity:0.41;}.f{fill:#fff;}.g{fill:#ffcd33;}.h{fill:#646a7c;}</style></defs><title>img-logo</title><g class="a"><path class="b" d="M14.1,18.28l-3.94.77a10.93,10.93,0,0,1-6-.1,4.2,4.2,0,0,1-2.6-3.33,4.28,4.28,0,0,1,1.15-4.14A10.82,10.82,0,0,1,8.22,9.12L26.88,5.48a10.77,10.77,0,0,1,5.94.12A4.28,4.28,0,0,1,35.46,9a4.18,4.18,0,0,1-1.16,4.06,10.87,10.87,0,0,1-5.48,2.34l-4,.77,5.88,30.07q.75,3.85-.21,6a4.71,4.71,0,0,1-3.68,2.66,4.71,4.71,0,0,1-4.41-1.08Q20.73,52.2,20,48.35Z"/><path class="b" d="M96.38,21.35a8.19,8.19,0,0,1,2.29-3,4,4,0,0,1,2.89-.7,5.22,5.22,0,0,1,3.61,1.78,4.91,4.91,0,0,1,1,3.83,7,7,0,0,1-.42,1.64,16.73,16.73,0,0,1-.88,1.92L84.46,63.16A9.52,9.52,0,0,1,82,66.26a3.74,3.74,0,0,1-2.65.64,5.28,5.28,0,0,1-3.67-1.8,5,5,0,0,1-1-3.88,7.41,7.41,0,0,1,.43-1.76A9.3,9.3,0,0,1,76,57.74l5.42-8.94-7.84-26a5.78,5.78,0,0,1-.25-1.33,9.12,9.12,0,0,1,.06-1.67,5.15,5.15,0,0,1,1.89-3.56,4.92,4.92,0,0,1,3.8-1.09,4.46,4.46,0,0,1,3,1.43,10.41,10.41,0,0,1,1.82,4.28L88,37.41Z"/><path class="b" d="M107.55,38V23.9q0-3.9,1.32-5.78a4.59,4.59,0,0,1,4-1.88,4.52,4.52,0,0,1,4,1.88q1.31,1.88,1.31,5.78V35.83q0,4.23,1.27,6a5.79,5.79,0,0,0,8.3,0q1.27-1.75,1.27-6V23.9q0-3.9,1.29-5.78a4.54,4.54,0,0,1,4-1.88,4.44,4.44,0,0,1,3.94,1.87q1.28,1.87,1.28,5.8V38q0,7.58-4.11,11.58t-11.89,4q-7.78,0-11.91-4T107.55,38Z"/><path class="b" d="M142.72,45.22V23.89q0-3.89,1.3-5.77a4.54,4.54,0,0,1,4-1.88,5,5,0,0,1,2.86.83,7.19,7.19,0,0,1,2.21,2.53A10.26,10.26,0,0,1,157,16.88a15.25,15.25,0,0,1,5.42-.85q6.27,0,9.59,3.57T175.36,30V45.22q0,3.91-1.31,5.82a5.16,5.16,0,0,1-8,0q-1.32-1.91-1.31-5.82v-12q0-4.45-1.33-6.34A5,5,0,0,0,159,25a4.87,4.87,0,0,0-4.27,2q-1.38,2-1.38,6.14V45.22q0,3.91-1.32,5.82a5.17,5.17,0,0,1-8,0Q142.72,49.14,142.72,45.22Z"/><path class="b" d="M187.84,45.23q0,3.94-1.28,5.83A4.43,4.43,0,0,1,182.62,53a4.54,4.54,0,0,1-4-1.9q-1.31-1.9-1.31-5.81V23.93q0-3.91,1.3-5.8a4.54,4.54,0,0,1,4-1.89,4.43,4.43,0,0,1,3.94,1.89q1.28,1.89,1.28,5.8Z"/><path class="b" d="M198.7,47.94l-9.26-23.55a11.2,11.2,0,0,1-.44-1.55,6.81,6.81,0,0,1-.15-1.35,5.19,5.19,0,0,1,1.46-3.75,4.85,4.85,0,0,1,3.63-1.51,4.58,4.58,0,0,1,3.29,1.22,9.45,9.45,0,0,1,2.17,4l5.81,18.44,5.74-19.13a6.93,6.93,0,0,1,1.9-3.27,4.45,4.45,0,0,1,3.05-1.1,4.78,4.78,0,0,1,3.61,1.43,5.2,5.2,0,0,1,1.38,3.76,7.23,7.23,0,0,1-.2,1.61A11.73,11.73,0,0,1,220,25l-8.92,23.22a10.07,10.07,0,0,1-2.49,4.08,5.42,5.42,0,0,1-3.57,1.12,5.67,5.67,0,0,1-3.69-1.14A10.84,10.84,0,0,1,198.7,47.94Z"/><path class="b" d="M231.42,37.62a6.61,6.61,0,0,0,2.47,4.61,8.74,8.74,0,0,0,5.56,1.65,15.9,15.9,0,0,0,6.66-1.72,17.12,17.12,0,0,1,4.52-1.72,4.21,4.21,0,0,1,3.06,1.15,4,4,0,0,1,1.18,3q0,3.43-4.76,6.17a22,22,0,0,1-11.2,2.75,17.61,17.61,0,0,1-13.1-5.36,18.41,18.41,0,0,1-5.25-13.44,19,19,0,0,1,5.11-13.54,16.79,16.79,0,0,1,12.74-5.42,16.51,16.51,0,0,1,12.33,5.11,17.23,17.23,0,0,1,5,12.48,4.31,4.31,0,0,1-1.09,3.36q-1.09,1-4.18,1Zm-.13-7h14.08a6.46,6.46,0,0,0-2.18-4.47,7.19,7.19,0,0,0-9.39-.1A7.83,7.83,0,0,0,231.29,30.63Z"/><path class="b" d="M257.65,45.23V23.93q0-3.91,1.3-5.8a4.53,4.53,0,0,1,4-1.89,5,5,0,0,1,2.86.84A7.23,7.23,0,0,1,268,19.62a12,12,0,0,1,3.48-2.68,8.32,8.32,0,0,1,3.71-.91A5.24,5.24,0,0,1,279,17.59a5,5,0,0,1,1.59,3.7q0,3.19-5.84,5.33-2.1.76-3.15,1.25A5.78,5.78,0,0,0,268.95,30a9.51,9.51,0,0,0-.66,4.23v11q0,3.91-1.32,5.81a5.17,5.17,0,0,1-8,0A10.41,10.41,0,0,1,257.65,45.23Z"/><path class="b" d="M293.39,53.58A17.89,17.89,0,0,1,284,51.3q-3.74-2.27-3.74-5.64a5,5,0,0,1,1.19-3.39,3.65,3.65,0,0,1,2.87-1.38,13.06,13.06,0,0,1,4.95,1.54A13,13,0,0,0,294.14,44a3.46,3.46,0,0,0,2.14-.62,1.89,1.89,0,0,0,.83-1.55q0-1.58-5.13-3.62l-.69-.26q-5.84-2.43-8-4.82a8.7,8.7,0,0,1-2.14-6,10.39,10.39,0,0,1,3.77-8.18,14,14,0,0,1,9.54-3.28,16.67,16.67,0,0,1,8.83,2.21q3.62,2.2,3.62,5.2a4.33,4.33,0,0,1-1.27,3.16,4.2,4.2,0,0,1-3.11,1.28,12.33,12.33,0,0,1-4.13-1.28A12.3,12.3,0,0,0,294,24.89a2.78,2.78,0,0,0-1.75.51,1.61,1.61,0,0,0-.66,1.33q0,1.48,4.23,3.09,2,.76,3.14,1.28a19.16,19.16,0,0,1,6.78,4.53,8.66,8.66,0,0,1,2,5.78,11,11,0,0,1-4.07,8.68A15.29,15.29,0,0,1,293.39,53.58Z"/><path class="b" d="M320,37.62a6.61,6.61,0,0,0,2.47,4.61A8.74,8.74,0,0,0,328,43.88a15.88,15.88,0,0,0,6.66-1.72,17.16,17.16,0,0,1,4.52-1.72,4.2,4.2,0,0,1,3.06,1.15,4,4,0,0,1,1.18,3q0,3.43-4.76,6.17a22,22,0,0,1-11.2,2.75,17.6,17.6,0,0,1-13.1-5.36,18.41,18.41,0,0,1-5.25-13.44,19,19,0,0,1,5.11-13.54A16.79,16.79,0,0,1,327,15.71a16.51,16.51,0,0,1,12.33,5.11,17.23,17.23,0,0,1,5,12.48,4.31,4.31,0,0,1-1.09,3.36q-1.09,1-4.18,1Zm-.13-7h14.08a6.47,6.47,0,0,0-2.18-4.47,7.19,7.19,0,0,0-9.39-.1A7.84,7.84,0,0,0,319.84,30.63Z"/><circle class="b" cx="52.42" cy="34.31" r="20.33"/></g><g class="a"><path class="b" d="M13.37,17.55l-3.94.77a10.94,10.94,0,0,1-6-.1,4.19,4.19,0,0,1-2.6-3.33A4.28,4.28,0,0,1,2,10.75,10.81,10.81,0,0,1,7.49,8.39L26.15,4.75a10.77,10.77,0,0,1,5.94.12,4.28,4.28,0,0,1,2.64,3.4,4.18,4.18,0,0,1-1.16,4.06,10.87,10.87,0,0,1-5.48,2.34l-4,.77L30,45.52q.75,3.85-.21,6a4.71,4.71,0,0,1-3.68,2.67,4.71,4.71,0,0,1-4.41-1.08q-1.7-1.62-2.45-5.46Z"/><path class="b" d="M95.65,20.62a8.19,8.19,0,0,1,2.29-3,4,4,0,0,1,2.89-.7,5.23,5.23,0,0,1,3.6,1.78,4.9,4.9,0,0,1,1,3.83A7,7,0,0,1,105,24.2a16.71,16.71,0,0,1-.88,1.92L83.73,62.42a9.52,9.52,0,0,1-2.44,3.11,3.74,3.74,0,0,1-2.65.64A5.27,5.27,0,0,1,75,64.37a5,5,0,0,1-1-3.88,7.39,7.39,0,0,1,.43-1.77A9.36,9.36,0,0,1,75.27,57l5.42-8.94L72.84,22a5.72,5.72,0,0,1-.25-1.33A9,9,0,0,1,72.65,19a5.16,5.16,0,0,1,1.89-3.56,4.92,4.92,0,0,1,3.8-1.09,4.47,4.47,0,0,1,3,1.43,10.41,10.41,0,0,1,1.82,4.28l4.15,16.58Z"/><path class="b" d="M106.82,37.26V23.17q0-3.9,1.32-5.78a4.59,4.59,0,0,1,4-1.88,4.52,4.52,0,0,1,4,1.88q1.31,1.88,1.31,5.78V35.1q0,4.23,1.27,6a5.79,5.79,0,0,0,8.3,0q1.27-1.75,1.27-6V23.17q0-3.9,1.3-5.78a4.55,4.55,0,0,1,4-1.88,4.44,4.44,0,0,1,3.94,1.87q1.28,1.87,1.28,5.8V37.26q0,7.58-4.11,11.58t-11.89,4q-7.78,0-11.91-4T106.82,37.26Z"/><path class="b" d="M142,44.49V23.15q0-3.89,1.3-5.77a4.53,4.53,0,0,1,4-1.88,5.05,5.05,0,0,1,2.87.83,7.19,7.19,0,0,1,2.21,2.53,10.25,10.25,0,0,1,3.94-2.72,15.25,15.25,0,0,1,5.42-.85q6.27,0,9.59,3.57t3.32,10.39V44.49q0,3.91-1.31,5.82a5.16,5.16,0,0,1-8,0Q164,48.4,164,44.49v-12q0-4.45-1.33-6.34a5,5,0,0,0-4.38-1.89,4.86,4.86,0,0,0-4.27,2q-1.38,2-1.38,6.14V44.49q0,3.91-1.32,5.82a5.17,5.17,0,0,1-8,0A10.44,10.44,0,0,1,142,44.49Z"/><path class="b" d="M187.1,44.5q0,3.94-1.28,5.83a4.43,4.43,0,0,1-3.94,1.89,4.53,4.53,0,0,1-4-1.91q-1.31-1.9-1.31-5.81V23.2q0-3.91,1.3-5.8a4.54,4.54,0,0,1,4-1.89,4.43,4.43,0,0,1,3.94,1.89q1.28,1.89,1.28,5.8Z"/><path class="b" d="M198,47.21,188.7,23.66a11.19,11.19,0,0,1-.44-1.54,6.75,6.75,0,0,1-.15-1.35A5.19,5.19,0,0,1,189.57,17a4.85,4.85,0,0,1,3.63-1.51,4.58,4.58,0,0,1,3.28,1.22,9.43,9.43,0,0,1,2.17,4l5.81,18.45L210.2,20a6.93,6.93,0,0,1,1.9-3.27,4.45,4.45,0,0,1,3-1.1,4.78,4.78,0,0,1,3.61,1.43,5.2,5.2,0,0,1,1.38,3.76,7.33,7.33,0,0,1-.2,1.61,11.86,11.86,0,0,1-.62,1.87l-8.92,23.22a10.06,10.06,0,0,1-2.49,4.08,5.41,5.41,0,0,1-3.57,1.12,5.66,5.66,0,0,1-3.69-1.13A10.85,10.85,0,0,1,198,47.21Z"/><path class="b" d="M230.69,36.89a6.61,6.61,0,0,0,2.47,4.61,8.74,8.74,0,0,0,5.56,1.65,15.87,15.87,0,0,0,6.66-1.72,17.18,17.18,0,0,1,4.52-1.72,4.2,4.2,0,0,1,3.06,1.15,4,4,0,0,1,1.18,3q0,3.42-4.76,6.17a22,22,0,0,1-11.2,2.75,17.6,17.6,0,0,1-13.1-5.36,18.42,18.42,0,0,1-5.25-13.44,19,19,0,0,1,5.11-13.54A16.79,16.79,0,0,1,237.67,15,16.51,16.51,0,0,1,250,20.09a17.22,17.22,0,0,1,5,12.48,4.31,4.31,0,0,1-1.09,3.36q-1.09,1-4.18,1Zm-.13-7h14.08a6.46,6.46,0,0,0-2.18-4.46,7.19,7.19,0,0,0-9.39-.1A7.83,7.83,0,0,0,230.56,29.9Z"/><path class="b" d="M256.92,44.5V23.2q0-3.91,1.3-5.8a4.53,4.53,0,0,1,4-1.89,5,5,0,0,1,2.87.84,7.24,7.24,0,0,1,2.21,2.54,12,12,0,0,1,3.48-2.68,8.33,8.33,0,0,1,3.71-.91,5.24,5.24,0,0,1,3.79,1.56,5,5,0,0,1,1.59,3.7q0,3.19-5.84,5.33-2.1.76-3.15,1.25a5.79,5.79,0,0,0-2.66,2.13,9.5,9.5,0,0,0-.66,4.23v11q0,3.91-1.32,5.81a5.17,5.17,0,0,1-8,0Q256.92,48.41,256.92,44.5Z"/><path class="b" d="M292.65,52.84a17.89,17.89,0,0,1-9.44-2.28q-3.74-2.27-3.74-5.63a5,5,0,0,1,1.19-3.39,3.66,3.66,0,0,1,2.87-1.38,13,13,0,0,1,4.95,1.55,13,13,0,0,0,4.92,1.55,3.45,3.45,0,0,0,2.14-.62,1.88,1.88,0,0,0,.83-1.55q0-1.58-5.13-3.62l-.7-.26q-5.84-2.43-8-4.82a8.69,8.69,0,0,1-2.14-6,10.38,10.38,0,0,1,3.77-8.18,14,14,0,0,1,9.54-3.28,16.67,16.67,0,0,1,8.83,2.2q3.62,2.2,3.62,5.2a4.33,4.33,0,0,1-1.27,3.16,4.2,4.2,0,0,1-3.11,1.28,12.33,12.33,0,0,1-4.13-1.28,12.28,12.28,0,0,0-4.42-1.28,2.78,2.78,0,0,0-1.74.51,1.6,1.6,0,0,0-.66,1.33q0,1.48,4.23,3.09,2,.76,3.14,1.28A19.15,19.15,0,0,1,305,34.91a8.66,8.66,0,0,1,2,5.78,11,11,0,0,1-4.07,8.68A15.29,15.29,0,0,1,292.65,52.84Z"/><path class="b" d="M319.25,36.89a6.6,6.6,0,0,0,2.47,4.61,8.73,8.73,0,0,0,5.56,1.65,15.86,15.86,0,0,0,6.66-1.72,17.18,17.18,0,0,1,4.52-1.72,4.2,4.2,0,0,1,3.06,1.15,4,4,0,0,1,1.18,3q0,3.42-4.76,6.17a22,22,0,0,1-11.2,2.75,17.6,17.6,0,0,1-13.1-5.36,18.41,18.41,0,0,1-5.25-13.44,19,19,0,0,1,5.11-13.54A16.79,16.79,0,0,1,326.22,15a16.51,16.51,0,0,1,12.33,5.11,17.23,17.23,0,0,1,5,12.48,4.32,4.32,0,0,1-1.09,3.36q-1.09,1-4.18,1Zm-.13-7h14.08A6.46,6.46,0,0,0,331,25.43a7.19,7.19,0,0,0-9.39-.1A7.83,7.83,0,0,0,319.11,29.9Z"/><circle class="b" cx="51.69" cy="33.58" r="20.34"/></g><path class="c" d="M12.64,16.82l-3.94.77a10.94,10.94,0,0,1-6-.1,4.2,4.2,0,0,1-2.6-3.33A4.29,4.29,0,0,1,1.27,10,10.83,10.83,0,0,1,6.76,7.66L25.41,4a10.77,10.77,0,0,1,5.94.12A4.28,4.28,0,0,1,34,7.54a4.19,4.19,0,0,1-1.16,4.06,10.88,10.88,0,0,1-5.48,2.34l-4,.77,5.88,30.07q.75,3.85-.21,6a4.72,4.72,0,0,1-3.68,2.67A4.71,4.71,0,0,1,21,52.36q-1.69-1.62-2.45-5.46Z"/><path class="c" d="M94.92,19.89a8.18,8.18,0,0,1,2.29-3,4,4,0,0,1,2.89-.7,5.22,5.22,0,0,1,3.6,1.78,4.9,4.9,0,0,1,1,3.83,7,7,0,0,1-.42,1.64,16.67,16.67,0,0,1-.88,1.92L83,61.69a9.54,9.54,0,0,1-2.44,3.11,3.73,3.73,0,0,1-2.65.64,5.29,5.29,0,0,1-3.67-1.8,5,5,0,0,1-1-3.88A7.46,7.46,0,0,1,73.68,58a9.41,9.41,0,0,1,.86-1.72L80,47.33l-7.84-26A5.8,5.8,0,0,1,71.87,20a9.11,9.11,0,0,1,.06-1.67,5.15,5.15,0,0,1,1.89-3.56,4.91,4.91,0,0,1,3.8-1.09,4.46,4.46,0,0,1,3,1.43,10.4,10.4,0,0,1,1.82,4.28l4.15,16.58Z"/><path class="d" d="M106.09,36.57v-14q0-3.89,1.32-5.77a4.59,4.59,0,0,1,4-1.88,4.52,4.52,0,0,1,4,1.88q1.31,1.88,1.31,5.77V34.42q0,4.22,1.28,6a5.8,5.8,0,0,0,8.3,0q1.27-1.75,1.27-6V22.53q0-3.89,1.29-5.77a4.55,4.55,0,0,1,4-1.88,4.45,4.45,0,0,1,3.94,1.86q1.28,1.86,1.28,5.78v14q0,7.56-4.11,11.55t-11.89,4q-7.78,0-11.91-4T106.09,36.57Z"/><path class="d" d="M141.25,43.76V22.42q0-3.89,1.3-5.77a4.53,4.53,0,0,1,4-1.88,5.05,5.05,0,0,1,2.87.83,7.19,7.19,0,0,1,2.21,2.53,10.25,10.25,0,0,1,3.94-2.72,15.24,15.24,0,0,1,5.42-.85q6.27,0,9.59,3.57t3.32,10.39V43.76q0,3.91-1.31,5.82a5.16,5.16,0,0,1-8,0q-1.32-1.91-1.31-5.82v-12q0-4.45-1.33-6.34a5,5,0,0,0-4.38-1.89,4.86,4.86,0,0,0-4.27,2q-1.38,2-1.38,6.14V43.76q0,3.91-1.32,5.82a5.17,5.17,0,0,1-8,0A10.45,10.45,0,0,1,141.25,43.76Z"/><path class="d" d="M186.37,43.77q0,3.94-1.28,5.83a4.43,4.43,0,0,1-3.94,1.89,4.53,4.53,0,0,1-4-1.9q-1.31-1.9-1.31-5.81V22.47q0-3.91,1.3-5.8a4.54,4.54,0,0,1,4-1.89,4.43,4.43,0,0,1,3.94,1.89q1.28,1.89,1.28,5.8Z"/><path class="d" d="M197.24,46.48,188,22.93a11.34,11.34,0,0,1-.44-1.55,6.81,6.81,0,0,1-.15-1.35,5.18,5.18,0,0,1,1.46-3.75,4.85,4.85,0,0,1,3.63-1.51A4.58,4.58,0,0,1,195.76,16a9.46,9.46,0,0,1,2.17,4l5.8,18.44,5.74-19.13a6.92,6.92,0,0,1,1.9-3.27,4.45,4.45,0,0,1,3-1.1A4.78,4.78,0,0,1,218,16.34a5.2,5.2,0,0,1,1.38,3.76,7.29,7.29,0,0,1-.2,1.61,11.73,11.73,0,0,1-.62,1.87l-8.92,23.22a10,10,0,0,1-2.49,4.08A5.4,5.4,0,0,1,203.6,52a5.65,5.65,0,0,1-3.69-1.14A10.82,10.82,0,0,1,197.24,46.48Z"/><path class="d" d="M230,36.16a6.61,6.61,0,0,0,2.47,4.61A8.74,8.74,0,0,0,238,42.41a15.86,15.86,0,0,0,6.66-1.72A17.14,17.14,0,0,1,249.16,39a4.2,4.2,0,0,1,3.06,1.15,4,4,0,0,1,1.18,3q0,3.43-4.76,6.17A22,22,0,0,1,237.44,52a17.61,17.61,0,0,1-13.1-5.36,18.41,18.41,0,0,1-5.25-13.44,19,19,0,0,1,5.11-13.54,16.79,16.79,0,0,1,12.74-5.42,16.51,16.51,0,0,1,12.33,5.11,17.23,17.23,0,0,1,5,12.48,4.32,4.32,0,0,1-1.09,3.36q-1.09,1-4.18,1Zm-.13-7h14.08a6.47,6.47,0,0,0-2.18-4.47,7.19,7.19,0,0,0-9.39-.1A7.83,7.83,0,0,0,229.83,29.17Z"/><path class="d" d="M256.19,43.77V22.47q0-3.91,1.3-5.8a4.53,4.53,0,0,1,4-1.89,5,5,0,0,1,2.87.84,7.2,7.2,0,0,1,2.21,2.54A12,12,0,0,1,270,15.47a8.32,8.32,0,0,1,3.71-.91,5.23,5.23,0,0,1,3.79,1.56,5,5,0,0,1,1.59,3.7q0,3.19-5.84,5.33-2.1.76-3.15,1.25a5.8,5.8,0,0,0-2.66,2.12,9.52,9.52,0,0,0-.66,4.23v11q0,3.91-1.32,5.81a5.18,5.18,0,0,1-8,0Q256.19,47.68,256.19,43.77Z"/><path class="d" d="M291.92,52.11a17.91,17.91,0,0,1-9.43-2.27q-3.74-2.27-3.74-5.64a5,5,0,0,1,1.19-3.39,3.66,3.66,0,0,1,2.87-1.38A13.06,13.06,0,0,1,287.76,41a13,13,0,0,0,4.92,1.55,3.46,3.46,0,0,0,2.14-.62,1.88,1.88,0,0,0,.83-1.55q0-1.58-5.13-3.62l-.69-.26q-5.84-2.43-8-4.82a8.69,8.69,0,0,1-2.14-6,10.39,10.39,0,0,1,3.77-8.18A14,14,0,0,1,293,14.15a16.67,16.67,0,0,1,8.83,2.21q3.62,2.2,3.62,5.2a4.33,4.33,0,0,1-1.27,3.16A4.2,4.2,0,0,1,301.07,26a12.33,12.33,0,0,1-4.13-1.28,12.29,12.29,0,0,0-4.42-1.28,2.78,2.78,0,0,0-1.74.51,1.61,1.61,0,0,0-.66,1.33q0,1.48,4.23,3.09,2,.76,3.14,1.28a19.16,19.16,0,0,1,6.78,4.53,8.65,8.65,0,0,1,2,5.78,11,11,0,0,1-4.07,8.68A15.29,15.29,0,0,1,291.92,52.11Z"/><path class="d" d="M318.51,36.16A6.61,6.61,0,0,0,321,40.76a8.74,8.74,0,0,0,5.56,1.65,15.86,15.86,0,0,0,6.66-1.72A17.16,17.16,0,0,1,337.71,39a4.21,4.21,0,0,1,3.06,1.15,4,4,0,0,1,1.18,3q0,3.43-4.76,6.17A22,22,0,0,1,326,52a17.6,17.6,0,0,1-13.1-5.36,18.41,18.41,0,0,1-5.25-13.44,19,19,0,0,1,5.11-13.54,16.79,16.79,0,0,1,12.74-5.42,16.51,16.51,0,0,1,12.33,5.11,17.23,17.23,0,0,1,5,12.48,4.31,4.31,0,0,1-1.09,3.36q-1.09,1-4.18,1Zm-.13-7h14.08a6.46,6.46,0,0,0-2.18-4.47,7.19,7.19,0,0,0-9.39-.1A7.82,7.82,0,0,0,318.38,29.17Z"/><g class="e"><ellipse class="f" cx="181.18" cy="8.3" rx="3.73" ry="2.97"/></g><ellipse class="f" cx="180.88" cy="1.2" rx="1.99" ry="1.2"/><circle class="d" cx="50.96" cy="32.85" r="20.34"/><polygon class="g" points="61.04 36.1 54.52 36.81 53.24 43.24 49.36 37.95 43.16 40.05 45.8 34.05 40.88 29.73 47.39 29.01 48.68 22.59 52.55 27.87 58.76 25.78 56.12 31.77 61.04 36.1"/><polygon class="f" points="184.54 7.28 182.57 7 181.75 8.7 180.97 6.94 178.99 7.07 180.18 5.59 179.03 4.02 181 4.29 181.83 2.59 182.61 4.35 184.59 4.22 183.39 5.71 184.54 7.28"/><ellipse class="d" cx="180.92" cy="5.83" rx="5.96" ry="5.71"/><polygon class="g" points="183.88 6.75 181.97 6.95 181.59 8.75 180.46 7.27 178.64 7.86 179.41 6.17 177.97 4.96 179.88 4.76 180.25 2.95 181.39 4.44 183.21 3.85 182.44 5.53 183.88 6.75"/><path class="h" d="M291.79,63.88a1.2,1.2,0,1,1-.35-.86A1.18,1.18,0,0,1,291.79,63.88Z"/><path class="h" d="M293.7,64.17a4.13,4.13,0,0,1,0-5.4,3.53,3.53,0,0,1,2.61-1,3.78,3.78,0,0,1,2.25.66,3.13,3.13,0,0,1,1.22,1.88h-2.41a1.06,1.06,0,0,0-1-.65,1.19,1.19,0,0,0-1.05.5,2.7,2.7,0,0,0,0,2.64,1.14,1.14,0,0,0,1,.5,1.24,1.24,0,0,0,.65-.14,1.19,1.19,0,0,0,.42-.51h2.41a3.23,3.23,0,0,1-1.24,1.86,3.67,3.67,0,0,1-2.24.69A3.52,3.52,0,0,1,293.7,64.17Z"/><path class="h" d="M301.6,64.16a3.53,3.53,0,0,1-1.1-2.7,3.48,3.48,0,0,1,1.09-2.68,4.12,4.12,0,0,1,5.4,0,3.49,3.49,0,0,1,1.09,2.68,3.56,3.56,0,0,1-1.08,2.7,3.75,3.75,0,0,1-2.69,1A3.82,3.82,0,0,1,301.6,64.16Zm3.78-1.34a1.89,1.89,0,0,0,.44-1.35,1.84,1.84,0,0,0-.46-1.35,1.46,1.46,0,0,0-1.08-.46,1.45,1.45,0,0,0-1.07.46,2.23,2.23,0,0,0,0,2.7,1.47,1.47,0,0,0,1.08.47A1.41,1.41,0,0,0,305.38,62.82Z"/><path class="h" d="M311.73,57.84V58.9a2.37,2.37,0,0,1,2.2-1.14,2.81,2.81,0,0,1,1.44.36,2.5,2.5,0,0,1,1,1,3.09,3.09,0,0,1,1-1,3,3,0,0,1,3.54.44,3.17,3.17,0,0,1,.78,2.27v4.24h-2.21V61.15a1.5,1.5,0,0,0-.37-1.08,1.55,1.55,0,0,0-2,0,1.5,1.5,0,0,0-.37,1.08v3.94h-2.21V61.15a1.5,1.5,0,0,0-.37-1.08,1.55,1.55,0,0,0-2,0,1.5,1.5,0,0,0-.37,1.08v3.94h-2.22V57.84Z"/><path class="h" d="M325.51,63.88a1.2,1.2,0,1,1-.35-.86A1.18,1.18,0,0,1,325.51,63.88Z"/><path class="h" d="M327.37,64.14a4.18,4.18,0,0,1,0-5.34,3.06,3.06,0,0,1,2.35-1,2.46,2.46,0,0,1,2.13,1v-.95h2.22v7.25h-2.22V64a2.51,2.51,0,0,1-2.16,1.14A3,3,0,0,1,327.37,64.14Zm4-1.35a1.76,1.76,0,0,0,.48-1.33,1.74,1.74,0,0,0-.48-1.32,1.55,1.55,0,0,0-2.21,0,1.77,1.77,0,0,0-.48,1.33,1.74,1.74,0,0,0,.48,1.32,1.55,1.55,0,0,0,2.21,0Z"/><path class="h" d="M340.95,57.84h2.22v7.25h-2.22V64a2.38,2.38,0,0,1-2.2,1.14,2.63,2.63,0,0,1-2-.83,3.19,3.19,0,0,1-.77-2.26V57.84h2.21v3.94a1.5,1.5,0,0,0,.37,1.09,1.55,1.55,0,0,0,2,0,1.5,1.5,0,0,0,.37-1.09Z"/></svg>